<svg width="18" height="18" viewBox="0 0 18 18" fill="none" xmlns="http://www.w3.org/2000/svg">
<path d="M2 0.216868V17.6747C2 17.7832 2.11112 17.8916 2.22223 17.8916H4.66667C4.77778 17.8916 4.88889 17.7832 4.88889 17.6747V14.4217H7.11111V11.494H3V9.65062H7.11111V8.78315H3V6.93977H7.11111V6.18073H3V4.22892H8.88889V5.31326H10V0.216868C10 0.108434 9.88888 0 9.77777 0H2.11112C2.11112 0 2 0.108434 2 0.216868ZM8.99999 3.46988H3.11111V1.62651H8.99999V3.46988Z" fill="#353535"/>
<path d="M7.88892 6.28913V17.6747C7.88892 17.7831 8.00002 17.8916 8.11113 17.8916H10.5556C10.6667 17.8916 10.7778 17.7831 10.7778 17.6747V14.747C10.7778 14.6385 10.8889 14.5301 11 14.5301H12.8889C13 14.5301 13.1111 14.6385 13.1111 14.747V17.7831C13.1111 17.8916 13.2222 18 13.3334 18H15.7778C15.8889 18 16 17.8916 16 17.7831V6.28913C16 6.1807 15.8889 6.07227 15.7778 6.07227H8.11113C8.00002 6.07227 7.88892 6.1807 7.88892 6.28913ZM14.8889 12.3614H9.00003V10.5181H14.8889V12.3614ZM14.8889 9.65058H9.00003V7.80721H14.8889V9.65058Z" fill="#353535"/>
</svg>
