<svg width="30" height="30" viewBox="0 0 15 15" fill="none" xmlns="http://www.w3.org/2000/svg">
  <path
    d="M0.892857 4.47833H14.1071C14.6429 4.47833 15 4.11207 15 3.56268C15 3.01329 14.6429 2.64703 14.1071 2.64703H0.892857C0.357143 2.64703 0 3.01329 0 3.56268C0 4.11207 0.357143 4.47833 0.892857 4.47833Z"
    fill="#114FAC" />
  <path
    d="M0.892857 12.3529H14.1071C14.6429 12.3529 15 11.9866 15 11.4373C15 10.8879 14.6429 10.5216 14.1071 10.5216H0.892857C0.357143 10.5216 0 10.8879 0 11.4373C0 11.8951 0.357143 12.3529 0.892857 12.3529Z"
    fill="#114FAC" />
  <path
    d="M0.892857 8.23248H14.1071C14.6429 8.23248 15 7.86622 15 7.31683C15 6.76744 14.6429 6.40118 14.1071 6.40118H0.892857C0.357143 6.40118 0 6.76744 0 7.31683C0 7.77466 0.357143 8.23248 0.892857 8.23248Z"
    fill="#114FAC" />
</svg>