<svg width="18" height="18" viewBox="0 0 18 18" fill="none" xmlns="http://www.w3.org/2000/svg">
<path d="M15.9585 14.1207L9.56836 17.8449C9.25916 18.0517 8.84689 18.0517 8.53769 17.8449L2.04452 14.1207C1.32305 13.7069 1.32305 12.7759 2.04452 12.3621L3.07518 11.7414L8.02236 14.5345C8.33156 14.7414 8.74383 14.8448 9.05303 14.8448C9.46529 14.8448 9.77449 14.7414 10.0837 14.5345L14.9278 11.7414L15.9585 12.3621C16.6799 12.7759 16.6799 13.7069 15.9585 14.1207Z" fill="#353535"/>
<path d="M15.959 9.87925L14.9284 10.4999L13.8977 11.1206L9.56893 13.6034C9.25973 13.8103 8.84746 13.8103 8.53826 13.6034L4.20948 11.0172L3.17882 10.3965L2.14815 9.7758C1.42669 9.362 1.42669 8.43097 2.14815 8.01717L3.17882 7.39648L5.75548 8.94821L6.78614 9.5689L8.02293 10.293C8.33213 10.4999 8.7444 10.6034 9.0536 10.6034C9.46586 10.6034 9.77506 10.4999 10.0843 10.293L11.3211 9.5689L12.3517 8.94821L14.9284 7.39648L15.959 8.01717C16.6805 8.53442 16.6805 9.5689 15.959 9.87925Z" fill="#353535"/>
<path d="M15.9585 5.74139L14.9278 6.36208L13.8971 6.98277L11.3205 8.53449L10.2898 9.15518L9.56836 9.56898C9.25916 9.77588 8.84689 9.77588 8.53769 9.56898L7.71316 9.15518L6.6825 8.53449L4.10584 7.08622L3.07518 6.46553L2.04452 5.84484C1.32305 5.43104 1.32305 4.50001 2.04452 4.08621L8.43463 0.155173C8.74383 -0.0517242 9.15609 -0.0517242 9.46529 0.155173L15.9585 3.87932C16.6799 4.29311 16.6799 5.32759 15.9585 5.74139Z" fill="#353535"/>
</svg>
