<svg width="15" height="15" viewBox="0 0 15 15" fill="none" xmlns="http://www.w3.org/2000/svg">
<path d="M3.4422 12.8634L12.8634 3.4422C13.2453 3.06026 13.2388 2.54451 12.8472 2.15282C12.4555 1.76113 11.9397 1.75463 11.5578 2.13657L2.13657 11.5578C1.75463 11.9397 1.76113 12.4555 2.15282 12.8472C2.54451 13.2388 3.06026 13.2453 3.4422 12.8634Z" fill="#353535"/>
<path d="M2.13654 3.4422L11.5577 12.8634C11.9397 13.2453 12.4554 13.2388 12.8471 12.8472C13.2388 12.4555 13.2453 11.9397 12.8634 11.5578L3.44217 2.13657C3.06023 1.75463 2.54448 1.76113 2.15279 2.15282C1.82638 2.47923 1.75459 3.06026 2.13654 3.4422Z" fill="#353535"/>
</svg>
