<svg width="18" height="18" viewBox="0 0 18 18" fill="none" xmlns="http://www.w3.org/2000/svg">
<path d="M4 1.30909V16.6909C4 17.4545 4.625 18 5.25 18H12.75C13.4792 18 14 17.3455 14 16.6909V1.30909C14 0.545455 13.375 0 12.75 0H5.25C4.52083 0 4 0.654545 4 1.30909ZM8.0625 1.85455H9.9375V2.18182H8.0625V1.85455ZM9.625 16.9091C9.52084 17.1273 9.3125 17.2364 9 17.2364C8.6875 17.2364 8.47916 17.1273 8.375 16.9091C8.27083 16.8 8.27083 16.5818 8.27083 16.4727C8.27083 16.0364 8.58334 15.7091 9 15.7091C9.41667 15.7091 9.72917 16.0364 9.72917 16.4727C9.72917 16.6909 9.72917 16.8 9.625 16.9091ZM12.9583 14.9455H5.04167V2.72727H12.9583V14.9455Z" fill="#353535"/>
</svg>
