<svg width="43" height="43" viewBox="0 0 43 43" fill="none" xmlns="http://www.w3.org/2000/svg">
<rect width="43" height="43" rx="12" fill="#114FAC"/>
<g clip-path="url(#clip0)">
<path d="M30.2986 14.498H12.7014C11.87 14.498 11.3158 15.0366 11.3158 15.8445V27.1549C11.3158 27.9627 11.87 28.5013 12.7014 28.5013H30.2986C30.9914 28.5013 31.6842 27.9627 31.6842 27.1549V15.8445C31.6842 15.0366 30.9914 14.498 30.2986 14.498ZM19.4909 27.0202H13.3942C13.1171 27.0202 12.84 26.7509 12.84 26.4816C12.84 26.2123 13.1171 25.943 13.3942 25.943H19.4909C19.768 25.943 20.0451 26.2123 20.0451 26.4816C19.9066 26.7509 19.768 27.0202 19.4909 27.0202ZM12.84 24.7312C12.84 24.4619 13.1171 24.1926 13.3942 24.1926H16.7197C16.9968 24.1926 17.2739 24.4619 17.2739 24.7312C17.2739 25.0005 16.9968 25.2698 16.7197 25.2698H13.3942C13.1171 25.1352 12.84 25.0005 12.84 24.7312ZM29.8829 17.0563L21.7078 21.2304C21.5693 21.2304 21.5693 21.2304 21.4307 21.2304C21.2922 21.2304 21.2922 21.2304 21.1536 21.2304L13.1171 17.0563C12.84 16.9217 12.84 16.5178 12.9785 16.2485C13.1171 15.9792 13.3942 15.9792 13.6713 15.9792L21.5693 20.1532L29.6058 15.9792C29.8829 15.8445 30.16 15.9792 30.2986 16.2485C30.4372 16.5178 30.16 16.9217 29.8829 17.0563Z" fill="white"/>
</g>
<defs>
<clipPath id="clip0">
<rect width="20.3684" height="20.3684" fill="white" transform="translate(11.3158 11.3157)"/>
</clipPath>
</defs>
</svg>
