<svg width="43" height="43" viewBox="0 0 43 43" fill="none" xmlns="http://www.w3.org/2000/svg">
<rect width="43" height="43" rx="12" fill="#114FAC"/>
<g clip-path="url(#clip0)">
<path d="M21.5001 11.3157C18.0148 11.3157 15.2764 14.0151 15.2764 17.4507C15.2764 20.7637 21.5001 31.6841 21.5001 31.6841C21.5001 31.6841 27.7237 20.7637 27.7237 17.4507C27.5993 14.0151 24.8608 11.3157 21.5001 11.3157ZM21.5001 22.1134C18.7616 22.1134 16.6456 20.0275 16.6456 17.4507C16.6456 14.874 18.7616 12.7881 21.5001 12.7881C24.114 12.7881 26.2301 14.874 26.2301 17.4507C26.2301 20.0275 24.114 22.1134 21.5001 22.1134Z" fill="white"/>
</g>
<defs>
<clipPath id="clip0">
<rect width="20.3684" height="20.3684" fill="white" transform="translate(11.3158 11.3157)"/>
</clipPath>
</defs>
</svg>
