<svg width="43" height="43" viewBox="0 0 43 43" fill="none" xmlns="http://www.w3.org/2000/svg">
<rect width="43" height="43" rx="12" fill="#114FAC"/>
<g clip-path="url(#clip0)">
<path d="M26.397 25.6818C25.7115 26.3706 24.7323 26.5674 23.851 26.2722C22.48 25.7802 21.0111 24.8946 19.5423 23.4187C18.1713 22.0411 17.29 20.5651 16.8003 19.1876C16.5066 18.302 16.7024 17.318 17.3879 16.6292L17.7796 16.2356C18.3672 15.5468 18.3671 14.7596 17.8775 14.2676L15.3315 11.7093C14.1564 10.5285 12.7854 12.2997 12.1979 13.2837C11.3165 14.5628 11.2186 16.334 11.4145 17.9084C11.9041 22.3363 14.646 26.2722 18.1713 28.8306C18.6609 29.2242 19.1506 29.5194 19.7381 29.8146C22.6759 31.4873 26.5929 32.4713 29.7265 30.7985C30.7057 30.3065 32.3704 28.8306 31.2933 27.6498L28.7472 25.0914C28.2576 24.5995 27.4742 24.5995 26.9846 25.0914L26.397 25.6818Z" fill="white"/>
</g>
<defs>
<clipPath id="clip0">
<rect width="20.3684" height="20.3684" fill="white" transform="translate(11.3158 11.3157)"/>
</clipPath>
</defs>
</svg>
