<svg width="14" height="14" viewBox="0 0 14 14" fill="none" xmlns="http://www.w3.org/2000/svg">
<g clip-path="url(#clip0)">
<path d="M13.3043 11.4304C13.8841 12.0211 13.8841 12.9662 13.3043 13.557C12.7246 14.1477 11.7971 14.1477 11.2174 13.557L6.92754 9.06751L2.52174 13.557C1.94203 14.1477 1.01449 14.1477 0.434783 13.557C-0.144928 12.9662 -0.144928 12.0211 0.434783 11.4304L4.84058 6.94093L0.550725 2.56962C0.202899 2.33333 0.0869565 1.9789 0.0869565 1.50633C0.0869565 1.1519 0.202899 0.797468 0.550725 0.443038C1.13043 -0.147679 2.05797 -0.147679 2.63768 0.443038L7.04348 4.93249L11.4493 0.443038C12.029 -0.147679 12.9565 -0.147679 13.5362 0.443038C13.7681 0.679325 14 1.1519 14 1.50633C14 1.86076 13.8841 2.21519 13.5362 2.56962L8.89855 7.05907L13.3043 11.4304Z" fill="#353535"/>
</g>
<defs>
<clipPath id="clip0">
<rect width="14" height="14" fill="white"/>
</clipPath>
</defs>
</svg>
