<svg width="18" height="18" viewBox="0 0 18 18" fill="none" xmlns="http://www.w3.org/2000/svg">
<path d="M13.6332 0H4.36264C1.96319 0 0 1.97561 0 4.39024V13.6098C0 16.0244 1.96319 18 4.36264 18H13.6332C16.0327 18 17.9959 16.0244 17.9959 13.6098V4.39024C18.1049 1.97561 16.0327 0 13.6332 0ZM16.3599 13.6098C16.3599 15.0366 15.1602 16.2439 13.6332 16.2439H9.70686V10.2073H11.1247V8.12195H9.70686V6.80488C9.70686 6.47561 9.81594 6.14634 9.92501 6.03659C10.0341 5.92683 10.2522 5.81707 10.4703 5.81707C10.5794 5.81707 10.6885 5.81707 10.7975 5.81707C10.9066 5.81707 11.0157 5.81707 11.1247 5.92683V3.62195C10.9066 3.62195 10.6885 3.5122 10.4703 3.5122C10.2522 3.5122 10.1431 3.5122 9.92501 3.5122C8.83435 3.5122 8.07087 3.73171 7.52554 4.28049C6.98021 4.82927 6.7621 5.48781 6.7621 6.47561V8.12195H5.4533V10.2073H6.7621V16.2439H4.36264C2.94478 16.2439 1.63599 15.0366 1.63599 13.6098V4.39024C1.63599 2.96341 2.83571 1.7561 4.36264 1.7561H13.5242C15.0511 1.7561 16.2508 2.96341 16.2508 4.39024V13.6098H16.3599Z" fill="#353535"/>
</svg>
