<svg width="18" height="18" viewBox="0 0 18 18" fill="none" xmlns="http://www.w3.org/2000/svg">
<path d="M16.4118 7.28324V16.9595C16.4118 17.5838 16.0084 18 15.4034 18H11.9748C11.3698 18 10.9664 17.5838 10.9664 16.9595V12.1734C10.9664 11.5491 10.563 11.1329 9.958 11.1329H8.04204C7.437 11.1329 7.03364 11.5491 7.03364 12.1734V16.9595C7.03364 17.5838 6.63027 18 6.02523 18H2.59666C1.99162 18 1.58826 17.5838 1.58826 16.9595V7.28324C1.58826 6.9711 1.6891 6.76301 1.89078 6.55491L8.24372 0.312139C8.64708 -0.104046 9.25212 -0.104046 9.65548 0.312139L13.3866 3.95376V3.01734C13.3866 2.39306 13.8908 1.97688 14.395 1.97688C15 1.97688 15.4034 2.49711 15.4034 3.01734V6.03468L16.0084 6.55491C16.2101 6.65896 16.4118 6.9711 16.4118 7.28324Z" fill="#353535"/>
</svg>
