<svg width="18" height="18" viewBox="0 0 18 18" fill="none" xmlns="http://www.w3.org/2000/svg">
<path d="M13.6364 0H4.36364C1.96364 0 0 1.97561 0 4.39024V13.6098C0 16.0244 1.96364 18 4.36364 18H13.6364C16.0364 18 18 16.0244 18 13.6098V4.39024C18 1.97561 16.0364 0 13.6364 0ZM16.2546 13.6098C16.2546 15.0366 15.0545 16.2439 13.6364 16.2439H4.47273C2.94546 16.2439 1.74546 15.0366 1.74546 13.6098V4.39024C1.74546 2.96341 2.94546 1.7561 4.47273 1.7561H13.6364C15.0545 1.7561 16.2546 2.96341 16.2546 4.39024V13.6098Z" fill="#353535"/>
<path d="M9.05458 4.5C6.54549 4.5 4.58185 6.58537 4.58185 9C4.58185 11.5244 6.65458 13.5 9.05458 13.5C11.5637 13.5 13.5273 11.4146 13.5273 9C13.5273 6.47561 11.5637 4.5 9.05458 4.5ZM9.05458 11.8537C7.52731 11.8537 6.32731 10.6463 6.32731 9.10976C6.32731 7.57317 7.52731 6.36585 9.05458 6.36585C10.5819 6.36585 11.891 7.57317 11.891 9.10976C11.7819 10.5366 10.5819 11.8537 9.05458 11.8537Z" fill="#353535"/>
<path d="M13.7455 5.37807C14.4082 5.37807 14.9455 4.83754 14.9455 4.17076C14.9455 3.50397 14.4082 2.96344 13.7455 2.96344C13.0827 2.96344 12.5455 3.50397 12.5455 4.17076C12.5455 4.83754 13.0827 5.37807 13.7455 5.37807Z" fill="#353535"/>
</svg>
