<svg width="16" height="16" viewBox="0 0 16 16" fill="none" xmlns="http://www.w3.org/2000/svg">
<path d="M14.9116 2.5H1.08844C0.435374 2.5 0 2.92308 0 3.55769V12.4423C0 13.0769 0.435374 13.5 1.08844 13.5H14.9116C15.4558 13.5 16 13.0769 16 12.4423V3.55769C16 2.92308 15.4558 2.5 14.9116 2.5ZM6.42177 12.3365H1.63265C1.41497 12.3365 1.19728 12.125 1.19728 11.9135C1.19728 11.7019 1.41497 11.4904 1.63265 11.4904H6.42177C6.63946 11.4904 6.85714 11.7019 6.85714 11.9135C6.7483 12.125 6.63946 12.3365 6.42177 12.3365ZM1.19728 10.5385C1.19728 10.3269 1.41497 10.1154 1.63265 10.1154H4.2449C4.46259 10.1154 4.68027 10.3269 4.68027 10.5385C4.68027 10.75 4.46259 10.9615 4.2449 10.9615H1.63265C1.41497 10.8558 1.19728 10.75 1.19728 10.5385ZM14.585 4.50962L8.16327 7.78846C8.05442 7.78846 8.05442 7.78846 7.94558 7.78846C7.83674 7.78846 7.83673 7.78846 7.72789 7.78846L1.41497 4.50962C1.19728 4.40385 1.19728 4.08654 1.30612 3.875C1.41497 3.66346 1.63265 3.66346 1.85034 3.66346L8.05442 6.94231L14.3673 3.66346C14.585 3.55769 14.8027 3.66346 14.9116 3.875C15.0204 4.08654 14.8027 4.40385 14.585 4.50962Z" fill="#353535"/>
</svg>
