<svg width="18" height="18" viewBox="0 0 18 18" fill="none" xmlns="http://www.w3.org/2000/svg">
<path d="M13.3276 12.6958C12.7218 13.3044 11.8564 13.4784 11.0776 13.2175C9.86602 12.7827 8.56794 12.0001 7.26986 10.6958C6.05832 9.47836 5.27948 8.17401 4.84678 6.95662C4.58717 6.17401 4.76025 5.30445 5.36602 4.69575L5.71217 4.34793C6.2314 3.73923 6.2314 3.04358 5.79871 2.6088L3.54871 0.347927C2.51025 -0.695551 1.29871 0.869666 0.779477 1.73923C0.000630942 2.86967 -0.0859075 4.43488 0.0871694 5.82619C0.519862 9.73923 2.94294 13.2175 6.05832 15.4784C6.49102 15.8262 6.92371 16.0871 7.44294 16.3479C10.0391 17.8262 13.5006 18.6958 16.2699 17.2175C17.1352 16.7827 18.6064 15.4784 17.6545 14.4349L15.4045 12.174C14.9718 11.7392 14.2795 11.7392 13.8468 12.174L13.3276 12.6958Z" fill="#353535"/>
</svg>
