<svg width="28" height="28" viewBox="0 0 18 18" fill="none" xmlns="http://www.w3.org/2000/svg">
  <path
    d="M14.6786 13.1687C15.8572 11.6656 16.5 9.62568 16.2857 7.47842C15.9643 3.72071 12.9643 0.607183 9.21429 0.0703679C4.28572 -0.573811 0 3.29126 0 8.1226C0 12.6318 3.64286 16.2822 8.14286 16.2822C9.96429 16.2822 11.6786 15.638 13.0714 14.5644L16.1786 17.6779C16.6072 18.1074 17.25 18.1074 17.6786 17.6779C18.1071 17.2485 18.1071 16.6043 17.6786 16.1748L14.6786 13.1687ZM8.25001 14.1349C4.92859 14.1349 2.25001 11.4509 2.25001 8.1226C2.25001 4.79434 4.92859 2.11027 8.25001 2.11027C11.5714 2.11027 14.25 4.79434 14.25 8.1226C14.25 11.4509 11.5714 14.1349 8.25001 14.1349Z"
    fill="#114FAC" />
</svg>