<svg width="18" height="18" viewBox="0 0 18 18" fill="none" xmlns="http://www.w3.org/2000/svg">
<path d="M13.6331 0H4.47162C2.0722 0 0 1.97561 0 4.39024V13.6098C0 16.0244 1.96314 18 4.47162 18H13.6331C16.0325 18 17.9957 16.0244 17.9957 13.6098V4.39024C18.1047 1.97561 16.1416 0 13.6331 0ZM16.3597 13.6098C16.3597 15.0366 15.16 16.2439 13.7421 16.2439H4.5807C3.05379 16.2439 1.85408 15.0366 1.85408 13.6098V4.39024C1.85408 2.96341 3.05379 1.7561 4.5807 1.7561H13.7421C15.269 1.7561 16.3597 2.96341 16.3597 4.39024V13.6098Z" fill="#353535"/>
<path d="M13.7421 5.26828C13.7421 5.48779 13.7421 5.59755 13.6331 5.7073C13.4149 6.47559 13.3059 7.35364 13.0877 8.12194C12.9787 8.89023 12.7605 9.65852 12.6515 10.4268C12.4333 11.1951 12.3243 11.9634 12.1061 12.8414C12.1061 12.9512 11.9971 13.061 11.9971 13.1707C11.888 13.3902 11.6699 13.3902 11.5608 13.3902C11.4517 13.3902 11.3427 13.2805 11.2336 13.2805C10.5792 12.7317 9.81579 12.1829 9.1614 11.7439L9.05233 11.6341H8.94326C8.8342 11.7439 8.72514 11.8536 8.61608 11.9634C8.39795 12.1829 8.07074 12.5122 7.85261 12.7317C7.74355 12.8414 7.6345 12.9512 7.52543 12.9512C7.41637 12.9512 7.41636 12.9512 7.41636 12.8414C7.41636 12.4024 7.52543 12.0732 7.52543 11.6341C7.52543 11.3049 7.52544 10.9756 7.6345 10.6463C7.6345 10.5366 7.63448 10.5366 7.74354 10.5366C8.507 9.87803 9.27045 9.10974 10.0339 8.45121C10.6883 7.90242 11.3427 7.24389 11.9971 6.69511C11.9971 6.69511 12.1061 6.69511 12.1061 6.58535V6.47559H11.9971C11.888 6.47559 11.888 6.47559 11.7789 6.58535C11.1246 7.02438 10.4702 7.35364 9.8158 7.79267C9.05235 8.34145 8.17981 8.78047 7.41636 9.32925C7.08917 9.54877 6.76198 9.76828 6.43479 9.98779H6.32572C5.56226 9.76828 4.79881 9.54877 4.14442 9.32925C4.03536 9.32925 4.03534 9.32925 3.92628 9.2195L3.81724 9.10974C3.70818 8.99999 3.70818 8.89023 3.81724 8.89023C3.81724 8.78047 3.92628 8.78047 3.92628 8.78047C4.03534 8.67072 4.14442 8.67072 4.14442 8.67072C4.90787 8.34145 5.56226 8.12194 6.32572 7.79267C7.52543 7.35364 8.61609 6.91462 9.8158 6.47559C11.0155 6.03657 12.1061 5.59755 13.3058 5.15852C13.4149 5.15852 13.524 5.04877 13.6331 5.15852C13.8512 5.15852 13.9602 5.26828 13.9602 5.48779C13.7421 5.04877 13.7421 5.15852 13.7421 5.26828Z" fill="#353535"/>
</svg>
