<svg width="65" height="65" viewBox="0 0 65 65" fill="none" xmlns="http://www.w3.org/2000/svg">
<path d="M17.7555 26.6852C17.444 26.8929 17.0287 26.9967 16.6133 26.9967H14.1213V24.4009H16.6133C17.1325 24.4009 17.5479 24.5047 17.7555 24.7124C18.067 24.92 18.1709 25.2316 18.1709 25.6469C18.067 26.0622 17.9632 26.3737 17.7555 26.6852Z" fill="#114FAC"/>
<path d="M25.9585 23.9856C25.647 23.6741 25.1278 23.4665 24.6086 23.4665C24.0895 23.4665 23.6741 23.6741 23.3626 23.9856C23.0511 24.2971 22.8435 24.8163 22.8435 25.3355C22.8435 25.8546 23.0511 26.3738 23.3626 26.6853C23.6741 26.9968 24.1933 27.2045 24.6086 27.2045C25.1278 27.2045 25.5431 26.9968 25.9585 26.6853C26.27 26.3738 26.4776 25.8546 26.4776 25.3355C26.4776 24.8163 26.27 24.401 25.9585 23.9856ZM25.9585 23.9856C25.647 23.6741 25.1278 23.4665 24.6086 23.4665C24.0895 23.4665 23.6741 23.6741 23.3626 23.9856C23.0511 24.2971 22.8435 24.8163 22.8435 25.3355C22.8435 25.8546 23.0511 26.3738 23.3626 26.6853C23.6741 26.9968 24.1933 27.2045 24.6086 27.2045C25.1278 27.2045 25.5431 26.9968 25.9585 26.6853C26.27 26.3738 26.4776 25.8546 26.4776 25.3355C26.4776 24.8163 26.27 24.401 25.9585 23.9856ZM25.9585 23.9856C25.647 23.6741 25.1278 23.4665 24.6086 23.4665C24.0895 23.4665 23.6741 23.6741 23.3626 23.9856C23.0511 24.2971 22.8435 24.8163 22.8435 25.3355C22.8435 25.8546 23.0511 26.3738 23.3626 26.6853C23.6741 26.9968 24.1933 27.2045 24.6086 27.2045C25.1278 27.2045 25.5431 26.9968 25.9585 26.6853C26.27 26.3738 26.4776 25.8546 26.4776 25.3355C26.4776 24.8163 26.27 24.401 25.9585 23.9856ZM42.3642 23.6741C42.0527 23.4665 41.7412 23.3626 41.3259 23.3626C40.9106 23.3626 40.599 23.4665 40.2875 23.6741C39.976 23.8818 39.7684 24.1933 39.7684 24.6086H42.9872C42.7796 24.2971 42.6757 23.9856 42.3642 23.6741ZM25.9585 23.9856C25.647 23.6741 25.1278 23.4665 24.6086 23.4665C24.0895 23.4665 23.6741 23.6741 23.3626 23.9856C23.0511 24.2971 22.8435 24.8163 22.8435 25.3355C22.8435 25.8546 23.0511 26.3738 23.3626 26.6853C23.6741 26.9968 24.1933 27.2045 24.6086 27.2045C25.1278 27.2045 25.5431 26.9968 25.9585 26.6853C26.27 26.3738 26.4776 25.8546 26.4776 25.3355C26.4776 24.8163 26.27 24.401 25.9585 23.9856ZM42.3642 23.6741C42.0527 23.4665 41.7412 23.3626 41.3259 23.3626C40.9106 23.3626 40.599 23.4665 40.2875 23.6741C39.976 23.8818 39.7684 24.1933 39.7684 24.6086H42.9872C42.7796 24.2971 42.6757 23.9856 42.3642 23.6741ZM25.9585 23.9856C25.647 23.6741 25.1278 23.4665 24.6086 23.4665C24.0895 23.4665 23.6741 23.6741 23.3626 23.9856C23.0511 24.2971 22.8435 24.8163 22.8435 25.3355C22.8435 25.8546 23.0511 26.3738 23.3626 26.6853C23.6741 26.9968 24.1933 27.2045 24.6086 27.2045C25.1278 27.2045 25.5431 26.9968 25.9585 26.6853C26.27 26.3738 26.4776 25.8546 26.4776 25.3355C26.4776 24.8163 26.27 24.401 25.9585 23.9856ZM42.3642 23.6741C42.0527 23.4665 41.7412 23.3626 41.3259 23.3626C40.9106 23.3626 40.599 23.4665 40.2875 23.6741C39.976 23.8818 39.7684 24.1933 39.7684 24.6086H42.9872C42.7796 24.2971 42.6757 23.9856 42.3642 23.6741ZM50.4633 23.6741C50.1518 23.4665 49.8403 23.3626 49.4249 23.3626C49.0096 23.3626 48.6981 23.4665 48.3866 23.6741C48.0751 23.8818 47.8674 24.1933 47.8674 24.6086H51.0863C50.9824 24.2971 50.7748 23.9856 50.4633 23.6741ZM50.4633 23.6741C50.1518 23.4665 49.8403 23.3626 49.4249 23.3626C49.0096 23.3626 48.6981 23.4665 48.3866 23.6741C48.0751 23.8818 47.8674 24.1933 47.8674 24.6086H51.0863C50.9824 24.2971 50.7748 23.9856 50.4633 23.6741ZM25.9585 23.9856C25.647 23.6741 25.1278 23.4665 24.6086 23.4665C24.0895 23.4665 23.6741 23.6741 23.3626 23.9856C23.0511 24.2971 22.8435 24.8163 22.8435 25.3355C22.8435 25.8546 23.0511 26.3738 23.3626 26.6853C23.6741 26.9968 24.1933 27.2045 24.6086 27.2045C25.1278 27.2045 25.5431 26.9968 25.9585 26.6853C26.27 26.3738 26.4776 25.8546 26.4776 25.3355C26.4776 24.8163 26.27 24.401 25.9585 23.9856ZM42.3642 23.6741C42.0527 23.4665 41.7412 23.3626 41.3259 23.3626C40.9106 23.3626 40.599 23.4665 40.2875 23.6741C39.976 23.8818 39.7684 24.1933 39.7684 24.6086H42.9872C42.7796 24.2971 42.6757 23.9856 42.3642 23.6741ZM25.9585 23.9856C25.647 23.6741 25.1278 23.4665 24.6086 23.4665C24.0895 23.4665 23.6741 23.6741 23.3626 23.9856C23.0511 24.2971 22.8435 24.8163 22.8435 25.3355C22.8435 25.8546 23.0511 26.3738 23.3626 26.6853C23.6741 26.9968 24.1933 27.2045 24.6086 27.2045C25.1278 27.2045 25.5431 26.9968 25.9585 26.6853C26.27 26.3738 26.4776 25.8546 26.4776 25.3355C26.4776 24.8163 26.27 24.401 25.9585 23.9856ZM36.861 39.2492C36.7572 38.8339 36.5495 38.4185 36.238 38.107C35.9265 37.7955 35.615 37.5879 35.0959 37.5879C34.7844 37.5879 34.4728 37.6917 34.2652 37.8994C33.9537 38.107 33.746 38.3147 33.6422 38.73C33.5384 39.0415 33.4345 39.353 33.3307 39.7684C33.2268 40.0799 33.2268 40.4952 33.2268 40.8067C33.2268 41.1182 33.2268 41.5335 33.3307 41.845C33.4345 42.1565 33.5384 42.4681 33.6422 42.8834C33.8499 43.1949 33.9537 43.4026 34.2652 43.7141C34.4728 43.9217 34.7844 44.0256 35.0959 44.0256C35.615 44.0256 35.9265 43.8179 36.238 43.5064C36.5495 43.1949 36.7572 42.7796 36.861 42.3642C36.9649 41.9489 37.0687 41.4297 37.0687 40.9105C37.0687 40.1837 37.0687 39.6645 36.861 39.2492ZM42.3642 23.6741C42.0527 23.4665 41.7412 23.3626 41.3259 23.3626C40.9106 23.3626 40.599 23.4665 40.2875 23.6741C39.976 23.8818 39.7684 24.1933 39.7684 24.6086H42.9872C42.7796 24.2971 42.6757 23.9856 42.3642 23.6741ZM45.8946 39.2492C45.7907 38.8339 45.5831 38.4185 45.2716 38.107C44.9601 37.7955 44.6486 37.5879 44.1294 37.5879C43.8179 37.5879 43.5064 37.6917 43.2987 37.8994C42.9872 38.107 42.7795 38.3147 42.6757 38.73C42.5719 39.0415 42.4681 39.353 42.3642 39.7684C42.2604 40.0799 42.2604 40.4952 42.2604 40.8067C42.2604 41.1182 42.2604 41.5335 42.3642 41.845C42.4681 42.1565 42.5719 42.4681 42.6757 42.8834C42.8834 43.1949 42.9872 43.4026 43.2987 43.7141C43.5064 43.9217 43.8179 44.0256 44.1294 44.0256C44.6486 44.0256 44.9601 43.8179 45.2716 43.5064C45.5831 43.1949 45.7907 42.7796 45.8946 42.3642C45.9984 41.9489 46.1023 41.4297 46.1023 40.9105C45.9984 40.1837 45.9984 39.6645 45.8946 39.2492ZM50.4633 23.6741C50.1518 23.4665 49.8403 23.3626 49.4249 23.3626C49.0096 23.3626 48.6981 23.4665 48.3866 23.6741C48.0751 23.8818 47.8674 24.1933 47.8674 24.6086H51.0863C50.9824 24.2971 50.7748 23.9856 50.4633 23.6741ZM50.4633 23.6741C50.1518 23.4665 49.8403 23.3626 49.4249 23.3626C49.0096 23.3626 48.6981 23.4665 48.3866 23.6741C48.0751 23.8818 47.8674 24.1933 47.8674 24.6086H51.0863C50.9824 24.2971 50.7748 23.9856 50.4633 23.6741ZM45.8946 39.2492C45.7907 38.8339 45.5831 38.4185 45.2716 38.107C44.9601 37.7955 44.6486 37.5879 44.1294 37.5879C43.8179 37.5879 43.5064 37.6917 43.2987 37.8994C42.9872 38.107 42.7795 38.3147 42.6757 38.73C42.5719 39.0415 42.4681 39.353 42.3642 39.7684C42.2604 40.0799 42.2604 40.4952 42.2604 40.8067C42.2604 41.1182 42.2604 41.5335 42.3642 41.845C42.4681 42.1565 42.5719 42.4681 42.6757 42.8834C42.8834 43.1949 42.9872 43.4026 43.2987 43.7141C43.5064 43.9217 43.8179 44.0256 44.1294 44.0256C44.6486 44.0256 44.9601 43.8179 45.2716 43.5064C45.5831 43.1949 45.7907 42.7796 45.8946 42.3642C45.9984 41.9489 46.1023 41.4297 46.1023 40.9105C45.9984 40.1837 45.9984 39.6645 45.8946 39.2492ZM36.861 39.2492C36.7572 38.8339 36.5495 38.4185 36.238 38.107C35.9265 37.7955 35.615 37.5879 35.0959 37.5879C34.7844 37.5879 34.4728 37.6917 34.2652 37.8994C33.9537 38.107 33.746 38.3147 33.6422 38.73C33.5384 39.0415 33.4345 39.353 33.3307 39.7684C33.2268 40.0799 33.2268 40.4952 33.2268 40.8067C33.2268 41.1182 33.2268 41.5335 33.3307 41.845C33.4345 42.1565 33.5384 42.4681 33.6422 42.8834C33.8499 43.1949 33.9537 43.4026 34.2652 43.7141C34.4728 43.9217 34.7844 44.0256 35.0959 44.0256C35.615 44.0256 35.9265 43.8179 36.238 43.5064C36.5495 43.1949 36.7572 42.7796 36.861 42.3642C36.9649 41.9489 37.0687 41.4297 37.0687 40.9105C37.0687 40.1837 37.0687 39.6645 36.861 39.2492ZM25.9585 23.9856C25.647 23.6741 25.1278 23.4665 24.6086 23.4665C24.0895 23.4665 23.6741 23.6741 23.3626 23.9856C23.0511 24.2971 22.8435 24.8163 22.8435 25.3355C22.8435 25.8546 23.0511 26.3738 23.3626 26.6853C23.6741 26.9968 24.1933 27.2045 24.6086 27.2045C25.1278 27.2045 25.5431 26.9968 25.9585 26.6853C26.27 26.3738 26.4776 25.8546 26.4776 25.3355C26.4776 24.8163 26.27 24.401 25.9585 23.9856ZM42.3642 23.6741C42.0527 23.4665 41.7412 23.3626 41.3259 23.3626C40.9106 23.3626 40.599 23.4665 40.2875 23.6741C39.976 23.8818 39.7684 24.1933 39.7684 24.6086H42.9872C42.7796 24.2971 42.6757 23.9856 42.3642 23.6741ZM25.9585 23.9856C25.647 23.6741 25.1278 23.4665 24.6086 23.4665C24.0895 23.4665 23.6741 23.6741 23.3626 23.9856C23.0511 24.2971 22.8435 24.8163 22.8435 25.3355C22.8435 25.8546 23.0511 26.3738 23.3626 26.6853C23.6741 26.9968 24.1933 27.2045 24.6086 27.2045C25.1278 27.2045 25.5431 26.9968 25.9585 26.6853C26.27 26.3738 26.4776 25.8546 26.4776 25.3355C26.4776 24.8163 26.27 24.401 25.9585 23.9856ZM27.9313 39.2492C27.8275 38.8339 27.6198 38.4185 27.3083 38.107C26.9968 37.7955 26.5815 37.5879 26.1661 37.5879C25.8546 37.5879 25.5431 37.6917 25.2316 37.8994C25.024 38.107 24.8163 38.3147 24.6086 38.73C24.5048 39.0415 24.401 39.353 24.2971 39.7684C24.1933 40.0799 24.1933 40.4952 24.1933 40.8067C24.1933 41.1182 24.1933 41.5335 24.2971 41.845C24.401 42.1565 24.5048 42.4681 24.6086 42.8834C24.8163 43.1949 24.9201 43.4026 25.2316 43.7141C25.5431 43.9217 25.7508 44.0256 26.1661 44.0256C26.5815 44.0256 26.9968 43.8179 27.3083 43.5064C27.6198 43.1949 27.8275 42.7796 27.9313 42.3642C28.0352 41.9489 28.139 41.4297 28.139 40.9105C28.0352 40.1837 28.0352 39.6645 27.9313 39.2492ZM36.861 39.2492C36.7572 38.8339 36.5495 38.4185 36.238 38.107C35.9265 37.7955 35.615 37.5879 35.0959 37.5879C34.7844 37.5879 34.4728 37.6917 34.2652 37.8994C33.9537 38.107 33.746 38.3147 33.6422 38.73C33.5384 39.0415 33.4345 39.353 33.3307 39.7684C33.2268 40.0799 33.2268 40.4952 33.2268 40.8067C33.2268 41.1182 33.2268 41.5335 33.3307 41.845C33.4345 42.1565 33.5384 42.4681 33.6422 42.8834C33.8499 43.1949 33.9537 43.4026 34.2652 43.7141C34.4728 43.9217 34.7844 44.0256 35.0959 44.0256C35.615 44.0256 35.9265 43.8179 36.238 43.5064C36.5495 43.1949 36.7572 42.7796 36.861 42.3642C36.9649 41.9489 37.0687 41.4297 37.0687 40.9105C37.0687 40.1837 37.0687 39.6645 36.861 39.2492ZM42.3642 23.6741C42.0527 23.4665 41.7412 23.3626 41.3259 23.3626C40.9106 23.3626 40.599 23.4665 40.2875 23.6741C39.976 23.8818 39.7684 24.1933 39.7684 24.6086H42.9872C42.7796 24.2971 42.6757 23.9856 42.3642 23.6741ZM45.8946 39.2492C45.7907 38.8339 45.5831 38.4185 45.2716 38.107C44.9601 37.7955 44.6486 37.5879 44.1294 37.5879C43.8179 37.5879 43.5064 37.6917 43.2987 37.8994C42.9872 38.107 42.7795 38.3147 42.6757 38.73C42.5719 39.0415 42.4681 39.353 42.3642 39.7684C42.2604 40.0799 42.2604 40.4952 42.2604 40.8067C42.2604 41.1182 42.2604 41.5335 42.3642 41.845C42.4681 42.1565 42.5719 42.4681 42.6757 42.8834C42.8834 43.1949 42.9872 43.4026 43.2987 43.7141C43.5064 43.9217 43.8179 44.0256 44.1294 44.0256C44.6486 44.0256 44.9601 43.8179 45.2716 43.5064C45.5831 43.1949 45.7907 42.7796 45.8946 42.3642C45.9984 41.9489 46.1023 41.4297 46.1023 40.9105C45.9984 40.1837 45.9984 39.6645 45.8946 39.2492ZM50.4633 23.6741C50.1518 23.4665 49.8403 23.3626 49.4249 23.3626C49.0096 23.3626 48.6981 23.4665 48.3866 23.6741C48.0751 23.8818 47.8674 24.1933 47.8674 24.6086H51.0863C50.9824 24.2971 50.7748 23.9856 50.4633 23.6741ZM50.4633 23.6741C50.1518 23.4665 49.8403 23.3626 49.4249 23.3626C49.0096 23.3626 48.6981 23.4665 48.3866 23.6741C48.0751 23.8818 47.8674 24.1933 47.8674 24.6086H51.0863C50.9824 24.2971 50.7748 23.9856 50.4633 23.6741ZM45.8946 39.2492C45.7907 38.8339 45.5831 38.4185 45.2716 38.107C44.9601 37.7955 44.6486 37.5879 44.1294 37.5879C43.8179 37.5879 43.5064 37.6917 43.2987 37.8994C42.9872 38.107 42.7795 38.3147 42.6757 38.73C42.5719 39.0415 42.4681 39.353 42.3642 39.7684C42.2604 40.0799 42.2604 40.4952 42.2604 40.8067C42.2604 41.1182 42.2604 41.5335 42.3642 41.845C42.4681 42.1565 42.5719 42.4681 42.6757 42.8834C42.8834 43.1949 42.9872 43.4026 43.2987 43.7141C43.5064 43.9217 43.8179 44.0256 44.1294 44.0256C44.6486 44.0256 44.9601 43.8179 45.2716 43.5064C45.5831 43.1949 45.7907 42.7796 45.8946 42.3642C45.9984 41.9489 46.1023 41.4297 46.1023 40.9105C45.9984 40.1837 45.9984 39.6645 45.8946 39.2492ZM36.861 39.2492C36.7572 38.8339 36.5495 38.4185 36.238 38.107C35.9265 37.7955 35.615 37.5879 35.0959 37.5879C34.7844 37.5879 34.4728 37.6917 34.2652 37.8994C33.9537 38.107 33.746 38.3147 33.6422 38.73C33.5384 39.0415 33.4345 39.353 33.3307 39.7684C33.2268 40.0799 33.2268 40.4952 33.2268 40.8067C33.2268 41.1182 33.2268 41.5335 33.3307 41.845C33.4345 42.1565 33.5384 42.4681 33.6422 42.8834C33.8499 43.1949 33.9537 43.4026 34.2652 43.7141C34.4728 43.9217 34.7844 44.0256 35.0959 44.0256C35.615 44.0256 35.9265 43.8179 36.238 43.5064C36.5495 43.1949 36.7572 42.7796 36.861 42.3642C36.9649 41.9489 37.0687 41.4297 37.0687 40.9105C37.0687 40.1837 37.0687 39.6645 36.861 39.2492ZM27.9313 39.2492C27.8275 38.8339 27.6198 38.4185 27.3083 38.107C26.9968 37.7955 26.5815 37.5879 26.1661 37.5879C25.8546 37.5879 25.5431 37.6917 25.2316 37.8994C25.024 38.107 24.8163 38.3147 24.6086 38.73C24.5048 39.0415 24.401 39.353 24.2971 39.7684C24.1933 40.0799 24.1933 40.4952 24.1933 40.8067C24.1933 41.1182 24.1933 41.5335 24.2971 41.845C24.401 42.1565 24.5048 42.4681 24.6086 42.8834C24.8163 43.1949 24.9201 43.4026 25.2316 43.7141C25.5431 43.9217 25.7508 44.0256 26.1661 44.0256C26.5815 44.0256 26.9968 43.8179 27.3083 43.5064C27.6198 43.1949 27.8275 42.7796 27.9313 42.3642C28.0352 41.9489 28.139 41.4297 28.139 40.9105C28.0352 40.1837 28.0352 39.6645 27.9313 39.2492ZM25.9585 23.9856C25.647 23.6741 25.1278 23.4665 24.6086 23.4665C24.0895 23.4665 23.6741 23.6741 23.3626 23.9856C23.0511 24.2971 22.8435 24.8163 22.8435 25.3355C22.8435 25.8546 23.0511 26.3738 23.3626 26.6853C23.6741 26.9968 24.1933 27.2045 24.6086 27.2045C25.1278 27.2045 25.5431 26.9968 25.9585 26.6853C26.27 26.3738 26.4776 25.8546 26.4776 25.3355C26.4776 24.8163 26.27 24.401 25.9585 23.9856ZM42.3642 23.6741C42.0527 23.4665 41.7412 23.3626 41.3259 23.3626C40.9106 23.3626 40.599 23.4665 40.2875 23.6741C39.976 23.8818 39.7684 24.1933 39.7684 24.6086H42.9872C42.7796 24.2971 42.6757 23.9856 42.3642 23.6741ZM32.5 0C14.6406 0 0 14.5367 0 32.5C0 50.4633 14.5367 65 32.5 65C50.4633 65 65 50.4633 65 32.5C65 14.5367 50.4633 0 32.5 0ZM38.8339 22.8435C39.4569 22.2204 40.3914 21.9089 41.3259 21.9089C42.3642 21.9089 43.1949 22.2204 43.8179 22.8435C44.4409 23.4665 44.7524 24.2971 44.7524 25.3355C44.7524 25.647 44.7524 25.8546 44.7524 25.9585H39.6645C39.7684 26.3738 39.976 26.6853 40.2875 26.893C40.599 27.1006 41.0144 27.2045 41.4297 27.2045C42.0527 27.2045 42.4681 26.9968 42.7796 26.6853H44.6486C44.4409 27.3083 43.9217 27.8275 43.4026 28.2428C42.7796 28.6581 42.1566 28.762 41.4297 28.762C40.3914 28.762 39.5607 28.4505 38.8339 27.8275C38.2109 27.2045 37.7955 26.3738 37.7955 25.3355C37.7955 24.401 38.2109 23.5703 38.8339 22.8435ZM29.0735 26.9968H29.5927C29.8003 26.9968 30.008 26.893 30.1118 26.7891C30.3195 26.5815 30.3195 26.4776 30.4233 26.1661C30.5272 25.8546 30.5272 25.647 30.5272 25.4393V22.0128H36.1342V28.5543H34.369V23.4665H32.1885V24.7125C32.1885 27.3083 31.3578 28.5543 29.5927 28.5543H28.8658V26.9968H29.0735ZM12.2524 19.4169H19.2093V21.0783H14.0176V22.8435H16.6134C17.6518 22.8435 18.4824 23.0511 19.1054 23.6741C19.6246 24.1933 19.9361 24.9201 19.9361 25.7508C19.9361 26.5815 19.6246 27.3083 19.1054 27.8275C18.5863 28.3466 17.7556 28.6581 16.6134 28.6581H12.2524V19.4169ZM20.3514 45.2716H18.5863V38.2109L16.7173 39.976V37.7955L18.5863 36.1342H20.4553V45.2716H20.3514ZM21.0783 25.3355C21.0783 24.401 21.3898 23.4665 22.1166 22.8435C22.8435 22.2204 23.6741 21.9089 24.7125 21.9089C25.7508 21.9089 26.5815 22.2204 27.3083 22.8435C28.0352 23.4665 28.3467 24.401 28.3467 25.3355C28.3467 26.3738 28.0352 27.2045 27.3083 27.8275C26.6853 28.4505 25.7508 28.762 24.7125 28.762C23.6741 28.762 22.8435 28.4505 22.1166 27.8275C21.3898 27.2045 21.0783 26.3738 21.0783 25.3355ZM29.8003 41.845C29.6965 42.2604 29.5927 42.6757 29.385 43.0911C29.1773 43.5064 28.9696 43.9217 28.762 44.2332C28.4505 44.5447 28.139 44.8562 27.6198 45.0639C27.2045 45.2716 26.6853 45.3754 26.0623 45.3754C25.4393 45.3754 25.024 45.2716 24.5048 45.0639C23.9856 44.8562 23.6741 44.5447 23.3626 44.2332C23.155 43.9217 22.8435 43.5064 22.7396 43.0911C22.532 42.6757 22.4281 42.2604 22.3243 41.845C22.2204 41.4297 22.2205 41.0144 22.2205 40.599C22.2205 40.1837 22.2204 39.7684 22.3243 39.353C22.4281 38.9377 22.532 38.5224 22.6358 38.107C22.8435 37.6917 23.0511 37.2764 23.3626 36.9649C23.5703 36.6534 23.9856 36.3419 24.401 36.1342C24.8163 35.9265 25.3355 35.8227 25.9585 35.8227C26.5815 35.8227 26.9968 35.9265 27.516 36.1342C28.0351 36.3419 28.3467 36.6534 28.6582 36.9649C28.8658 37.2764 29.1773 37.6917 29.2812 38.107C29.4888 38.5224 29.5927 38.9377 29.6965 39.353C29.8003 39.7684 29.8003 40.1837 29.8003 40.599C29.9042 41.0144 29.9042 41.4297 29.8003 41.845ZM38.8339 41.845C38.73 42.2604 38.6262 42.6757 38.4186 43.0911C38.2109 43.5064 38.0032 43.9217 37.7955 44.2332C37.484 44.5447 37.1725 44.8562 36.7572 45.0639C36.238 45.2716 35.8227 45.3754 35.1997 45.3754C34.6805 45.3754 34.1614 45.2716 33.6422 45.0639C33.123 44.8562 32.8115 44.5447 32.5 44.2332C32.2923 43.9217 31.9808 43.5064 31.877 43.0911C31.6693 42.6757 31.5655 42.2604 31.4617 41.845C31.3578 41.4297 31.3578 41.0144 31.3578 40.599C31.3578 40.1837 31.3578 39.7684 31.4617 39.353C31.5655 38.9377 31.6693 38.5224 31.7732 38.107C31.9808 37.6917 32.1885 37.2764 32.5 36.9649C32.7077 36.6534 33.123 36.3419 33.5383 36.1342C33.9537 35.9265 34.4729 35.8227 35.0959 35.8227C35.615 35.8227 36.1342 35.9265 36.6534 36.1342C37.0687 36.3419 37.484 36.6534 37.6917 36.9649C37.8994 37.2764 38.2109 37.6917 38.3147 38.107C38.5224 38.5224 38.6262 38.9377 38.73 39.353C38.8339 39.7684 38.8339 40.1837 38.8339 40.599C38.8339 41.0144 38.8339 41.4297 38.8339 41.845ZM47.7636 41.845C47.6598 42.2604 47.5559 42.6757 47.3482 43.0911C47.1406 43.5064 46.9329 43.9217 46.7253 44.2332C46.4138 44.5447 46.1023 44.8562 45.6869 45.0639C45.1678 45.2716 44.7524 45.3754 44.1294 45.3754C43.5064 45.3754 43.0911 45.2716 42.5719 45.0639C42.0527 44.8562 41.7412 44.5447 41.4297 44.2332C41.2221 43.9217 40.9106 43.5064 40.8067 43.0911C40.599 42.6757 40.4952 42.2604 40.3914 41.845C40.2876 41.4297 40.2875 41.0144 40.2875 40.599C40.2875 40.1837 40.3914 39.7684 40.3914 39.353C40.4952 38.9377 40.599 38.5224 40.7029 38.107C40.9105 37.6917 41.1182 37.2764 41.4297 36.9649C41.6374 36.6534 42.0527 36.3419 42.4681 36.1342C42.8834 35.9265 43.4026 35.8227 44.0256 35.8227C44.6486 35.8227 45.0639 35.9265 45.5831 36.1342C45.9984 36.3419 46.4138 36.6534 46.6214 36.9649C46.8291 37.2764 47.1406 37.6917 47.2444 38.107C47.4521 38.5224 47.5559 38.9377 47.6598 39.353C47.7636 39.7684 47.7636 40.1837 47.7636 40.599C47.8674 41.0144 47.8674 41.4297 47.7636 41.845ZM52.8515 25.9585H47.7636C47.8674 26.3738 48.0751 26.6853 48.3866 26.893C48.6981 27.1006 49.1134 27.2045 49.5288 27.2045C50.1518 27.2045 50.5671 26.9968 50.8786 26.6853H52.7476C52.5399 27.3083 52.1246 27.8275 51.5016 28.2428C50.8786 28.6581 50.2556 28.762 49.5288 28.762C48.4904 28.762 47.6597 28.4505 46.9329 27.8275C46.3099 27.2045 45.8946 26.3738 45.8946 25.3355C45.8946 24.401 46.2061 23.4665 46.9329 22.8435C47.5559 22.2204 48.3866 21.9089 49.4249 21.9089C50.4633 21.9089 51.294 22.2204 51.917 22.8435C52.54 23.4665 52.8515 24.2971 52.8515 25.3355C52.8515 25.647 52.8515 25.8546 52.8515 25.9585ZM49.4249 23.3626C49.0096 23.3626 48.6981 23.4665 48.3866 23.6741C48.0751 23.8818 47.8674 24.1933 47.8674 24.6086H51.0863C50.9824 24.1933 50.8786 23.8818 50.5671 23.6741C50.2556 23.4665 49.8403 23.3626 49.4249 23.3626ZM45.2716 38.0032C44.9601 37.6917 44.6486 37.484 44.1294 37.484C43.8179 37.484 43.5064 37.5879 43.2987 37.7955C42.9872 38.0032 42.7795 38.2109 42.6757 38.6262C42.5719 38.9377 42.4681 39.2492 42.3642 39.6645C42.2604 39.976 42.2604 40.3914 42.2604 40.7029C42.2604 41.0144 42.2604 41.4297 42.3642 41.7412C42.4681 42.0527 42.5719 42.3642 42.6757 42.7796C42.8834 43.0911 42.9872 43.2987 43.2987 43.6102C43.5064 43.8179 43.8179 43.9217 44.1294 43.9217C44.6486 43.9217 44.9601 43.7141 45.2716 43.4026C45.5831 43.0911 45.7907 42.6757 45.8946 42.2604C45.9984 41.845 46.1023 41.3259 46.1023 40.8067C46.1023 40.2875 46.1022 39.7684 45.8946 39.353C45.7907 38.73 45.5831 38.3147 45.2716 38.0032ZM42.3642 23.6741C42.0527 23.4665 41.7412 23.3626 41.3259 23.3626C40.9106 23.3626 40.599 23.4665 40.2875 23.6741C39.976 23.8818 39.7684 24.1933 39.7684 24.6086H42.9872C42.7796 24.2971 42.6757 23.9856 42.3642 23.6741ZM36.238 38.0032C35.9265 37.6917 35.615 37.484 35.0959 37.484C34.7844 37.484 34.4728 37.5879 34.2652 37.7955C33.9537 38.0032 33.746 38.2109 33.6422 38.6262C33.5384 38.9377 33.4345 39.2492 33.3307 39.6645C33.2268 39.976 33.2268 40.3914 33.2268 40.7029C33.2268 41.0144 33.2268 41.4297 33.3307 41.7412C33.4345 42.0527 33.5384 42.3642 33.6422 42.7796C33.8499 43.0911 33.9537 43.2987 34.2652 43.6102C34.4728 43.8179 34.7844 43.9217 35.0959 43.9217C35.615 43.9217 35.9265 43.7141 36.238 43.4026C36.5495 43.0911 36.7572 42.6757 36.861 42.2604C36.9649 41.845 37.0687 41.3259 37.0687 40.8067C37.0687 40.2875 37.0687 39.7684 36.861 39.353C36.861 38.73 36.5495 38.3147 36.238 38.0032ZM27.3083 38.0032C26.9968 37.6917 26.5815 37.484 26.1661 37.484C25.8546 37.484 25.5431 37.5879 25.2316 37.7955C25.024 38.0032 24.8163 38.2109 24.6086 38.6262C24.5048 38.9377 24.401 39.2492 24.2971 39.6645C24.1933 39.976 24.1933 40.3914 24.1933 40.7029C24.1933 41.0144 24.1933 41.4297 24.2971 41.7412C24.401 42.0527 24.5048 42.3642 24.6086 42.7796C24.8163 43.0911 24.9201 43.2987 25.2316 43.6102C25.5431 43.8179 25.7508 43.9217 26.1661 43.9217C26.5815 43.9217 26.9968 43.7141 27.3083 43.4026C27.6198 43.0911 27.8275 42.6757 27.9313 42.2604C28.0352 41.845 28.139 41.3259 28.139 40.8067C28.139 40.2875 28.0352 39.7684 27.9313 39.353C27.8275 38.73 27.6198 38.3147 27.3083 38.0032ZM25.9585 26.6853C26.27 26.3738 26.4776 25.8546 26.4776 25.3355C26.4776 24.8163 26.27 24.401 25.9585 23.9856C25.647 23.6741 25.1278 23.4665 24.6086 23.4665C24.0895 23.4665 23.6741 23.6741 23.3626 23.9856C23.0511 24.2971 22.8435 24.8163 22.8435 25.3355C22.8435 25.8546 23.0511 26.3738 23.3626 26.6853C23.6741 26.9968 24.1933 27.2045 24.6086 27.2045C25.1278 27.2045 25.5431 26.9968 25.9585 26.6853ZM42.3642 23.6741C42.0527 23.4665 41.7412 23.3626 41.3259 23.3626C40.9106 23.3626 40.599 23.4665 40.2875 23.6741C39.976 23.8818 39.7684 24.1933 39.7684 24.6086H42.9872C42.7796 24.2971 42.6757 23.9856 42.3642 23.6741ZM25.9585 23.9856C25.647 23.6741 25.1278 23.4665 24.6086 23.4665C24.0895 23.4665 23.6741 23.6741 23.3626 23.9856C23.0511 24.2971 22.8435 24.8163 22.8435 25.3355C22.8435 25.8546 23.0511 26.3738 23.3626 26.6853C23.6741 26.9968 24.1933 27.2045 24.6086 27.2045C25.1278 27.2045 25.5431 26.9968 25.9585 26.6853C26.27 26.3738 26.4776 25.8546 26.4776 25.3355C26.4776 24.8163 26.27 24.401 25.9585 23.9856ZM27.9313 39.2492C27.8275 38.8339 27.6198 38.4185 27.3083 38.107C26.9968 37.7955 26.5815 37.5879 26.1661 37.5879C25.8546 37.5879 25.5431 37.6917 25.2316 37.8994C25.024 38.107 24.8163 38.3147 24.6086 38.73C24.5048 39.0415 24.401 39.353 24.2971 39.7684C24.1933 40.0799 24.1933 40.4952 24.1933 40.8067C24.1933 41.1182 24.1933 41.5335 24.2971 41.845C24.401 42.1565 24.5048 42.4681 24.6086 42.8834C24.8163 43.1949 24.9201 43.4026 25.2316 43.7141C25.5431 43.9217 25.7508 44.0256 26.1661 44.0256C26.5815 44.0256 26.9968 43.8179 27.3083 43.5064C27.6198 43.1949 27.8275 42.7796 27.9313 42.3642C28.0352 41.9489 28.139 41.4297 28.139 40.9105C28.0352 40.1837 28.0352 39.6645 27.9313 39.2492ZM36.861 39.2492C36.7572 38.8339 36.5495 38.4185 36.238 38.107C35.9265 37.7955 35.615 37.5879 35.0959 37.5879C34.7844 37.5879 34.4728 37.6917 34.2652 37.8994C33.9537 38.107 33.746 38.3147 33.6422 38.73C33.5384 39.0415 33.4345 39.353 33.3307 39.7684C33.2268 40.0799 33.2268 40.4952 33.2268 40.8067C33.2268 41.1182 33.2268 41.5335 33.3307 41.845C33.4345 42.1565 33.5384 42.4681 33.6422 42.8834C33.8499 43.1949 33.9537 43.4026 34.2652 43.7141C34.4728 43.9217 34.7844 44.0256 35.0959 44.0256C35.615 44.0256 35.9265 43.8179 36.238 43.5064C36.5495 43.1949 36.7572 42.7796 36.861 42.3642C36.9649 41.9489 37.0687 41.4297 37.0687 40.9105C37.0687 40.1837 37.0687 39.6645 36.861 39.2492ZM45.8946 39.2492C45.7907 38.8339 45.5831 38.4185 45.2716 38.107C44.9601 37.7955 44.6486 37.5879 44.1294 37.5879C43.8179 37.5879 43.5064 37.6917 43.2987 37.8994C42.9872 38.107 42.7795 38.3147 42.6757 38.73C42.5719 39.0415 42.4681 39.353 42.3642 39.7684C42.2604 40.0799 42.2604 40.4952 42.2604 40.8067C42.2604 41.1182 42.2604 41.5335 42.3642 41.845C42.4681 42.1565 42.5719 42.4681 42.6757 42.8834C42.8834 43.1949 42.9872 43.4026 43.2987 43.7141C43.5064 43.9217 43.8179 44.0256 44.1294 44.0256C44.6486 44.0256 44.9601 43.8179 45.2716 43.5064C45.5831 43.1949 45.7907 42.7796 45.8946 42.3642C45.9984 41.9489 46.1023 41.4297 46.1023 40.9105C45.9984 40.1837 45.9984 39.6645 45.8946 39.2492ZM50.4633 23.6741C50.1518 23.4665 49.8403 23.3626 49.4249 23.3626C49.0096 23.3626 48.6981 23.4665 48.3866 23.6741C48.0751 23.8818 47.8674 24.1933 47.8674 24.6086H51.0863C50.9824 24.2971 50.7748 23.9856 50.4633 23.6741ZM50.4633 23.6741C50.1518 23.4665 49.8403 23.3626 49.4249 23.3626C49.0096 23.3626 48.6981 23.4665 48.3866 23.6741C48.0751 23.8818 47.8674 24.1933 47.8674 24.6086H51.0863C50.9824 24.2971 50.7748 23.9856 50.4633 23.6741ZM45.8946 39.2492C45.7907 38.8339 45.5831 38.4185 45.2716 38.107C44.9601 37.7955 44.6486 37.5879 44.1294 37.5879C43.8179 37.5879 43.5064 37.6917 43.2987 37.8994C42.9872 38.107 42.7795 38.3147 42.6757 38.73C42.5719 39.0415 42.4681 39.353 42.3642 39.7684C42.2604 40.0799 42.2604 40.4952 42.2604 40.8067C42.2604 41.1182 42.2604 41.5335 42.3642 41.845C42.4681 42.1565 42.5719 42.4681 42.6757 42.8834C42.8834 43.1949 42.9872 43.4026 43.2987 43.7141C43.5064 43.9217 43.8179 44.0256 44.1294 44.0256C44.6486 44.0256 44.9601 43.8179 45.2716 43.5064C45.5831 43.1949 45.7907 42.7796 45.8946 42.3642C45.9984 41.9489 46.1023 41.4297 46.1023 40.9105C45.9984 40.1837 45.9984 39.6645 45.8946 39.2492ZM42.3642 23.6741C42.0527 23.4665 41.7412 23.3626 41.3259 23.3626C40.9106 23.3626 40.599 23.4665 40.2875 23.6741C39.976 23.8818 39.7684 24.1933 39.7684 24.6086H42.9872C42.7796 24.2971 42.6757 23.9856 42.3642 23.6741ZM36.861 39.2492C36.7572 38.8339 36.5495 38.4185 36.238 38.107C35.9265 37.7955 35.615 37.5879 35.0959 37.5879C34.7844 37.5879 34.4728 37.6917 34.2652 37.8994C33.9537 38.107 33.746 38.3147 33.6422 38.73C33.5384 39.0415 33.4345 39.353 33.3307 39.7684C33.2268 40.0799 33.2268 40.4952 33.2268 40.8067C33.2268 41.1182 33.2268 41.5335 33.3307 41.845C33.4345 42.1565 33.5384 42.4681 33.6422 42.8834C33.8499 43.1949 33.9537 43.4026 34.2652 43.7141C34.4728 43.9217 34.7844 44.0256 35.0959 44.0256C35.615 44.0256 35.9265 43.8179 36.238 43.5064C36.5495 43.1949 36.7572 42.7796 36.861 42.3642C36.9649 41.9489 37.0687 41.4297 37.0687 40.9105C37.0687 40.1837 37.0687 39.6645 36.861 39.2492ZM27.9313 39.2492C27.8275 38.8339 27.6198 38.4185 27.3083 38.107C26.9968 37.7955 26.5815 37.5879 26.1661 37.5879C25.8546 37.5879 25.5431 37.6917 25.2316 37.8994C25.024 38.107 24.8163 38.3147 24.6086 38.73C24.5048 39.0415 24.401 39.353 24.2971 39.7684C24.1933 40.0799 24.1933 40.4952 24.1933 40.8067C24.1933 41.1182 24.1933 41.5335 24.2971 41.845C24.401 42.1565 24.5048 42.4681 24.6086 42.8834C24.8163 43.1949 24.9201 43.4026 25.2316 43.7141C25.5431 43.9217 25.7508 44.0256 26.1661 44.0256C26.5815 44.0256 26.9968 43.8179 27.3083 43.5064C27.6198 43.1949 27.8275 42.7796 27.9313 42.3642C28.0352 41.9489 28.139 41.4297 28.139 40.9105C28.0352 40.1837 28.0352 39.6645 27.9313 39.2492ZM25.9585 23.9856C25.647 23.6741 25.1278 23.4665 24.6086 23.4665C24.0895 23.4665 23.6741 23.6741 23.3626 23.9856C23.0511 24.2971 22.8435 24.8163 22.8435 25.3355C22.8435 25.8546 23.0511 26.3738 23.3626 26.6853C23.6741 26.9968 24.1933 27.2045 24.6086 27.2045C25.1278 27.2045 25.5431 26.9968 25.9585 26.6853C26.27 26.3738 26.4776 25.8546 26.4776 25.3355C26.4776 24.8163 26.27 24.401 25.9585 23.9856ZM42.3642 23.6741C42.0527 23.4665 41.7412 23.3626 41.3259 23.3626C40.9106 23.3626 40.599 23.4665 40.2875 23.6741C39.976 23.8818 39.7684 24.1933 39.7684 24.6086H42.9872C42.7796 24.2971 42.6757 23.9856 42.3642 23.6741ZM25.9585 23.9856C25.647 23.6741 25.1278 23.4665 24.6086 23.4665C24.0895 23.4665 23.6741 23.6741 23.3626 23.9856C23.0511 24.2971 22.8435 24.8163 22.8435 25.3355C22.8435 25.8546 23.0511 26.3738 23.3626 26.6853C23.6741 26.9968 24.1933 27.2045 24.6086 27.2045C25.1278 27.2045 25.5431 26.9968 25.9585 26.6853C26.27 26.3738 26.4776 25.8546 26.4776 25.3355C26.4776 24.8163 26.27 24.401 25.9585 23.9856ZM45.8946 39.2492C45.7907 38.8339 45.5831 38.4185 45.2716 38.107C44.9601 37.7955 44.6486 37.5879 44.1294 37.5879C43.8179 37.5879 43.5064 37.6917 43.2987 37.8994C42.9872 38.107 42.7795 38.3147 42.6757 38.73C42.5719 39.0415 42.4681 39.353 42.3642 39.7684C42.2604 40.0799 42.2604 40.4952 42.2604 40.8067C42.2604 41.1182 42.2604 41.5335 42.3642 41.845C42.4681 42.1565 42.5719 42.4681 42.6757 42.8834C42.8834 43.1949 42.9872 43.4026 43.2987 43.7141C43.5064 43.9217 43.8179 44.0256 44.1294 44.0256C44.6486 44.0256 44.9601 43.8179 45.2716 43.5064C45.5831 43.1949 45.7907 42.7796 45.8946 42.3642C45.9984 41.9489 46.1023 41.4297 46.1023 40.9105C45.9984 40.1837 45.9984 39.6645 45.8946 39.2492ZM50.4633 23.6741C50.1518 23.4665 49.8403 23.3626 49.4249 23.3626C49.0096 23.3626 48.6981 23.4665 48.3866 23.6741C48.0751 23.8818 47.8674 24.1933 47.8674 24.6086H51.0863C50.9824 24.2971 50.7748 23.9856 50.4633 23.6741ZM50.4633 23.6741C50.1518 23.4665 49.8403 23.3626 49.4249 23.3626C49.0096 23.3626 48.6981 23.4665 48.3866 23.6741C48.0751 23.8818 47.8674 24.1933 47.8674 24.6086H51.0863C50.9824 24.2971 50.7748 23.9856 50.4633 23.6741ZM45.8946 39.2492C45.7907 38.8339 45.5831 38.4185 45.2716 38.107C44.9601 37.7955 44.6486 37.5879 44.1294 37.5879C43.8179 37.5879 43.5064 37.6917 43.2987 37.8994C42.9872 38.107 42.7795 38.3147 42.6757 38.73C42.5719 39.0415 42.4681 39.353 42.3642 39.7684C42.2604 40.0799 42.2604 40.4952 42.2604 40.8067C42.2604 41.1182 42.2604 41.5335 42.3642 41.845C42.4681 42.1565 42.5719 42.4681 42.6757 42.8834C42.8834 43.1949 42.9872 43.4026 43.2987 43.7141C43.5064 43.9217 43.8179 44.0256 44.1294 44.0256C44.6486 44.0256 44.9601 43.8179 45.2716 43.5064C45.5831 43.1949 45.7907 42.7796 45.8946 42.3642C45.9984 41.9489 46.1023 41.4297 46.1023 40.9105C45.9984 40.1837 45.9984 39.6645 45.8946 39.2492ZM42.3642 23.6741C42.0527 23.4665 41.7412 23.3626 41.3259 23.3626C40.9106 23.3626 40.599 23.4665 40.2875 23.6741C39.976 23.8818 39.7684 24.1933 39.7684 24.6086H42.9872C42.7796 24.2971 42.6757 23.9856 42.3642 23.6741ZM25.9585 23.9856C25.647 23.6741 25.1278 23.4665 24.6086 23.4665C24.0895 23.4665 23.6741 23.6741 23.3626 23.9856C23.0511 24.2971 22.8435 24.8163 22.8435 25.3355C22.8435 25.8546 23.0511 26.3738 23.3626 26.6853C23.6741 26.9968 24.1933 27.2045 24.6086 27.2045C25.1278 27.2045 25.5431 26.9968 25.9585 26.6853C26.27 26.3738 26.4776 25.8546 26.4776 25.3355C26.4776 24.8163 26.27 24.401 25.9585 23.9856ZM42.3642 23.6741C42.0527 23.4665 41.7412 23.3626 41.3259 23.3626C40.9106 23.3626 40.599 23.4665 40.2875 23.6741C39.976 23.8818 39.7684 24.1933 39.7684 24.6086H42.9872C42.7796 24.2971 42.6757 23.9856 42.3642 23.6741ZM25.9585 23.9856C25.647 23.6741 25.1278 23.4665 24.6086 23.4665C24.0895 23.4665 23.6741 23.6741 23.3626 23.9856C23.0511 24.2971 22.8435 24.8163 22.8435 25.3355C22.8435 25.8546 23.0511 26.3738 23.3626 26.6853C23.6741 26.9968 24.1933 27.2045 24.6086 27.2045C25.1278 27.2045 25.5431 26.9968 25.9585 26.6853C26.27 26.3738 26.4776 25.8546 26.4776 25.3355C26.4776 24.8163 26.27 24.401 25.9585 23.9856ZM50.4633 23.6741C50.1518 23.4665 49.8403 23.3626 49.4249 23.3626C49.0096 23.3626 48.6981 23.4665 48.3866 23.6741C48.0751 23.8818 47.8674 24.1933 47.8674 24.6086H51.0863C50.9824 24.2971 50.7748 23.9856 50.4633 23.6741ZM50.4633 23.6741C50.1518 23.4665 49.8403 23.3626 49.4249 23.3626C49.0096 23.3626 48.6981 23.4665 48.3866 23.6741C48.0751 23.8818 47.8674 24.1933 47.8674 24.6086H51.0863C50.9824 24.2971 50.7748 23.9856 50.4633 23.6741ZM42.3642 23.6741C42.0527 23.4665 41.7412 23.3626 41.3259 23.3626C40.9106 23.3626 40.599 23.4665 40.2875 23.6741C39.976 23.8818 39.7684 24.1933 39.7684 24.6086H42.9872C42.7796 24.2971 42.6757 23.9856 42.3642 23.6741ZM25.9585 23.9856C25.647 23.6741 25.1278 23.4665 24.6086 23.4665C24.0895 23.4665 23.6741 23.6741 23.3626 23.9856C23.0511 24.2971 22.8435 24.8163 22.8435 25.3355C22.8435 25.8546 23.0511 26.3738 23.3626 26.6853C23.6741 26.9968 24.1933 27.2045 24.6086 27.2045C25.1278 27.2045 25.5431 26.9968 25.9585 26.6853C26.27 26.3738 26.4776 25.8546 26.4776 25.3355C26.4776 24.8163 26.27 24.401 25.9585 23.9856ZM42.3642 23.6741C42.0527 23.4665 41.7412 23.3626 41.3259 23.3626C40.9106 23.3626 40.599 23.4665 40.2875 23.6741C39.976 23.8818 39.7684 24.1933 39.7684 24.6086H42.9872C42.7796 24.2971 42.6757 23.9856 42.3642 23.6741ZM25.9585 23.9856C25.647 23.6741 25.1278 23.4665 24.6086 23.4665C24.0895 23.4665 23.6741 23.6741 23.3626 23.9856C23.0511 24.2971 22.8435 24.8163 22.8435 25.3355C22.8435 25.8546 23.0511 26.3738 23.3626 26.6853C23.6741 26.9968 24.1933 27.2045 24.6086 27.2045C25.1278 27.2045 25.5431 26.9968 25.9585 26.6853C26.27 26.3738 26.4776 25.8546 26.4776 25.3355C26.4776 24.8163 26.27 24.401 25.9585 23.9856ZM42.3642 23.6741C42.0527 23.4665 41.7412 23.3626 41.3259 23.3626C40.9106 23.3626 40.599 23.4665 40.2875 23.6741C39.976 23.8818 39.7684 24.1933 39.7684 24.6086H42.9872C42.7796 24.2971 42.6757 23.9856 42.3642 23.6741ZM25.9585 23.9856C25.647 23.6741 25.1278 23.4665 24.6086 23.4665C24.0895 23.4665 23.6741 23.6741 23.3626 23.9856C23.0511 24.2971 22.8435 24.8163 22.8435 25.3355C22.8435 25.8546 23.0511 26.3738 23.3626 26.6853C23.6741 26.9968 24.1933 27.2045 24.6086 27.2045C25.1278 27.2045 25.5431 26.9968 25.9585 26.6853C26.27 26.3738 26.4776 25.8546 26.4776 25.3355C26.4776 24.8163 26.27 24.401 25.9585 23.9856ZM25.9585 23.9856C25.647 23.6741 25.1278 23.4665 24.6086 23.4665C24.0895 23.4665 23.6741 23.6741 23.3626 23.9856C23.0511 24.2971 22.8435 24.8163 22.8435 25.3355C22.8435 25.8546 23.0511 26.3738 23.3626 26.6853C23.6741 26.9968 24.1933 27.2045 24.6086 27.2045C25.1278 27.2045 25.5431 26.9968 25.9585 26.6853C26.27 26.3738 26.4776 25.8546 26.4776 25.3355C26.4776 24.8163 26.27 24.401 25.9585 23.9856ZM25.9585 23.9856C25.647 23.6741 25.1278 23.4665 24.6086 23.4665C24.0895 23.4665 23.6741 23.6741 23.3626 23.9856C23.0511 24.2971 22.8435 24.8163 22.8435 25.3355C22.8435 25.8546 23.0511 26.3738 23.3626 26.6853C23.6741 26.9968 24.1933 27.2045 24.6086 27.2045C25.1278 27.2045 25.5431 26.9968 25.9585 26.6853C26.27 26.3738 26.4776 25.8546 26.4776 25.3355C26.4776 24.8163 26.27 24.401 25.9585 23.9856Z" fill="#114FAC"/>
</svg>
