<svg width="66" height="65" viewBox="0 0 66 65" fill="none" xmlns="http://www.w3.org/2000/svg">
<path d="M33 0C15.1406 0 0.5 14.5367 0.5 32.5C0.5 50.4633 15.0368 65 33 65C50.9633 65 65.5 50.4633 65.5 32.5C65.5 14.5367 50.9633 0 33 0ZM53.5591 28.3466L42.3451 36.5495C42.0336 36.7572 41.8259 37.2764 42.0335 37.6917L46.2907 50.8786C46.6022 51.8131 45.5639 52.5399 44.8371 52.0208L33.623 43.9217C33.3115 43.7141 32.7923 43.7141 32.4808 43.9217L21.1629 51.9169C20.4361 52.4361 19.3978 51.7093 19.6054 50.7748L23.8626 37.5879C23.9665 37.1725 23.8626 36.7572 23.4473 36.4457L12.2332 28.2428C11.5064 27.7236 11.8179 26.4776 12.8562 26.4776H26.6661C27.0815 26.4776 27.4968 26.27 27.6006 25.8546L31.8578 12.6677C32.1693 11.7332 33.4153 11.7332 33.7268 12.6677L37.984 25.8546C38.0879 26.27 38.5032 26.4776 38.9185 26.4776H52.7284C53.9745 26.5815 54.3898 27.8275 53.5591 28.3466Z" fill="#114FAC"/>
</svg>
