<svg width="65" height="65" viewBox="0 0 65 65" fill="none" xmlns="http://www.w3.org/2000/svg">
<path d="M17.548 26.6854C17.2365 26.8931 16.8212 27.1007 16.4058 27.1007H13.9138V24.5049H16.4058C16.925 24.5049 17.3403 24.6087 17.548 24.9202C17.8595 25.1279 17.9633 25.4394 17.9633 25.8547C17.9633 26.2701 17.8595 26.4777 17.548 26.6854Z" fill="#114FAC"/>
<path d="M25.8546 23.9856C25.5431 23.6741 25.024 23.4665 24.5048 23.4665C23.9856 23.4665 23.5703 23.6741 23.2588 23.9856C22.9473 24.2971 22.7396 24.8163 22.7396 25.3355C22.7396 25.8546 22.9473 26.27 23.2588 26.6853C23.5703 26.9968 24.0895 27.2045 24.5048 27.2045C25.024 27.2045 25.4393 26.9968 25.8546 26.6853C26.1661 26.3738 26.3738 25.8546 26.3738 25.3355C26.3738 24.8163 26.1661 24.401 25.8546 23.9856ZM25.8546 23.9856C25.5431 23.6741 25.024 23.4665 24.5048 23.4665C23.9856 23.4665 23.5703 23.6741 23.2588 23.9856C22.9473 24.2971 22.7396 24.8163 22.7396 25.3355C22.7396 25.8546 22.9473 26.27 23.2588 26.6853C23.5703 26.9968 24.0895 27.2045 24.5048 27.2045C25.024 27.2045 25.4393 26.9968 25.8546 26.6853C26.1661 26.3738 26.3738 25.8546 26.3738 25.3355C26.3738 24.8163 26.1661 24.401 25.8546 23.9856ZM25.8546 23.9856C25.5431 23.6741 25.024 23.4665 24.5048 23.4665C23.9856 23.4665 23.5703 23.6741 23.2588 23.9856C22.9473 24.2971 22.7396 24.8163 22.7396 25.3355C22.7396 25.8546 22.9473 26.27 23.2588 26.6853C23.5703 26.9968 24.0895 27.2045 24.5048 27.2045C25.024 27.2045 25.4393 26.9968 25.8546 26.6853C26.1661 26.3738 26.3738 25.8546 26.3738 25.3355C26.3738 24.8163 26.1661 24.401 25.8546 23.9856ZM42.2604 23.6741C41.9489 23.4665 41.6374 23.3626 41.222 23.3626C40.8067 23.3626 40.4952 23.4665 40.1837 23.6741C39.8722 23.8818 39.6645 24.1933 39.6645 24.5048H42.8834C42.7796 24.2971 42.5719 23.9856 42.2604 23.6741ZM42.2604 23.6741C41.9489 23.4665 41.6374 23.3626 41.222 23.3626C40.8067 23.3626 40.4952 23.4665 40.1837 23.6741C39.8722 23.8818 39.6645 24.1933 39.6645 24.5048H42.8834C42.7796 24.2971 42.5719 23.9856 42.2604 23.6741ZM25.8546 23.9856C25.5431 23.6741 25.024 23.4665 24.5048 23.4665C23.9856 23.4665 23.5703 23.6741 23.2588 23.9856C22.9473 24.2971 22.7396 24.8163 22.7396 25.3355C22.7396 25.8546 22.9473 26.27 23.2588 26.6853C23.5703 26.9968 24.0895 27.2045 24.5048 27.2045C25.024 27.2045 25.4393 26.9968 25.8546 26.6853C26.1661 26.3738 26.3738 25.8546 26.3738 25.3355C26.3738 24.8163 26.1661 24.401 25.8546 23.9856ZM25.8546 23.9856C25.5431 23.6741 25.024 23.4665 24.5048 23.4665C23.9856 23.4665 23.5703 23.6741 23.2588 23.9856C22.9473 24.2971 22.7396 24.8163 22.7396 25.3355C22.7396 25.8546 22.9473 26.27 23.2588 26.6853C23.5703 26.9968 24.0895 27.2045 24.5048 27.2045C25.024 27.2045 25.4393 26.9968 25.8546 26.6853C26.1661 26.3738 26.3738 25.8546 26.3738 25.3355C26.3738 24.8163 26.1661 24.401 25.8546 23.9856ZM42.2604 23.6741C41.9489 23.4665 41.6374 23.3626 41.222 23.3626C40.8067 23.3626 40.4952 23.4665 40.1837 23.6741C39.8722 23.8818 39.6645 24.1933 39.6645 24.5048H42.8834C42.7796 24.2971 42.5719 23.9856 42.2604 23.6741ZM47.1406 39.2492C47.0367 38.8339 46.8291 38.4185 46.5176 38.107C46.2061 37.7955 45.7907 37.5879 45.3754 37.5879C45.0639 37.5879 44.7524 37.6917 44.4409 37.8994C44.2332 38.107 44.0256 38.3147 43.8179 38.73C43.7141 39.0415 43.6102 39.353 43.5064 39.7684C43.4025 40.0799 43.4026 40.4952 43.4026 40.8067C43.4026 41.1182 43.4025 41.5335 43.5064 41.845C43.6102 42.1565 43.7141 42.4681 43.8179 42.8834C44.0256 43.1949 44.1294 43.4026 44.4409 43.7141C44.7524 43.9217 44.9601 44.0256 45.3754 44.0256C45.7907 44.0256 46.2061 43.8179 46.5176 43.5064C46.8291 43.1949 47.0367 42.7796 47.1406 42.3642C47.2444 41.9489 47.3482 41.4297 47.3482 40.9105C47.2444 40.1837 47.2444 39.6645 47.1406 39.2492ZM50.4633 23.6741C50.1518 23.4665 49.8403 23.3626 49.4249 23.3626C49.0096 23.3626 48.5942 23.4665 48.2827 23.6741C47.9712 23.8818 47.7636 24.1933 47.7636 24.5048H50.9824C50.8786 24.2971 50.6709 23.9856 50.4633 23.6741ZM50.4633 23.6741C50.1518 23.4665 49.8403 23.3626 49.4249 23.3626C49.0096 23.3626 48.5942 23.4665 48.2827 23.6741C47.9712 23.8818 47.7636 24.1933 47.7636 24.5048H50.9824C50.8786 24.2971 50.6709 23.9856 50.4633 23.6741ZM47.1406 39.2492C47.0367 38.8339 46.8291 38.4185 46.5176 38.107C46.2061 37.7955 45.7907 37.5879 45.3754 37.5879C45.0639 37.5879 44.7524 37.6917 44.4409 37.8994C44.2332 38.107 44.0256 38.3147 43.8179 38.73C43.7141 39.0415 43.6102 39.353 43.5064 39.7684C43.4025 40.0799 43.4026 40.4952 43.4026 40.8067C43.4026 41.1182 43.4025 41.5335 43.5064 41.845C43.6102 42.1565 43.7141 42.4681 43.8179 42.8834C44.0256 43.1949 44.1294 43.4026 44.4409 43.7141C44.7524 43.9217 44.9601 44.0256 45.3754 44.0256C45.7907 44.0256 46.2061 43.8179 46.5176 43.5064C46.8291 43.1949 47.0367 42.7796 47.1406 42.3642C47.2444 41.9489 47.3482 41.4297 47.3482 40.9105C47.2444 40.1837 47.2444 39.6645 47.1406 39.2492ZM42.2604 23.6741C41.9489 23.4665 41.6374 23.3626 41.222 23.3626C40.8067 23.3626 40.4952 23.4665 40.1837 23.6741C39.8722 23.8818 39.6645 24.1933 39.6645 24.5048H42.8834C42.7796 24.2971 42.5719 23.9856 42.2604 23.6741ZM25.8546 23.9856C25.5431 23.6741 25.024 23.4665 24.5048 23.4665C23.9856 23.4665 23.5703 23.6741 23.2588 23.9856C22.9473 24.2971 22.7396 24.8163 22.7396 25.3355C22.7396 25.8546 22.9473 26.27 23.2588 26.6853C23.5703 26.9968 24.0895 27.2045 24.5048 27.2045C25.024 27.2045 25.4393 26.9968 25.8546 26.6853C26.1661 26.3738 26.3738 25.8546 26.3738 25.3355C26.3738 24.8163 26.1661 24.401 25.8546 23.9856ZM25.8546 23.9856C25.5431 23.6741 25.024 23.4665 24.5048 23.4665C23.9856 23.4665 23.5703 23.6741 23.2588 23.9856C22.9473 24.2971 22.7396 24.8163 22.7396 25.3355C22.7396 25.8546 22.9473 26.27 23.2588 26.6853C23.5703 26.9968 24.0895 27.2045 24.5048 27.2045C25.024 27.2045 25.4393 26.9968 25.8546 26.6853C26.1661 26.3738 26.3738 25.8546 26.3738 25.3355C26.3738 24.8163 26.1661 24.401 25.8546 23.9856ZM29.0735 39.2492C28.9696 38.8339 28.762 38.4185 28.4505 38.107C28.139 37.7955 27.8275 37.5879 27.3083 37.5879C26.9968 37.5879 26.6853 37.6917 26.4776 37.8994C26.1661 38.107 25.9585 38.3147 25.8546 38.73C25.7508 39.0415 25.647 39.353 25.5431 39.7684C25.4393 40.0799 25.4393 40.4952 25.4393 40.8067C25.4393 41.1182 25.4393 41.5335 25.5431 41.845C25.647 42.1565 25.7508 42.4681 25.8546 42.8834C26.0623 43.1949 26.1661 43.4026 26.4776 43.7141C26.6853 43.9217 26.9968 44.0256 27.3083 44.0256C27.8275 44.0256 28.139 43.8179 28.4505 43.5064C28.762 43.1949 28.9696 42.7796 29.0735 42.3642C29.1773 41.9489 29.2811 41.4297 29.2811 40.9105C29.2811 40.1837 29.1773 39.6645 29.0735 39.2492ZM38.107 39.2492C38.0032 38.8339 37.7955 38.4185 37.484 38.107C37.1725 37.7955 36.7572 37.5879 36.3419 37.5879C36.0303 37.5879 35.7189 37.6917 35.4074 37.8994C35.1997 38.107 34.8882 38.3147 34.7843 38.73C34.5767 39.0415 34.5767 39.353 34.4728 39.7684C34.369 40.0799 34.369 40.4952 34.369 40.8067C34.369 41.1182 34.369 41.5335 34.4728 41.845C34.5767 42.1565 34.6805 42.4681 34.7843 42.8834C34.8882 43.1949 35.0958 43.4026 35.4074 43.7141C35.615 43.9217 35.9265 44.0256 36.3419 44.0256C36.7572 44.0256 37.1725 43.8179 37.484 43.5064C37.7955 43.1949 38.0032 42.7796 38.107 42.3642C38.2109 41.9489 38.3147 41.4297 38.3147 40.9105C38.3147 40.1837 38.2109 39.6645 38.107 39.2492ZM42.2604 23.6741C41.9489 23.4665 41.6374 23.3626 41.222 23.3626C40.8067 23.3626 40.4952 23.4665 40.1837 23.6741C39.8722 23.8818 39.6645 24.1933 39.6645 24.5048H42.8834C42.7796 24.2971 42.5719 23.9856 42.2604 23.6741ZM47.1406 39.2492C47.0367 38.8339 46.8291 38.4185 46.5176 38.107C46.2061 37.7955 45.7907 37.5879 45.3754 37.5879C45.0639 37.5879 44.7524 37.6917 44.4409 37.8994C44.2332 38.107 44.0256 38.3147 43.8179 38.73C43.7141 39.0415 43.6102 39.353 43.5064 39.7684C43.4025 40.0799 43.4026 40.4952 43.4026 40.8067C43.4026 41.1182 43.4025 41.5335 43.5064 41.845C43.6102 42.1565 43.7141 42.4681 43.8179 42.8834C44.0256 43.1949 44.1294 43.4026 44.4409 43.7141C44.7524 43.9217 44.9601 44.0256 45.3754 44.0256C45.7907 44.0256 46.2061 43.8179 46.5176 43.5064C46.8291 43.1949 47.0367 42.7796 47.1406 42.3642C47.2444 41.9489 47.3482 41.4297 47.3482 40.9105C47.2444 40.1837 47.2444 39.6645 47.1406 39.2492ZM50.4633 23.6741C50.1518 23.4665 49.8403 23.3626 49.4249 23.3626C49.0096 23.3626 48.5942 23.4665 48.2827 23.6741C47.9712 23.8818 47.7636 24.1933 47.7636 24.5048H50.9824C50.8786 24.2971 50.6709 23.9856 50.4633 23.6741ZM50.4633 23.6741C50.1518 23.4665 49.8403 23.3626 49.4249 23.3626C49.0096 23.3626 48.5942 23.4665 48.2827 23.6741C47.9712 23.8818 47.7636 24.1933 47.7636 24.5048H50.9824C50.8786 24.2971 50.6709 23.9856 50.4633 23.6741ZM47.1406 39.2492C47.0367 38.8339 46.8291 38.4185 46.5176 38.107C46.2061 37.7955 45.7907 37.5879 45.3754 37.5879C45.0639 37.5879 44.7524 37.6917 44.4409 37.8994C44.2332 38.107 44.0256 38.3147 43.8179 38.73C43.7141 39.0415 43.6102 39.353 43.5064 39.7684C43.4025 40.0799 43.4026 40.4952 43.4026 40.8067C43.4026 41.1182 43.4025 41.5335 43.5064 41.845C43.6102 42.1565 43.7141 42.4681 43.8179 42.8834C44.0256 43.1949 44.1294 43.4026 44.4409 43.7141C44.7524 43.9217 44.9601 44.0256 45.3754 44.0256C45.7907 44.0256 46.2061 43.8179 46.5176 43.5064C46.8291 43.1949 47.0367 42.7796 47.1406 42.3642C47.2444 41.9489 47.3482 41.4297 47.3482 40.9105C47.2444 40.1837 47.2444 39.6645 47.1406 39.2492ZM42.2604 23.6741C41.9489 23.4665 41.6374 23.3626 41.222 23.3626C40.8067 23.3626 40.4952 23.4665 40.1837 23.6741C39.8722 23.8818 39.6645 24.1933 39.6645 24.5048H42.8834C42.7796 24.2971 42.5719 23.9856 42.2604 23.6741ZM38.107 39.2492C38.0032 38.8339 37.7955 38.4185 37.484 38.107C37.1725 37.7955 36.7572 37.5879 36.3419 37.5879C36.0303 37.5879 35.7189 37.6917 35.4074 37.8994C35.1997 38.107 34.8882 38.3147 34.7843 38.73C34.5767 39.0415 34.5767 39.353 34.4728 39.7684C34.369 40.0799 34.369 40.4952 34.369 40.8067C34.369 41.1182 34.369 41.5335 34.4728 41.845C34.5767 42.1565 34.6805 42.4681 34.7843 42.8834C34.8882 43.1949 35.0958 43.4026 35.4074 43.7141C35.615 43.9217 35.9265 44.0256 36.3419 44.0256C36.7572 44.0256 37.1725 43.8179 37.484 43.5064C37.7955 43.1949 38.0032 42.7796 38.107 42.3642C38.2109 41.9489 38.3147 41.4297 38.3147 40.9105C38.3147 40.1837 38.2109 39.6645 38.107 39.2492ZM29.0735 39.2492C28.9696 38.8339 28.762 38.4185 28.4505 38.107C28.139 37.7955 27.8275 37.5879 27.3083 37.5879C26.9968 37.5879 26.6853 37.6917 26.4776 37.8994C26.1661 38.107 25.9585 38.3147 25.8546 38.73C25.7508 39.0415 25.647 39.353 25.5431 39.7684C25.4393 40.0799 25.4393 40.4952 25.4393 40.8067C25.4393 41.1182 25.4393 41.5335 25.5431 41.845C25.647 42.1565 25.7508 42.4681 25.8546 42.8834C26.0623 43.1949 26.1661 43.4026 26.4776 43.7141C26.6853 43.9217 26.9968 44.0256 27.3083 44.0256C27.8275 44.0256 28.139 43.8179 28.4505 43.5064C28.762 43.1949 28.9696 42.7796 29.0735 42.3642C29.1773 41.9489 29.2811 41.4297 29.2811 40.9105C29.2811 40.1837 29.1773 39.6645 29.0735 39.2492ZM25.8546 23.9856C25.5431 23.6741 25.024 23.4665 24.5048 23.4665C23.9856 23.4665 23.5703 23.6741 23.2588 23.9856C22.9473 24.2971 22.7396 24.8163 22.7396 25.3355C22.7396 25.8546 22.9473 26.27 23.2588 26.6853C23.5703 26.9968 24.0895 27.2045 24.5048 27.2045C25.024 27.2045 25.4393 26.9968 25.8546 26.6853C26.1661 26.3738 26.3738 25.8546 26.3738 25.3355C26.3738 24.8163 26.1661 24.401 25.8546 23.9856ZM25.8546 23.9856C25.5431 23.6741 25.024 23.4665 24.5048 23.4665C23.9856 23.4665 23.5703 23.6741 23.2588 23.9856C22.9473 24.2971 22.7396 24.8163 22.7396 25.3355C22.7396 25.8546 22.9473 26.27 23.2588 26.6853C23.5703 26.9968 24.0895 27.2045 24.5048 27.2045C25.024 27.2045 25.4393 26.9968 25.8546 26.6853C26.1661 26.3738 26.3738 25.8546 26.3738 25.3355C26.3738 24.8163 26.1661 24.401 25.8546 23.9856ZM29.0735 39.2492C28.9696 38.8339 28.762 38.4185 28.4505 38.107C28.139 37.7955 27.8275 37.5879 27.3083 37.5879C26.9968 37.5879 26.6853 37.6917 26.4776 37.8994C26.1661 38.107 25.9585 38.3147 25.8546 38.73C25.7508 39.0415 25.647 39.353 25.5431 39.7684C25.4393 40.0799 25.4393 40.4952 25.4393 40.8067C25.4393 41.1182 25.4393 41.5335 25.5431 41.845C25.647 42.1565 25.7508 42.4681 25.8546 42.8834C26.0623 43.1949 26.1661 43.4026 26.4776 43.7141C26.6853 43.9217 26.9968 44.0256 27.3083 44.0256C27.8275 44.0256 28.139 43.8179 28.4505 43.5064C28.762 43.1949 28.9696 42.7796 29.0735 42.3642C29.1773 41.9489 29.2811 41.4297 29.2811 40.9105C29.2811 40.1837 29.1773 39.6645 29.0735 39.2492ZM38.107 39.2492C38.0032 38.8339 37.7955 38.4185 37.484 38.107C37.1725 37.7955 36.7572 37.5879 36.3419 37.5879C36.0303 37.5879 35.7189 37.6917 35.4074 37.8994C35.1997 38.107 34.8882 38.3147 34.7843 38.73C34.5767 39.0415 34.5767 39.353 34.4728 39.7684C34.369 40.0799 34.369 40.4952 34.369 40.8067C34.369 41.1182 34.369 41.5335 34.4728 41.845C34.5767 42.1565 34.6805 42.4681 34.7843 42.8834C34.8882 43.1949 35.0958 43.4026 35.4074 43.7141C35.615 43.9217 35.9265 44.0256 36.3419 44.0256C36.7572 44.0256 37.1725 43.8179 37.484 43.5064C37.7955 43.1949 38.0032 42.7796 38.107 42.3642C38.2109 41.9489 38.3147 41.4297 38.3147 40.9105C38.3147 40.1837 38.2109 39.6645 38.107 39.2492ZM42.2604 23.6741C41.9489 23.4665 41.6374 23.3626 41.222 23.3626C40.8067 23.3626 40.4952 23.4665 40.1837 23.6741C39.8722 23.8818 39.6645 24.1933 39.6645 24.5048H42.8834C42.7796 24.2971 42.5719 23.9856 42.2604 23.6741ZM47.1406 39.2492C47.0367 38.8339 46.8291 38.4185 46.5176 38.107C46.2061 37.7955 45.7907 37.5879 45.3754 37.5879C45.0639 37.5879 44.7524 37.6917 44.4409 37.8994C44.2332 38.107 44.0256 38.3147 43.8179 38.73C43.7141 39.0415 43.6102 39.353 43.5064 39.7684C43.4025 40.0799 43.4026 40.4952 43.4026 40.8067C43.4026 41.1182 43.4025 41.5335 43.5064 41.845C43.6102 42.1565 43.7141 42.4681 43.8179 42.8834C44.0256 43.1949 44.1294 43.4026 44.4409 43.7141C44.7524 43.9217 44.9601 44.0256 45.3754 44.0256C45.7907 44.0256 46.2061 43.8179 46.5176 43.5064C46.8291 43.1949 47.0367 42.7796 47.1406 42.3642C47.2444 41.9489 47.3482 41.4297 47.3482 40.9105C47.2444 40.1837 47.2444 39.6645 47.1406 39.2492ZM50.4633 23.6741C50.1518 23.4665 49.8403 23.3626 49.4249 23.3626C49.0096 23.3626 48.5942 23.4665 48.2827 23.6741C47.9712 23.8818 47.7636 24.1933 47.7636 24.5048H50.9824C50.8786 24.2971 50.6709 23.9856 50.4633 23.6741ZM50.4633 23.6741C50.1518 23.4665 49.8403 23.3626 49.4249 23.3626C49.0096 23.3626 48.5942 23.4665 48.2827 23.6741C47.9712 23.8818 47.7636 24.1933 47.7636 24.5048H50.9824C50.8786 24.2971 50.6709 23.9856 50.4633 23.6741ZM47.1406 39.2492C47.0367 38.8339 46.8291 38.4185 46.5176 38.107C46.2061 37.7955 45.7907 37.5879 45.3754 37.5879C45.0639 37.5879 44.7524 37.6917 44.4409 37.8994C44.2332 38.107 44.0256 38.3147 43.8179 38.73C43.7141 39.0415 43.6102 39.353 43.5064 39.7684C43.4025 40.0799 43.4026 40.4952 43.4026 40.8067C43.4026 41.1182 43.4025 41.5335 43.5064 41.845C43.6102 42.1565 43.7141 42.4681 43.8179 42.8834C44.0256 43.1949 44.1294 43.4026 44.4409 43.7141C44.7524 43.9217 44.9601 44.0256 45.3754 44.0256C45.7907 44.0256 46.2061 43.8179 46.5176 43.5064C46.8291 43.1949 47.0367 42.7796 47.1406 42.3642C47.2444 41.9489 47.3482 41.4297 47.3482 40.9105C47.2444 40.1837 47.2444 39.6645 47.1406 39.2492ZM42.2604 23.6741C41.9489 23.4665 41.6374 23.3626 41.222 23.3626C40.8067 23.3626 40.4952 23.4665 40.1837 23.6741C39.8722 23.8818 39.6645 24.1933 39.6645 24.5048H42.8834C42.7796 24.2971 42.5719 23.9856 42.2604 23.6741ZM38.107 39.2492C38.0032 38.8339 37.7955 38.4185 37.484 38.107C37.1725 37.7955 36.7572 37.5879 36.3419 37.5879C36.0303 37.5879 35.7189 37.6917 35.4074 37.8994C35.1997 38.107 34.8882 38.3147 34.7843 38.73C34.5767 39.0415 34.5767 39.353 34.4728 39.7684C34.369 40.0799 34.369 40.4952 34.369 40.8067C34.369 41.1182 34.369 41.5335 34.4728 41.845C34.5767 42.1565 34.6805 42.4681 34.7843 42.8834C34.8882 43.1949 35.0958 43.4026 35.4074 43.7141C35.615 43.9217 35.9265 44.0256 36.3419 44.0256C36.7572 44.0256 37.1725 43.8179 37.484 43.5064C37.7955 43.1949 38.0032 42.7796 38.107 42.3642C38.2109 41.9489 38.3147 41.4297 38.3147 40.9105C38.3147 40.1837 38.2109 39.6645 38.107 39.2492ZM29.0735 39.2492C28.9696 38.8339 28.762 38.4185 28.4505 38.107C28.139 37.7955 27.8275 37.5879 27.3083 37.5879C26.9968 37.5879 26.6853 37.6917 26.4776 37.8994C26.1661 38.107 25.9585 38.3147 25.8546 38.73C25.7508 39.0415 25.647 39.353 25.5431 39.7684C25.4393 40.0799 25.4393 40.4952 25.4393 40.8067C25.4393 41.1182 25.4393 41.5335 25.5431 41.845C25.647 42.1565 25.7508 42.4681 25.8546 42.8834C26.0623 43.1949 26.1661 43.4026 26.4776 43.7141C26.6853 43.9217 26.9968 44.0256 27.3083 44.0256C27.8275 44.0256 28.139 43.8179 28.4505 43.5064C28.762 43.1949 28.9696 42.7796 29.0735 42.3642C29.1773 41.9489 29.2811 41.4297 29.2811 40.9105C29.2811 40.1837 29.1773 39.6645 29.0735 39.2492ZM25.8546 23.9856C25.5431 23.6741 25.024 23.4665 24.5048 23.4665C23.9856 23.4665 23.5703 23.6741 23.2588 23.9856C22.9473 24.2971 22.7396 24.8163 22.7396 25.3355C22.7396 25.8546 22.9473 26.27 23.2588 26.6853C23.5703 26.9968 24.0895 27.2045 24.5048 27.2045C25.024 27.2045 25.4393 26.9968 25.8546 26.6853C26.1661 26.3738 26.3738 25.8546 26.3738 25.3355C26.3738 24.8163 26.1661 24.401 25.8546 23.9856ZM25.8546 23.9856C25.5431 23.6741 25.024 23.4665 24.5048 23.4665C23.9856 23.4665 23.5703 23.6741 23.2588 23.9856C22.9473 24.2971 22.7396 24.8163 22.7396 25.3355C22.7396 25.8546 22.9473 26.27 23.2588 26.6853C23.5703 26.9968 24.0895 27.2045 24.5048 27.2045C25.024 27.2045 25.4393 26.9968 25.8546 26.6853C26.1661 26.3738 26.3738 25.8546 26.3738 25.3355C26.3738 24.8163 26.1661 24.401 25.8546 23.9856ZM29.0735 39.2492C28.9696 38.8339 28.762 38.4185 28.4505 38.107C28.139 37.7955 27.8275 37.5879 27.3083 37.5879C26.9968 37.5879 26.6853 37.6917 26.4776 37.8994C26.1661 38.107 25.9585 38.3147 25.8546 38.73C25.7508 39.0415 25.647 39.353 25.5431 39.7684C25.4393 40.0799 25.4393 40.4952 25.4393 40.8067C25.4393 41.1182 25.4393 41.5335 25.5431 41.845C25.647 42.1565 25.7508 42.4681 25.8546 42.8834C26.0623 43.1949 26.1661 43.4026 26.4776 43.7141C26.6853 43.9217 26.9968 44.0256 27.3083 44.0256C27.8275 44.0256 28.139 43.8179 28.4505 43.5064C28.762 43.1949 28.9696 42.7796 29.0735 42.3642C29.1773 41.9489 29.2811 41.4297 29.2811 40.9105C29.2811 40.1837 29.1773 39.6645 29.0735 39.2492ZM38.107 39.2492C38.0032 38.8339 37.7955 38.4185 37.484 38.107C37.1725 37.7955 36.7572 37.5879 36.3419 37.5879C36.0303 37.5879 35.7189 37.6917 35.4074 37.8994C35.1997 38.107 34.8882 38.3147 34.7843 38.73C34.5767 39.0415 34.5767 39.353 34.4728 39.7684C34.369 40.0799 34.369 40.4952 34.369 40.8067C34.369 41.1182 34.369 41.5335 34.4728 41.845C34.5767 42.1565 34.6805 42.4681 34.7843 42.8834C34.8882 43.1949 35.0958 43.4026 35.4074 43.7141C35.615 43.9217 35.9265 44.0256 36.3419 44.0256C36.7572 44.0256 37.1725 43.8179 37.484 43.5064C37.7955 43.1949 38.0032 42.7796 38.107 42.3642C38.2109 41.9489 38.3147 41.4297 38.3147 40.9105C38.3147 40.1837 38.2109 39.6645 38.107 39.2492ZM42.2604 23.6741C41.9489 23.4665 41.6374 23.3626 41.222 23.3626C40.8067 23.3626 40.4952 23.4665 40.1837 23.6741C39.8722 23.8818 39.6645 24.1933 39.6645 24.5048H42.8834C42.7796 24.2971 42.5719 23.9856 42.2604 23.6741ZM47.1406 39.2492C47.0367 38.8339 46.8291 38.4185 46.5176 38.107C46.2061 37.7955 45.7907 37.5879 45.3754 37.5879C45.0639 37.5879 44.7524 37.6917 44.4409 37.8994C44.2332 38.107 44.0256 38.3147 43.8179 38.73C43.7141 39.0415 43.6102 39.353 43.5064 39.7684C43.4025 40.0799 43.4026 40.4952 43.4026 40.8067C43.4026 41.1182 43.4025 41.5335 43.5064 41.845C43.6102 42.1565 43.7141 42.4681 43.8179 42.8834C44.0256 43.1949 44.1294 43.4026 44.4409 43.7141C44.7524 43.9217 44.9601 44.0256 45.3754 44.0256C45.7907 44.0256 46.2061 43.8179 46.5176 43.5064C46.8291 43.1949 47.0367 42.7796 47.1406 42.3642C47.2444 41.9489 47.3482 41.4297 47.3482 40.9105C47.2444 40.1837 47.2444 39.6645 47.1406 39.2492ZM50.4633 23.6741C50.1518 23.4665 49.8403 23.3626 49.4249 23.3626C49.0096 23.3626 48.5942 23.4665 48.2827 23.6741C47.9712 23.8818 47.7636 24.1933 47.7636 24.5048H50.9824C50.8786 24.2971 50.6709 23.9856 50.4633 23.6741ZM50.4633 23.6741C50.1518 23.4665 49.8403 23.3626 49.4249 23.3626C49.0096 23.3626 48.5942 23.4665 48.2827 23.6741C47.9712 23.8818 47.7636 24.1933 47.7636 24.5048H50.9824C50.8786 24.2971 50.6709 23.9856 50.4633 23.6741ZM47.1406 39.2492C47.0367 38.8339 46.8291 38.4185 46.5176 38.107C46.2061 37.7955 45.7907 37.5879 45.3754 37.5879C45.0639 37.5879 44.7524 37.6917 44.4409 37.8994C44.2332 38.107 44.0256 38.3147 43.8179 38.73C43.7141 39.0415 43.6102 39.353 43.5064 39.7684C43.4025 40.0799 43.4026 40.4952 43.4026 40.8067C43.4026 41.1182 43.4025 41.5335 43.5064 41.845C43.6102 42.1565 43.7141 42.4681 43.8179 42.8834C44.0256 43.1949 44.1294 43.4026 44.4409 43.7141C44.7524 43.9217 44.9601 44.0256 45.3754 44.0256C45.7907 44.0256 46.2061 43.8179 46.5176 43.5064C46.8291 43.1949 47.0367 42.7796 47.1406 42.3642C47.2444 41.9489 47.3482 41.4297 47.3482 40.9105C47.2444 40.1837 47.2444 39.6645 47.1406 39.2492ZM42.2604 23.6741C41.9489 23.4665 41.6374 23.3626 41.222 23.3626C40.8067 23.3626 40.4952 23.4665 40.1837 23.6741C39.8722 23.8818 39.6645 24.1933 39.6645 24.5048H42.8834C42.7796 24.2971 42.5719 23.9856 42.2604 23.6741ZM38.107 39.2492C38.0032 38.8339 37.7955 38.4185 37.484 38.107C37.1725 37.7955 36.7572 37.5879 36.3419 37.5879C36.0303 37.5879 35.7189 37.6917 35.4074 37.8994C35.1997 38.107 34.8882 38.3147 34.7843 38.73C34.5767 39.0415 34.5767 39.353 34.4728 39.7684C34.369 40.0799 34.369 40.4952 34.369 40.8067C34.369 41.1182 34.369 41.5335 34.4728 41.845C34.5767 42.1565 34.6805 42.4681 34.7843 42.8834C34.8882 43.1949 35.0958 43.4026 35.4074 43.7141C35.615 43.9217 35.9265 44.0256 36.3419 44.0256C36.7572 44.0256 37.1725 43.8179 37.484 43.5064C37.7955 43.1949 38.0032 42.7796 38.107 42.3642C38.2109 41.9489 38.3147 41.4297 38.3147 40.9105C38.3147 40.1837 38.2109 39.6645 38.107 39.2492ZM29.0735 39.2492C28.9696 38.8339 28.762 38.4185 28.4505 38.107C28.139 37.7955 27.8275 37.5879 27.3083 37.5879C26.9968 37.5879 26.6853 37.6917 26.4776 37.8994C26.1661 38.107 25.9585 38.3147 25.8546 38.73C25.7508 39.0415 25.647 39.353 25.5431 39.7684C25.4393 40.0799 25.4393 40.4952 25.4393 40.8067C25.4393 41.1182 25.4393 41.5335 25.5431 41.845C25.647 42.1565 25.7508 42.4681 25.8546 42.8834C26.0623 43.1949 26.1661 43.4026 26.4776 43.7141C26.6853 43.9217 26.9968 44.0256 27.3083 44.0256C27.8275 44.0256 28.139 43.8179 28.4505 43.5064C28.762 43.1949 28.9696 42.7796 29.0735 42.3642C29.1773 41.9489 29.2811 41.4297 29.2811 40.9105C29.2811 40.1837 29.1773 39.6645 29.0735 39.2492ZM25.8546 23.9856C25.5431 23.6741 25.024 23.4665 24.5048 23.4665C23.9856 23.4665 23.5703 23.6741 23.2588 23.9856C22.9473 24.2971 22.7396 24.8163 22.7396 25.3355C22.7396 25.8546 22.9473 26.27 23.2588 26.6853C23.5703 26.9968 24.0895 27.2045 24.5048 27.2045C25.024 27.2045 25.4393 26.9968 25.8546 26.6853C26.1661 26.3738 26.3738 25.8546 26.3738 25.3355C26.3738 24.8163 26.1661 24.401 25.8546 23.9856ZM25.8546 23.9856C25.5431 23.6741 25.024 23.4665 24.5048 23.4665C23.9856 23.4665 23.5703 23.6741 23.2588 23.9856C22.9473 24.2971 22.7396 24.8163 22.7396 25.3355C22.7396 25.8546 22.9473 26.27 23.2588 26.6853C23.5703 26.9968 24.0895 27.2045 24.5048 27.2045C25.024 27.2045 25.4393 26.9968 25.8546 26.6853C26.1661 26.3738 26.3738 25.8546 26.3738 25.3355C26.3738 24.8163 26.1661 24.401 25.8546 23.9856ZM29.0735 39.2492C28.9696 38.8339 28.762 38.4185 28.4505 38.107C28.139 37.7955 27.8275 37.5879 27.3083 37.5879C26.9968 37.5879 26.6853 37.6917 26.4776 37.8994C26.1661 38.107 25.9585 38.3147 25.8546 38.73C25.7508 39.0415 25.647 39.353 25.5431 39.7684C25.4393 40.0799 25.4393 40.4952 25.4393 40.8067C25.4393 41.1182 25.4393 41.5335 25.5431 41.845C25.647 42.1565 25.7508 42.4681 25.8546 42.8834C26.0623 43.1949 26.1661 43.4026 26.4776 43.7141C26.6853 43.9217 26.9968 44.0256 27.3083 44.0256C27.8275 44.0256 28.139 43.8179 28.4505 43.5064C28.762 43.1949 28.9696 42.7796 29.0735 42.3642C29.1773 41.9489 29.2811 41.4297 29.2811 40.9105C29.2811 40.1837 29.1773 39.6645 29.0735 39.2492ZM38.107 39.2492C38.0032 38.8339 37.7955 38.4185 37.484 38.107C37.1725 37.7955 36.7572 37.5879 36.3419 37.5879C36.0303 37.5879 35.7189 37.6917 35.4074 37.8994C35.1997 38.107 34.8882 38.3147 34.7843 38.73C34.5767 39.0415 34.5767 39.353 34.4728 39.7684C34.369 40.0799 34.369 40.4952 34.369 40.8067C34.369 41.1182 34.369 41.5335 34.4728 41.845C34.5767 42.1565 34.6805 42.4681 34.7843 42.8834C34.8882 43.1949 35.0958 43.4026 35.4074 43.7141C35.615 43.9217 35.9265 44.0256 36.3419 44.0256C36.7572 44.0256 37.1725 43.8179 37.484 43.5064C37.7955 43.1949 38.0032 42.7796 38.107 42.3642C38.2109 41.9489 38.3147 41.4297 38.3147 40.9105C38.3147 40.1837 38.2109 39.6645 38.107 39.2492ZM42.2604 23.6741C41.9489 23.4665 41.6374 23.3626 41.222 23.3626C40.8067 23.3626 40.4952 23.4665 40.1837 23.6741C39.8722 23.8818 39.6645 24.1933 39.6645 24.5048H42.8834C42.7796 24.2971 42.5719 23.9856 42.2604 23.6741ZM47.1406 39.2492C47.0367 38.8339 46.8291 38.4185 46.5176 38.107C46.2061 37.7955 45.7907 37.5879 45.3754 37.5879C45.0639 37.5879 44.7524 37.6917 44.4409 37.8994C44.2332 38.107 44.0256 38.3147 43.8179 38.73C43.7141 39.0415 43.6102 39.353 43.5064 39.7684C43.4025 40.0799 43.4026 40.4952 43.4026 40.8067C43.4026 41.1182 43.4025 41.5335 43.5064 41.845C43.6102 42.1565 43.7141 42.4681 43.8179 42.8834C44.0256 43.1949 44.1294 43.4026 44.4409 43.7141C44.7524 43.9217 44.9601 44.0256 45.3754 44.0256C45.7907 44.0256 46.2061 43.8179 46.5176 43.5064C46.8291 43.1949 47.0367 42.7796 47.1406 42.3642C47.2444 41.9489 47.3482 41.4297 47.3482 40.9105C47.2444 40.1837 47.2444 39.6645 47.1406 39.2492ZM50.4633 23.6741C50.1518 23.4665 49.8403 23.3626 49.4249 23.3626C49.0096 23.3626 48.5942 23.4665 48.2827 23.6741C47.9712 23.8818 47.7636 24.1933 47.7636 24.5048H50.9824C50.8786 24.2971 50.6709 23.9856 50.4633 23.6741ZM50.4633 23.6741C50.1518 23.4665 49.8403 23.3626 49.4249 23.3626C49.0096 23.3626 48.5942 23.4665 48.2827 23.6741C47.9712 23.8818 47.7636 24.1933 47.7636 24.5048H50.9824C50.8786 24.2971 50.6709 23.9856 50.4633 23.6741ZM47.1406 39.2492C47.0367 38.8339 46.8291 38.4185 46.5176 38.107C46.2061 37.7955 45.7907 37.5879 45.3754 37.5879C45.0639 37.5879 44.7524 37.6917 44.4409 37.8994C44.2332 38.107 44.0256 38.3147 43.8179 38.73C43.7141 39.0415 43.6102 39.353 43.5064 39.7684C43.4025 40.0799 43.4026 40.4952 43.4026 40.8067C43.4026 41.1182 43.4025 41.5335 43.5064 41.845C43.6102 42.1565 43.7141 42.4681 43.8179 42.8834C44.0256 43.1949 44.1294 43.4026 44.4409 43.7141C44.7524 43.9217 44.9601 44.0256 45.3754 44.0256C45.7907 44.0256 46.2061 43.8179 46.5176 43.5064C46.8291 43.1949 47.0367 42.7796 47.1406 42.3642C47.2444 41.9489 47.3482 41.4297 47.3482 40.9105C47.2444 40.1837 47.2444 39.6645 47.1406 39.2492ZM42.2604 23.6741C41.9489 23.4665 41.6374 23.3626 41.222 23.3626C40.8067 23.3626 40.4952 23.4665 40.1837 23.6741C39.8722 23.8818 39.6645 24.1933 39.6645 24.5048H42.8834C42.7796 24.2971 42.5719 23.9856 42.2604 23.6741ZM38.107 39.2492C38.0032 38.8339 37.7955 38.4185 37.484 38.107C37.1725 37.7955 36.7572 37.5879 36.3419 37.5879C36.0303 37.5879 35.7189 37.6917 35.4074 37.8994C35.1997 38.107 34.8882 38.3147 34.7843 38.73C34.5767 39.0415 34.5767 39.353 34.4728 39.7684C34.369 40.0799 34.369 40.4952 34.369 40.8067C34.369 41.1182 34.369 41.5335 34.4728 41.845C34.5767 42.1565 34.6805 42.4681 34.7843 42.8834C34.8882 43.1949 35.0958 43.4026 35.4074 43.7141C35.615 43.9217 35.9265 44.0256 36.3419 44.0256C36.7572 44.0256 37.1725 43.8179 37.484 43.5064C37.7955 43.1949 38.0032 42.7796 38.107 42.3642C38.2109 41.9489 38.3147 41.4297 38.3147 40.9105C38.3147 40.1837 38.2109 39.6645 38.107 39.2492ZM29.0735 39.2492C28.9696 38.8339 28.762 38.4185 28.4505 38.107C28.139 37.7955 27.8275 37.5879 27.3083 37.5879C26.9968 37.5879 26.6853 37.6917 26.4776 37.8994C26.1661 38.107 25.9585 38.3147 25.8546 38.73C25.7508 39.0415 25.647 39.353 25.5431 39.7684C25.4393 40.0799 25.4393 40.4952 25.4393 40.8067C25.4393 41.1182 25.4393 41.5335 25.5431 41.845C25.647 42.1565 25.7508 42.4681 25.8546 42.8834C26.0623 43.1949 26.1661 43.4026 26.4776 43.7141C26.6853 43.9217 26.9968 44.0256 27.3083 44.0256C27.8275 44.0256 28.139 43.8179 28.4505 43.5064C28.762 43.1949 28.9696 42.7796 29.0735 42.3642C29.1773 41.9489 29.2811 41.4297 29.2811 40.9105C29.2811 40.1837 29.1773 39.6645 29.0735 39.2492ZM25.8546 23.9856C25.5431 23.6741 25.024 23.4665 24.5048 23.4665C23.9856 23.4665 23.5703 23.6741 23.2588 23.9856C22.9473 24.2971 22.7396 24.8163 22.7396 25.3355C22.7396 25.8546 22.9473 26.27 23.2588 26.6853C23.5703 26.9968 24.0895 27.2045 24.5048 27.2045C25.024 27.2045 25.4393 26.9968 25.8546 26.6853C26.1661 26.3738 26.3738 25.8546 26.3738 25.3355C26.3738 24.8163 26.1661 24.401 25.8546 23.9856ZM25.8546 23.9856C25.5431 23.6741 25.024 23.4665 24.5048 23.4665C23.9856 23.4665 23.5703 23.6741 23.2588 23.9856C22.9473 24.2971 22.7396 24.8163 22.7396 25.3355C22.7396 25.8546 22.9473 26.27 23.2588 26.6853C23.5703 26.9968 24.0895 27.2045 24.5048 27.2045C25.024 27.2045 25.4393 26.9968 25.8546 26.6853C26.1661 26.3738 26.3738 25.8546 26.3738 25.3355C26.3738 24.8163 26.1661 24.401 25.8546 23.9856ZM29.0735 39.2492C28.9696 38.8339 28.762 38.4185 28.4505 38.107C28.139 37.7955 27.8275 37.5879 27.3083 37.5879C26.9968 37.5879 26.6853 37.6917 26.4776 37.8994C26.1661 38.107 25.9585 38.3147 25.8546 38.73C25.7508 39.0415 25.647 39.353 25.5431 39.7684C25.4393 40.0799 25.4393 40.4952 25.4393 40.8067C25.4393 41.1182 25.4393 41.5335 25.5431 41.845C25.647 42.1565 25.7508 42.4681 25.8546 42.8834C26.0623 43.1949 26.1661 43.4026 26.4776 43.7141C26.6853 43.9217 26.9968 44.0256 27.3083 44.0256C27.8275 44.0256 28.139 43.8179 28.4505 43.5064C28.762 43.1949 28.9696 42.7796 29.0735 42.3642C29.1773 41.9489 29.2811 41.4297 29.2811 40.9105C29.2811 40.1837 29.1773 39.6645 29.0735 39.2492ZM38.107 39.2492C38.0032 38.8339 37.7955 38.4185 37.484 38.107C37.1725 37.7955 36.7572 37.5879 36.3419 37.5879C36.0303 37.5879 35.7189 37.6917 35.4074 37.8994C35.1997 38.107 34.8882 38.3147 34.7843 38.73C34.5767 39.0415 34.5767 39.353 34.4728 39.7684C34.369 40.0799 34.369 40.4952 34.369 40.8067C34.369 41.1182 34.369 41.5335 34.4728 41.845C34.5767 42.1565 34.6805 42.4681 34.7843 42.8834C34.8882 43.1949 35.0958 43.4026 35.4074 43.7141C35.615 43.9217 35.9265 44.0256 36.3419 44.0256C36.7572 44.0256 37.1725 43.8179 37.484 43.5064C37.7955 43.1949 38.0032 42.7796 38.107 42.3642C38.2109 41.9489 38.3147 41.4297 38.3147 40.9105C38.3147 40.1837 38.2109 39.6645 38.107 39.2492ZM42.2604 23.6741C41.9489 23.4665 41.6374 23.3626 41.222 23.3626C40.8067 23.3626 40.4952 23.4665 40.1837 23.6741C39.8722 23.8818 39.6645 24.1933 39.6645 24.5048H42.8834C42.7796 24.2971 42.5719 23.9856 42.2604 23.6741ZM47.1406 39.2492C47.0367 38.8339 46.8291 38.4185 46.5176 38.107C46.2061 37.7955 45.7907 37.5879 45.3754 37.5879C45.0639 37.5879 44.7524 37.6917 44.4409 37.8994C44.2332 38.107 44.0256 38.3147 43.8179 38.73C43.7141 39.0415 43.6102 39.353 43.5064 39.7684C43.4025 40.0799 43.4026 40.4952 43.4026 40.8067C43.4026 41.1182 43.4025 41.5335 43.5064 41.845C43.6102 42.1565 43.7141 42.4681 43.8179 42.8834C44.0256 43.1949 44.1294 43.4026 44.4409 43.7141C44.7524 43.9217 44.9601 44.0256 45.3754 44.0256C45.7907 44.0256 46.2061 43.8179 46.5176 43.5064C46.8291 43.1949 47.0367 42.7796 47.1406 42.3642C47.2444 41.9489 47.3482 41.4297 47.3482 40.9105C47.2444 40.1837 47.2444 39.6645 47.1406 39.2492ZM50.4633 23.6741C50.1518 23.4665 49.8403 23.3626 49.4249 23.3626C49.0096 23.3626 48.5942 23.4665 48.2827 23.6741C47.9712 23.8818 47.7636 24.1933 47.7636 24.5048H50.9824C50.8786 24.2971 50.6709 23.9856 50.4633 23.6741ZM50.4633 23.6741C50.1518 23.4665 49.8403 23.3626 49.4249 23.3626C49.0096 23.3626 48.5942 23.4665 48.2827 23.6741C47.9712 23.8818 47.7636 24.1933 47.7636 24.5048H50.9824C50.8786 24.2971 50.6709 23.9856 50.4633 23.6741ZM47.1406 39.2492C47.0367 38.8339 46.8291 38.4185 46.5176 38.107C46.2061 37.7955 45.7907 37.5879 45.3754 37.5879C45.0639 37.5879 44.7524 37.6917 44.4409 37.8994C44.2332 38.107 44.0256 38.3147 43.8179 38.73C43.7141 39.0415 43.6102 39.353 43.5064 39.7684C43.4025 40.0799 43.4026 40.4952 43.4026 40.8067C43.4026 41.1182 43.4025 41.5335 43.5064 41.845C43.6102 42.1565 43.7141 42.4681 43.8179 42.8834C44.0256 43.1949 44.1294 43.4026 44.4409 43.7141C44.7524 43.9217 44.9601 44.0256 45.3754 44.0256C45.7907 44.0256 46.2061 43.8179 46.5176 43.5064C46.8291 43.1949 47.0367 42.7796 47.1406 42.3642C47.2444 41.9489 47.3482 41.4297 47.3482 40.9105C47.2444 40.1837 47.2444 39.6645 47.1406 39.2492ZM42.2604 23.6741C41.9489 23.4665 41.6374 23.3626 41.222 23.3626C40.8067 23.3626 40.4952 23.4665 40.1837 23.6741C39.8722 23.8818 39.6645 24.1933 39.6645 24.5048H42.8834C42.7796 24.2971 42.5719 23.9856 42.2604 23.6741ZM38.107 39.2492C38.0032 38.8339 37.7955 38.4185 37.484 38.107C37.1725 37.7955 36.7572 37.5879 36.3419 37.5879C36.0303 37.5879 35.7189 37.6917 35.4074 37.8994C35.1997 38.107 34.8882 38.3147 34.7843 38.73C34.5767 39.0415 34.5767 39.353 34.4728 39.7684C34.369 40.0799 34.369 40.4952 34.369 40.8067C34.369 41.1182 34.369 41.5335 34.4728 41.845C34.5767 42.1565 34.6805 42.4681 34.7843 42.8834C34.8882 43.1949 35.0958 43.4026 35.4074 43.7141C35.615 43.9217 35.9265 44.0256 36.3419 44.0256C36.7572 44.0256 37.1725 43.8179 37.484 43.5064C37.7955 43.1949 38.0032 42.7796 38.107 42.3642C38.2109 41.9489 38.3147 41.4297 38.3147 40.9105C38.3147 40.1837 38.2109 39.6645 38.107 39.2492ZM29.0735 39.2492C28.9696 38.8339 28.762 38.4185 28.4505 38.107C28.139 37.7955 27.8275 37.5879 27.3083 37.5879C26.9968 37.5879 26.6853 37.6917 26.4776 37.8994C26.1661 38.107 25.9585 38.3147 25.8546 38.73C25.7508 39.0415 25.647 39.353 25.5431 39.7684C25.4393 40.0799 25.4393 40.4952 25.4393 40.8067C25.4393 41.1182 25.4393 41.5335 25.5431 41.845C25.647 42.1565 25.7508 42.4681 25.8546 42.8834C26.0623 43.1949 26.1661 43.4026 26.4776 43.7141C26.6853 43.9217 26.9968 44.0256 27.3083 44.0256C27.8275 44.0256 28.139 43.8179 28.4505 43.5064C28.762 43.1949 28.9696 42.7796 29.0735 42.3642C29.1773 41.9489 29.2811 41.4297 29.2811 40.9105C29.2811 40.1837 29.1773 39.6645 29.0735 39.2492ZM25.8546 23.9856C25.5431 23.6741 25.024 23.4665 24.5048 23.4665C23.9856 23.4665 23.5703 23.6741 23.2588 23.9856C22.9473 24.2971 22.7396 24.8163 22.7396 25.3355C22.7396 25.8546 22.9473 26.27 23.2588 26.6853C23.5703 26.9968 24.0895 27.2045 24.5048 27.2045C25.024 27.2045 25.4393 26.9968 25.8546 26.6853C26.1661 26.3738 26.3738 25.8546 26.3738 25.3355C26.3738 24.8163 26.1661 24.401 25.8546 23.9856ZM25.8546 23.9856C25.5431 23.6741 25.024 23.4665 24.5048 23.4665C23.9856 23.4665 23.5703 23.6741 23.2588 23.9856C22.9473 24.2971 22.7396 24.8163 22.7396 25.3355C22.7396 25.8546 22.9473 26.27 23.2588 26.6853C23.5703 26.9968 24.0895 27.2045 24.5048 27.2045C25.024 27.2045 25.4393 26.9968 25.8546 26.6853C26.1661 26.3738 26.3738 25.8546 26.3738 25.3355C26.3738 24.8163 26.1661 24.401 25.8546 23.9856ZM29.0735 39.2492C28.9696 38.8339 28.762 38.4185 28.4505 38.107C28.139 37.7955 27.8275 37.5879 27.3083 37.5879C26.9968 37.5879 26.6853 37.6917 26.4776 37.8994C26.1661 38.107 25.9585 38.3147 25.8546 38.73C25.7508 39.0415 25.647 39.353 25.5431 39.7684C25.4393 40.0799 25.4393 40.4952 25.4393 40.8067C25.4393 41.1182 25.4393 41.5335 25.5431 41.845C25.647 42.1565 25.7508 42.4681 25.8546 42.8834C26.0623 43.1949 26.1661 43.4026 26.4776 43.7141C26.6853 43.9217 26.9968 44.0256 27.3083 44.0256C27.8275 44.0256 28.139 43.8179 28.4505 43.5064C28.762 43.1949 28.9696 42.7796 29.0735 42.3642C29.1773 41.9489 29.2811 41.4297 29.2811 40.9105C29.2811 40.1837 29.1773 39.6645 29.0735 39.2492ZM38.107 39.2492C38.0032 38.8339 37.7955 38.4185 37.484 38.107C37.1725 37.7955 36.7572 37.5879 36.3419 37.5879C36.0303 37.5879 35.7189 37.6917 35.4074 37.8994C35.1997 38.107 34.8882 38.3147 34.7843 38.73C34.5767 39.0415 34.5767 39.353 34.4728 39.7684C34.369 40.0799 34.369 40.4952 34.369 40.8067C34.369 41.1182 34.369 41.5335 34.4728 41.845C34.5767 42.1565 34.6805 42.4681 34.7843 42.8834C34.8882 43.1949 35.0958 43.4026 35.4074 43.7141C35.615 43.9217 35.9265 44.0256 36.3419 44.0256C36.7572 44.0256 37.1725 43.8179 37.484 43.5064C37.7955 43.1949 38.0032 42.7796 38.107 42.3642C38.2109 41.9489 38.3147 41.4297 38.3147 40.9105C38.3147 40.1837 38.2109 39.6645 38.107 39.2492ZM42.2604 23.6741C41.9489 23.4665 41.6374 23.3626 41.222 23.3626C40.8067 23.3626 40.4952 23.4665 40.1837 23.6741C39.8722 23.8818 39.6645 24.1933 39.6645 24.5048H42.8834C42.7796 24.2971 42.5719 23.9856 42.2604 23.6741ZM47.1406 39.2492C47.0367 38.8339 46.8291 38.4185 46.5176 38.107C46.2061 37.7955 45.7907 37.5879 45.3754 37.5879C45.0639 37.5879 44.7524 37.6917 44.4409 37.8994C44.2332 38.107 44.0256 38.3147 43.8179 38.73C43.7141 39.0415 43.6102 39.353 43.5064 39.7684C43.4025 40.0799 43.4026 40.4952 43.4026 40.8067C43.4026 41.1182 43.4025 41.5335 43.5064 41.845C43.6102 42.1565 43.7141 42.4681 43.8179 42.8834C44.0256 43.1949 44.1294 43.4026 44.4409 43.7141C44.7524 43.9217 44.9601 44.0256 45.3754 44.0256C45.7907 44.0256 46.2061 43.8179 46.5176 43.5064C46.8291 43.1949 47.0367 42.7796 47.1406 42.3642C47.2444 41.9489 47.3482 41.4297 47.3482 40.9105C47.2444 40.1837 47.2444 39.6645 47.1406 39.2492ZM50.4633 23.6741C50.1518 23.4665 49.8403 23.3626 49.4249 23.3626C49.0096 23.3626 48.5942 23.4665 48.2827 23.6741C47.9712 23.8818 47.7636 24.1933 47.7636 24.5048H50.9824C50.8786 24.2971 50.6709 23.9856 50.4633 23.6741ZM50.4633 23.6741C50.1518 23.4665 49.8403 23.3626 49.4249 23.3626C49.0096 23.3626 48.5942 23.4665 48.2827 23.6741C47.9712 23.8818 47.7636 24.1933 47.7636 24.5048H50.9824C50.8786 24.2971 50.6709 23.9856 50.4633 23.6741ZM47.1406 39.2492C47.0367 38.8339 46.8291 38.4185 46.5176 38.107C46.2061 37.7955 45.7907 37.5879 45.3754 37.5879C45.0639 37.5879 44.7524 37.6917 44.4409 37.8994C44.2332 38.107 44.0256 38.3147 43.8179 38.73C43.7141 39.0415 43.6102 39.353 43.5064 39.7684C43.4025 40.0799 43.4026 40.4952 43.4026 40.8067C43.4026 41.1182 43.4025 41.5335 43.5064 41.845C43.6102 42.1565 43.7141 42.4681 43.8179 42.8834C44.0256 43.1949 44.1294 43.4026 44.4409 43.7141C44.7524 43.9217 44.9601 44.0256 45.3754 44.0256C45.7907 44.0256 46.2061 43.8179 46.5176 43.5064C46.8291 43.1949 47.0367 42.7796 47.1406 42.3642C47.2444 41.9489 47.3482 41.4297 47.3482 40.9105C47.2444 40.1837 47.2444 39.6645 47.1406 39.2492ZM42.2604 23.6741C41.9489 23.4665 41.6374 23.3626 41.222 23.3626C40.8067 23.3626 40.4952 23.4665 40.1837 23.6741C39.8722 23.8818 39.6645 24.1933 39.6645 24.5048H42.8834C42.7796 24.2971 42.5719 23.9856 42.2604 23.6741ZM38.107 39.2492C38.0032 38.8339 37.7955 38.4185 37.484 38.107C37.1725 37.7955 36.7572 37.5879 36.3419 37.5879C36.0303 37.5879 35.7189 37.6917 35.4074 37.8994C35.1997 38.107 34.8882 38.3147 34.7843 38.73C34.5767 39.0415 34.5767 39.353 34.4728 39.7684C34.369 40.0799 34.369 40.4952 34.369 40.8067C34.369 41.1182 34.369 41.5335 34.4728 41.845C34.5767 42.1565 34.6805 42.4681 34.7843 42.8834C34.8882 43.1949 35.0958 43.4026 35.4074 43.7141C35.615 43.9217 35.9265 44.0256 36.3419 44.0256C36.7572 44.0256 37.1725 43.8179 37.484 43.5064C37.7955 43.1949 38.0032 42.7796 38.107 42.3642C38.2109 41.9489 38.3147 41.4297 38.3147 40.9105C38.3147 40.1837 38.2109 39.6645 38.107 39.2492ZM29.0735 39.2492C28.9696 38.8339 28.762 38.4185 28.4505 38.107C28.139 37.7955 27.8275 37.5879 27.3083 37.5879C26.9968 37.5879 26.6853 37.6917 26.4776 37.8994C26.1661 38.107 25.9585 38.3147 25.8546 38.73C25.7508 39.0415 25.647 39.353 25.5431 39.7684C25.4393 40.0799 25.4393 40.4952 25.4393 40.8067C25.4393 41.1182 25.4393 41.5335 25.5431 41.845C25.647 42.1565 25.7508 42.4681 25.8546 42.8834C26.0623 43.1949 26.1661 43.4026 26.4776 43.7141C26.6853 43.9217 26.9968 44.0256 27.3083 44.0256C27.8275 44.0256 28.139 43.8179 28.4505 43.5064C28.762 43.1949 28.9696 42.7796 29.0735 42.3642C29.1773 41.9489 29.2811 41.4297 29.2811 40.9105C29.2811 40.1837 29.1773 39.6645 29.0735 39.2492ZM25.8546 23.9856C25.5431 23.6741 25.024 23.4665 24.5048 23.4665C23.9856 23.4665 23.5703 23.6741 23.2588 23.9856C22.9473 24.2971 22.7396 24.8163 22.7396 25.3355C22.7396 25.8546 22.9473 26.27 23.2588 26.6853C23.5703 26.9968 24.0895 27.2045 24.5048 27.2045C25.024 27.2045 25.4393 26.9968 25.8546 26.6853C26.1661 26.3738 26.3738 25.8546 26.3738 25.3355C26.3738 24.8163 26.1661 24.401 25.8546 23.9856ZM25.8546 23.9856C25.5431 23.6741 25.024 23.4665 24.5048 23.4665C23.9856 23.4665 23.5703 23.6741 23.2588 23.9856C22.9473 24.2971 22.7396 24.8163 22.7396 25.3355C22.7396 25.8546 22.9473 26.27 23.2588 26.6853C23.5703 26.9968 24.0895 27.2045 24.5048 27.2045C25.024 27.2045 25.4393 26.9968 25.8546 26.6853C26.1661 26.3738 26.3738 25.8546 26.3738 25.3355C26.3738 24.8163 26.1661 24.401 25.8546 23.9856ZM29.0735 39.2492C28.9696 38.8339 28.762 38.4185 28.4505 38.107C28.139 37.7955 27.8275 37.5879 27.3083 37.5879C26.9968 37.5879 26.6853 37.6917 26.4776 37.8994C26.1661 38.107 25.9585 38.3147 25.8546 38.73C25.7508 39.0415 25.647 39.353 25.5431 39.7684C25.4393 40.0799 25.4393 40.4952 25.4393 40.8067C25.4393 41.1182 25.4393 41.5335 25.5431 41.845C25.647 42.1565 25.7508 42.4681 25.8546 42.8834C26.0623 43.1949 26.1661 43.4026 26.4776 43.7141C26.6853 43.9217 26.9968 44.0256 27.3083 44.0256C27.8275 44.0256 28.139 43.8179 28.4505 43.5064C28.762 43.1949 28.9696 42.7796 29.0735 42.3642C29.1773 41.9489 29.2811 41.4297 29.2811 40.9105C29.2811 40.1837 29.1773 39.6645 29.0735 39.2492ZM38.107 39.2492C38.0032 38.8339 37.7955 38.4185 37.484 38.107C37.1725 37.7955 36.7572 37.5879 36.3419 37.5879C36.0303 37.5879 35.7189 37.6917 35.4074 37.8994C35.1997 38.107 34.8882 38.3147 34.7843 38.73C34.5767 39.0415 34.5767 39.353 34.4728 39.7684C34.369 40.0799 34.369 40.4952 34.369 40.8067C34.369 41.1182 34.369 41.5335 34.4728 41.845C34.5767 42.1565 34.6805 42.4681 34.7843 42.8834C34.8882 43.1949 35.0958 43.4026 35.4074 43.7141C35.615 43.9217 35.9265 44.0256 36.3419 44.0256C36.7572 44.0256 37.1725 43.8179 37.484 43.5064C37.7955 43.1949 38.0032 42.7796 38.107 42.3642C38.2109 41.9489 38.3147 41.4297 38.3147 40.9105C38.3147 40.1837 38.2109 39.6645 38.107 39.2492ZM42.2604 23.6741C41.9489 23.4665 41.6374 23.3626 41.222 23.3626C40.8067 23.3626 40.4952 23.4665 40.1837 23.6741C39.8722 23.8818 39.6645 24.1933 39.6645 24.5048H42.8834C42.7796 24.2971 42.5719 23.9856 42.2604 23.6741ZM47.1406 39.2492C47.0367 38.8339 46.8291 38.4185 46.5176 38.107C46.2061 37.7955 45.7907 37.5879 45.3754 37.5879C45.0639 37.5879 44.7524 37.6917 44.4409 37.8994C44.2332 38.107 44.0256 38.3147 43.8179 38.73C43.7141 39.0415 43.6102 39.353 43.5064 39.7684C43.4025 40.0799 43.4026 40.4952 43.4026 40.8067C43.4026 41.1182 43.4025 41.5335 43.5064 41.845C43.6102 42.1565 43.7141 42.4681 43.8179 42.8834C44.0256 43.1949 44.1294 43.4026 44.4409 43.7141C44.7524 43.9217 44.9601 44.0256 45.3754 44.0256C45.7907 44.0256 46.2061 43.8179 46.5176 43.5064C46.8291 43.1949 47.0367 42.7796 47.1406 42.3642C47.2444 41.9489 47.3482 41.4297 47.3482 40.9105C47.2444 40.1837 47.2444 39.6645 47.1406 39.2492ZM50.4633 23.6741C50.1518 23.4665 49.8403 23.3626 49.4249 23.3626C49.0096 23.3626 48.5942 23.4665 48.2827 23.6741C47.9712 23.8818 47.7636 24.1933 47.7636 24.5048H50.9824C50.8786 24.2971 50.6709 23.9856 50.4633 23.6741ZM50.4633 23.6741C50.1518 23.4665 49.8403 23.3626 49.4249 23.3626C49.0096 23.3626 48.5942 23.4665 48.2827 23.6741C47.9712 23.8818 47.7636 24.1933 47.7636 24.5048H50.9824C50.8786 24.2971 50.6709 23.9856 50.4633 23.6741ZM47.1406 39.2492C47.0367 38.8339 46.8291 38.4185 46.5176 38.107C46.2061 37.7955 45.7907 37.5879 45.3754 37.5879C45.0639 37.5879 44.7524 37.6917 44.4409 37.8994C44.2332 38.107 44.0256 38.3147 43.8179 38.73C43.7141 39.0415 43.6102 39.353 43.5064 39.7684C43.4025 40.0799 43.4026 40.4952 43.4026 40.8067C43.4026 41.1182 43.4025 41.5335 43.5064 41.845C43.6102 42.1565 43.7141 42.4681 43.8179 42.8834C44.0256 43.1949 44.1294 43.4026 44.4409 43.7141C44.7524 43.9217 44.9601 44.0256 45.3754 44.0256C45.7907 44.0256 46.2061 43.8179 46.5176 43.5064C46.8291 43.1949 47.0367 42.7796 47.1406 42.3642C47.2444 41.9489 47.3482 41.4297 47.3482 40.9105C47.2444 40.1837 47.2444 39.6645 47.1406 39.2492ZM42.2604 23.6741C41.9489 23.4665 41.6374 23.3626 41.222 23.3626C40.8067 23.3626 40.4952 23.4665 40.1837 23.6741C39.8722 23.8818 39.6645 24.1933 39.6645 24.5048H42.8834C42.7796 24.2971 42.5719 23.9856 42.2604 23.6741ZM38.107 39.2492C38.0032 38.8339 37.7955 38.4185 37.484 38.107C37.1725 37.7955 36.7572 37.5879 36.3419 37.5879C36.0303 37.5879 35.7189 37.6917 35.4074 37.8994C35.1997 38.107 34.8882 38.3147 34.7843 38.73C34.5767 39.0415 34.5767 39.353 34.4728 39.7684C34.369 40.0799 34.369 40.4952 34.369 40.8067C34.369 41.1182 34.369 41.5335 34.4728 41.845C34.5767 42.1565 34.6805 42.4681 34.7843 42.8834C34.8882 43.1949 35.0958 43.4026 35.4074 43.7141C35.615 43.9217 35.9265 44.0256 36.3419 44.0256C36.7572 44.0256 37.1725 43.8179 37.484 43.5064C37.7955 43.1949 38.0032 42.7796 38.107 42.3642C38.2109 41.9489 38.3147 41.4297 38.3147 40.9105C38.3147 40.1837 38.2109 39.6645 38.107 39.2492ZM29.0735 39.2492C28.9696 38.8339 28.762 38.4185 28.4505 38.107C28.139 37.7955 27.8275 37.5879 27.3083 37.5879C26.9968 37.5879 26.6853 37.6917 26.4776 37.8994C26.1661 38.107 25.9585 38.3147 25.8546 38.73C25.7508 39.0415 25.647 39.353 25.5431 39.7684C25.4393 40.0799 25.4393 40.4952 25.4393 40.8067C25.4393 41.1182 25.4393 41.5335 25.5431 41.845C25.647 42.1565 25.7508 42.4681 25.8546 42.8834C26.0623 43.1949 26.1661 43.4026 26.4776 43.7141C26.6853 43.9217 26.9968 44.0256 27.3083 44.0256C27.8275 44.0256 28.139 43.8179 28.4505 43.5064C28.762 43.1949 28.9696 42.7796 29.0735 42.3642C29.1773 41.9489 29.2811 41.4297 29.2811 40.9105C29.2811 40.1837 29.1773 39.6645 29.0735 39.2492ZM25.8546 23.9856C25.5431 23.6741 25.024 23.4665 24.5048 23.4665C23.9856 23.4665 23.5703 23.6741 23.2588 23.9856C22.9473 24.2971 22.7396 24.8163 22.7396 25.3355C22.7396 25.8546 22.9473 26.27 23.2588 26.6853C23.5703 26.9968 24.0895 27.2045 24.5048 27.2045C25.024 27.2045 25.4393 26.9968 25.8546 26.6853C26.1661 26.3738 26.3738 25.8546 26.3738 25.3355C26.3738 24.8163 26.1661 24.401 25.8546 23.9856ZM32.5 0C14.5367 0 0 14.5367 0 32.5C0 50.4633 14.5367 65 32.5 65C50.4633 65 65 50.4633 65 32.5C65 14.5367 50.3594 0 32.5 0ZM22.0128 22.9473C22.7396 22.3243 23.5703 21.9089 24.6086 21.9089C25.647 21.9089 26.4776 22.2204 27.2045 22.9473C27.8275 23.5703 28.2428 24.401 28.2428 25.4393C28.2428 26.3738 27.9313 27.2045 27.2045 27.9313C26.4776 28.5543 25.647 28.9696 24.6086 28.9696C23.5703 28.9696 22.7396 28.6581 22.0128 27.9313C21.3898 27.3083 20.9744 26.4776 20.9744 25.4393C20.9744 24.401 21.2859 23.5703 22.0128 22.9473ZM12.1486 19.4169H19.1054V21.0783H13.9137V22.8435H16.5096C17.5479 22.8435 18.3786 23.0511 19.0016 23.6741C19.5208 24.1933 19.8323 24.9201 19.8323 25.7508C19.8323 26.5815 19.5208 27.3083 19.0016 27.8275C18.4824 28.3466 17.6518 28.6581 16.5096 28.6581H12.1486V19.4169ZM21.0783 44.6486C20.4553 45.1677 19.6246 45.4792 18.5863 45.4792C17.7556 45.4792 16.9249 45.2716 16.3019 44.7524C15.6789 44.3371 15.2636 43.6102 15.0559 42.6757H16.8211C17.1326 43.4026 17.6518 43.8179 18.5863 43.8179C19.1054 43.8179 19.4169 43.7141 19.7284 43.5064C20.0399 43.2987 20.1438 42.9872 20.1438 42.6757C20.1438 42.2604 20.0399 42.0527 19.7284 41.845C19.5208 41.6374 19.1054 41.5335 18.5863 41.5335H17.4441V39.8722H18.5863C19.1054 39.8722 19.4169 39.7684 19.7284 39.5607C19.9361 39.353 20.1438 39.0415 20.1438 38.73C20.1438 38.3147 20.0399 38.107 19.7284 37.8994C19.4169 37.6917 19.1054 37.5879 18.5863 37.5879C17.7556 37.5879 17.2364 38.0032 16.9249 38.73H15.0559C15.2636 37.8994 15.6789 37.1725 16.3019 36.7572C16.9249 36.238 17.6518 36.0304 18.4824 36.0304C19.5208 36.0304 20.3514 36.238 20.8706 36.861C21.4936 37.3802 21.8051 38.0032 21.8051 38.8339C21.8051 39.6645 21.3898 40.2875 20.7668 40.7029C21.4936 41.222 21.9089 41.845 21.9089 42.6757C22.0128 43.4026 21.7013 44.0256 21.0783 44.6486ZM30.9425 41.9489C30.8387 42.3642 30.7348 42.7796 30.5271 43.1949C30.3195 43.6102 30.1118 44.0256 29.9042 44.3371C29.6965 44.6486 29.2812 44.9601 28.8658 45.1677C28.3466 45.3754 27.9313 45.4792 27.3083 45.4792C26.6853 45.4792 26.27 45.3754 25.7508 45.1677C25.2316 44.9601 24.9201 44.6486 24.6086 44.3371C24.401 44.0256 24.0895 43.6102 23.9856 43.1949C23.778 42.7796 23.6741 42.3642 23.5703 41.9489C23.4664 41.5335 23.4665 41.1182 23.4665 40.7029C23.4665 40.2875 23.4664 39.8722 23.5703 39.4569C23.6741 39.0415 23.778 38.6262 23.9856 38.2109C24.1933 37.7955 24.401 37.3802 24.7125 37.0687C24.9201 36.7572 25.3355 36.4457 25.7508 36.238C26.1661 36.0304 26.6853 35.9265 27.3083 35.9265C27.9313 35.9265 28.3466 36.0304 28.8658 36.238C29.2812 36.4457 29.6965 36.7572 29.9042 37.0687C30.2157 37.3802 30.4233 37.7955 30.5271 38.2109C30.7348 38.6262 30.8387 39.0415 30.9425 39.4569C31.0463 39.8722 31.0463 40.2875 31.0463 40.7029C31.0463 41.1182 31.0463 41.5335 30.9425 41.9489ZM32.1885 23.5703V24.8163C32.1885 27.4121 31.3578 28.6581 29.5926 28.6581H28.8658V26.9968H29.385C29.5927 26.9968 29.8003 26.893 29.9042 26.7891C30.1118 26.5815 30.1118 26.4776 30.2157 26.1661C30.2157 25.9585 30.3195 25.647 30.3195 25.4393C30.3195 25.2316 30.3195 24.9201 30.3195 24.6086V21.9089H35.9265V28.4505H34.1613V23.3626H32.1885V23.5703ZM39.976 41.9489C39.8722 42.3642 39.7684 42.7796 39.5607 43.1949C39.353 43.6102 39.1454 44.0256 38.9377 44.3371C38.6262 44.6486 38.3147 44.9601 37.7955 45.1677C37.3802 45.3754 36.861 45.4792 36.238 45.4792C35.615 45.4792 35.1997 45.3754 34.6805 45.1677C34.2652 44.9601 33.8498 44.6486 33.6422 44.3371C33.3307 44.0256 33.123 43.6102 32.9153 43.1949C32.7077 42.7796 32.6038 42.3642 32.6038 41.9489C32.5 41.5335 32.5 41.1182 32.5 40.7029C32.5 40.2875 32.5 39.8722 32.6038 39.4569C32.7077 39.0415 32.8115 38.6262 33.0192 38.2109C33.2268 37.7955 33.4345 37.3802 33.6422 37.0687C33.9537 36.7572 34.2652 36.4457 34.6805 36.238C35.1997 36.0304 35.615 35.9265 36.238 35.9265C36.861 35.9265 37.2763 36.0304 37.7955 36.238C38.3147 36.4457 38.6262 36.7572 38.9377 37.0687C39.1454 37.3802 39.4569 37.7955 39.5607 38.2109C39.7684 38.6262 39.8722 39.0415 39.976 39.4569C40.0799 39.8722 40.0799 40.2875 40.0799 40.7029C40.0799 41.1182 40.0799 41.5335 39.976 41.9489ZM38.73 27.8275C38.107 27.2045 37.6917 26.3738 37.6917 25.3355C37.6917 24.401 38.0032 23.5703 38.6262 22.8435C39.2492 22.2204 40.1837 21.8051 41.1182 21.8051C42.1566 21.8051 42.9872 22.1166 43.6102 22.7396C44.2332 23.3626 44.5447 24.1933 44.5447 25.2316C44.5447 25.5431 44.5447 25.7508 44.5447 25.8546H39.4569C39.5607 26.27 39.7684 26.5815 40.0799 26.7891C40.3914 26.9968 40.8067 27.1006 41.222 27.1006C41.845 27.1006 42.2604 26.893 42.5719 26.5815H44.4409C44.2332 27.2045 43.8179 27.7236 43.1949 28.139C42.5719 28.5543 41.9489 28.762 41.222 28.762C40.2875 28.8658 39.4569 28.4505 38.73 27.8275ZM49.0096 41.9489C48.9057 42.3642 48.8019 42.7796 48.5942 43.1949C48.3866 43.6102 48.1789 44.0256 47.9712 44.3371C47.6597 44.6486 47.3482 44.9601 46.9329 45.1677C46.4137 45.3754 45.9984 45.4792 45.3754 45.4792C44.7524 45.4792 44.3371 45.3754 43.8179 45.1677C43.2987 44.9601 42.9872 44.6486 42.6757 44.3371C42.4681 44.0256 42.1565 43.6102 42.0527 43.1949C41.845 42.7796 41.7412 42.3642 41.6374 41.9489C41.5335 41.5335 41.5335 41.1182 41.5335 40.7029C41.5335 40.2875 41.5335 39.8722 41.6374 39.4569C41.7412 39.0415 41.845 38.6262 42.0527 38.2109C42.2604 37.7955 42.4681 37.3802 42.6757 37.0687C42.9872 36.7572 43.2987 36.4457 43.8179 36.238C44.2332 36.0304 44.7524 35.9265 45.3754 35.9265C45.9984 35.9265 46.4137 36.0304 46.9329 36.238C47.3482 36.4457 47.7636 36.7572 47.9712 37.0687C48.1789 37.3802 48.4904 37.7955 48.5942 38.2109C48.8019 38.6262 48.9057 39.0415 49.0096 39.4569C49.1134 39.8722 49.1134 40.2875 49.1134 40.7029C49.1134 41.1182 49.0096 41.5335 49.0096 41.9489ZM52.7476 25.9585H47.6597C47.7636 26.3738 47.9712 26.6853 48.2827 26.893C48.5942 27.1006 49.0096 27.2045 49.4249 27.2045C50.0479 27.2045 50.4632 26.9968 50.7747 26.6853H52.6438C52.4361 27.3083 51.9169 27.8275 51.3978 28.2428C50.8786 28.6581 50.1518 28.8658 49.4249 28.8658C48.3866 28.8658 47.5559 28.5543 46.8291 27.8275C46.1022 27.2045 45.7907 26.3738 45.7907 25.3355C45.7907 24.401 46.1022 23.5703 46.7252 22.8435C47.3482 22.2204 48.1789 21.8051 49.2172 21.8051C50.2556 21.8051 51.0863 22.1166 51.7093 22.7396C52.3323 23.3626 52.6438 24.1933 52.6438 25.2316V25.9585H52.7476ZM49.4249 23.3626C49.0096 23.3626 48.5942 23.4665 48.2827 23.6741C47.9712 23.8818 47.7636 24.1933 47.7636 24.5048H50.9824C50.9824 24.0895 50.7748 23.8818 50.4633 23.5703C50.1518 23.4665 49.8403 23.3626 49.4249 23.3626ZM46.5176 38.0032C46.2061 37.6917 45.7907 37.484 45.3754 37.484C45.0639 37.484 44.7524 37.5879 44.4409 37.7955C44.2332 38.0032 44.0256 38.2109 43.8179 38.6262C43.7141 38.9377 43.6102 39.2492 43.5064 39.6645C43.4025 39.976 43.4026 40.3914 43.4026 40.7029C43.4026 41.0144 43.4025 41.4297 43.5064 41.7412C43.6102 42.0527 43.7141 42.3642 43.8179 42.7796C44.0256 43.0911 44.1294 43.2987 44.4409 43.6102C44.7524 43.8179 44.9601 43.9217 45.3754 43.9217C45.7907 43.9217 46.2061 43.7141 46.5176 43.4026C46.8291 43.0911 47.0367 42.6757 47.1406 42.2604C47.2444 41.845 47.3482 41.3259 47.3482 40.8067C47.3482 40.2875 47.3482 39.7684 47.1406 39.353C47.0367 38.8339 46.8291 38.4185 46.5176 38.0032ZM42.2604 23.6741C41.9489 23.4665 41.6374 23.3626 41.222 23.3626C40.8067 23.3626 40.4952 23.4665 40.1837 23.6741C39.8722 23.8818 39.6645 24.1933 39.6645 24.5048H42.8834C42.7796 24.2971 42.5719 23.9856 42.2604 23.6741ZM37.484 38.0032C37.1725 37.6917 36.7572 37.484 36.3419 37.484C36.0303 37.484 35.7189 37.5879 35.4074 37.7955C35.1997 38.0032 34.8882 38.2109 34.7843 38.6262C34.5767 38.9377 34.5767 39.2492 34.4728 39.6645C34.369 39.976 34.369 40.3914 34.369 40.7029C34.369 41.0144 34.369 41.4297 34.4728 41.7412C34.5767 42.0527 34.6805 42.3642 34.7843 42.7796C34.8882 43.0911 35.0958 43.2987 35.4074 43.6102C35.615 43.8179 35.9265 43.9217 36.3419 43.9217C36.7572 43.9217 37.1725 43.7141 37.484 43.4026C37.7955 43.0911 38.0032 42.6757 38.107 42.2604C38.2109 41.845 38.3147 41.3259 38.3147 40.8067C38.3147 40.2875 38.2109 39.7684 38.107 39.353C38.0032 38.8339 37.7955 38.4185 37.484 38.0032ZM28.4505 38.0032C28.139 37.6917 27.8275 37.484 27.3083 37.484C26.9968 37.484 26.6853 37.5879 26.4776 37.7955C26.1661 38.0032 25.9585 38.2109 25.8546 38.6262C25.7508 38.9377 25.647 39.2492 25.5431 39.6645C25.4393 39.976 25.4393 40.3914 25.4393 40.7029C25.4393 41.0144 25.4393 41.4297 25.5431 41.7412C25.647 42.0527 25.7508 42.3642 25.8546 42.7796C26.0623 43.0911 26.1661 43.2987 26.4776 43.6102C26.6853 43.8179 26.9968 43.9217 27.3083 43.9217C27.8275 43.9217 28.139 43.7141 28.4505 43.4026C28.762 43.0911 28.9696 42.6757 29.0735 42.2604C29.1773 41.845 29.2811 41.3259 29.2811 40.8067C29.2811 40.2875 29.2811 39.7684 29.0735 39.353C28.9696 38.8339 28.762 38.4185 28.4505 38.0032ZM24.5048 27.2045C25.024 27.2045 25.4393 26.9968 25.8546 26.6853C26.1661 26.3738 26.3738 25.8546 26.3738 25.3355C26.3738 24.8163 26.1661 24.2971 25.8546 23.9856C25.5431 23.6741 25.024 23.4665 24.5048 23.4665C23.9856 23.4665 23.5703 23.6741 23.2588 23.9856C22.9473 24.2971 22.7396 24.8163 22.7396 25.3355C22.7396 25.8546 22.9473 26.27 23.2588 26.6853C23.5703 26.9968 23.9856 27.2045 24.5048 27.2045ZM25.8546 23.9856C25.5431 23.6741 25.024 23.4665 24.5048 23.4665C23.9856 23.4665 23.5703 23.6741 23.2588 23.9856C22.9473 24.2971 22.7396 24.8163 22.7396 25.3355C22.7396 25.8546 22.9473 26.27 23.2588 26.6853C23.5703 26.9968 24.0895 27.2045 24.5048 27.2045C25.024 27.2045 25.4393 26.9968 25.8546 26.6853C26.1661 26.3738 26.3738 25.8546 26.3738 25.3355C26.3738 24.8163 26.1661 24.401 25.8546 23.9856ZM29.0735 39.2492C28.9696 38.8339 28.762 38.4185 28.4505 38.107C28.139 37.7955 27.8275 37.5879 27.3083 37.5879C26.9968 37.5879 26.6853 37.6917 26.4776 37.8994C26.1661 38.107 25.9585 38.3147 25.8546 38.73C25.7508 39.0415 25.647 39.353 25.5431 39.7684C25.4393 40.0799 25.4393 40.4952 25.4393 40.8067C25.4393 41.1182 25.4393 41.5335 25.5431 41.845C25.647 42.1565 25.7508 42.4681 25.8546 42.8834C26.0623 43.1949 26.1661 43.4026 26.4776 43.7141C26.6853 43.9217 26.9968 44.0256 27.3083 44.0256C27.8275 44.0256 28.139 43.8179 28.4505 43.5064C28.762 43.1949 28.9696 42.7796 29.0735 42.3642C29.1773 41.9489 29.2811 41.4297 29.2811 40.9105C29.2811 40.1837 29.1773 39.6645 29.0735 39.2492ZM38.107 39.2492C38.0032 38.8339 37.7955 38.4185 37.484 38.107C37.1725 37.7955 36.7572 37.5879 36.3419 37.5879C36.0303 37.5879 35.7189 37.6917 35.4074 37.8994C35.1997 38.107 34.8882 38.3147 34.7843 38.73C34.5767 39.0415 34.5767 39.353 34.4728 39.7684C34.369 40.0799 34.369 40.4952 34.369 40.8067C34.369 41.1182 34.369 41.5335 34.4728 41.845C34.5767 42.1565 34.6805 42.4681 34.7843 42.8834C34.8882 43.1949 35.0958 43.4026 35.4074 43.7141C35.615 43.9217 35.9265 44.0256 36.3419 44.0256C36.7572 44.0256 37.1725 43.8179 37.484 43.5064C37.7955 43.1949 38.0032 42.7796 38.107 42.3642C38.2109 41.9489 38.3147 41.4297 38.3147 40.9105C38.3147 40.1837 38.2109 39.6645 38.107 39.2492ZM42.2604 23.6741C41.9489 23.4665 41.6374 23.3626 41.222 23.3626C40.8067 23.3626 40.4952 23.4665 40.1837 23.6741C39.8722 23.8818 39.6645 24.1933 39.6645 24.5048H42.8834C42.7796 24.2971 42.5719 23.9856 42.2604 23.6741ZM47.1406 39.2492C47.0367 38.8339 46.8291 38.4185 46.5176 38.107C46.2061 37.7955 45.7907 37.5879 45.3754 37.5879C45.0639 37.5879 44.7524 37.6917 44.4409 37.8994C44.2332 38.107 44.0256 38.3147 43.8179 38.73C43.7141 39.0415 43.6102 39.353 43.5064 39.7684C43.4025 40.0799 43.4026 40.4952 43.4026 40.8067C43.4026 41.1182 43.4025 41.5335 43.5064 41.845C43.6102 42.1565 43.7141 42.4681 43.8179 42.8834C44.0256 43.1949 44.1294 43.4026 44.4409 43.7141C44.7524 43.9217 44.9601 44.0256 45.3754 44.0256C45.7907 44.0256 46.2061 43.8179 46.5176 43.5064C46.8291 43.1949 47.0367 42.7796 47.1406 42.3642C47.2444 41.9489 47.3482 41.4297 47.3482 40.9105C47.2444 40.1837 47.2444 39.6645 47.1406 39.2492ZM50.4633 23.6741C50.1518 23.4665 49.8403 23.3626 49.4249 23.3626C49.0096 23.3626 48.5942 23.4665 48.2827 23.6741C47.9712 23.8818 47.7636 24.1933 47.7636 24.5048H50.9824C50.8786 24.2971 50.6709 23.9856 50.4633 23.6741ZM50.4633 23.6741C50.1518 23.4665 49.8403 23.3626 49.4249 23.3626C49.0096 23.3626 48.5942 23.4665 48.2827 23.6741C47.9712 23.8818 47.7636 24.1933 47.7636 24.5048H50.9824C50.8786 24.2971 50.6709 23.9856 50.4633 23.6741ZM47.1406 39.2492C47.0367 38.8339 46.8291 38.4185 46.5176 38.107C46.2061 37.7955 45.7907 37.5879 45.3754 37.5879C45.0639 37.5879 44.7524 37.6917 44.4409 37.8994C44.2332 38.107 44.0256 38.3147 43.8179 38.73C43.7141 39.0415 43.6102 39.353 43.5064 39.7684C43.4025 40.0799 43.4026 40.4952 43.4026 40.8067C43.4026 41.1182 43.4025 41.5335 43.5064 41.845C43.6102 42.1565 43.7141 42.4681 43.8179 42.8834C44.0256 43.1949 44.1294 43.4026 44.4409 43.7141C44.7524 43.9217 44.9601 44.0256 45.3754 44.0256C45.7907 44.0256 46.2061 43.8179 46.5176 43.5064C46.8291 43.1949 47.0367 42.7796 47.1406 42.3642C47.2444 41.9489 47.3482 41.4297 47.3482 40.9105C47.2444 40.1837 47.2444 39.6645 47.1406 39.2492ZM42.2604 23.6741C41.9489 23.4665 41.6374 23.3626 41.222 23.3626C40.8067 23.3626 40.4952 23.4665 40.1837 23.6741C39.8722 23.8818 39.6645 24.1933 39.6645 24.5048H42.8834C42.7796 24.2971 42.5719 23.9856 42.2604 23.6741ZM38.107 39.2492C38.0032 38.8339 37.7955 38.4185 37.484 38.107C37.1725 37.7955 36.7572 37.5879 36.3419 37.5879C36.0303 37.5879 35.7189 37.6917 35.4074 37.8994C35.1997 38.107 34.8882 38.3147 34.7843 38.73C34.5767 39.0415 34.5767 39.353 34.4728 39.7684C34.369 40.0799 34.369 40.4952 34.369 40.8067C34.369 41.1182 34.369 41.5335 34.4728 41.845C34.5767 42.1565 34.6805 42.4681 34.7843 42.8834C34.8882 43.1949 35.0958 43.4026 35.4074 43.7141C35.615 43.9217 35.9265 44.0256 36.3419 44.0256C36.7572 44.0256 37.1725 43.8179 37.484 43.5064C37.7955 43.1949 38.0032 42.7796 38.107 42.3642C38.2109 41.9489 38.3147 41.4297 38.3147 40.9105C38.3147 40.1837 38.2109 39.6645 38.107 39.2492ZM29.0735 39.2492C28.9696 38.8339 28.762 38.4185 28.4505 38.107C28.139 37.7955 27.8275 37.5879 27.3083 37.5879C26.9968 37.5879 26.6853 37.6917 26.4776 37.8994C26.1661 38.107 25.9585 38.3147 25.8546 38.73C25.7508 39.0415 25.647 39.353 25.5431 39.7684C25.4393 40.0799 25.4393 40.4952 25.4393 40.8067C25.4393 41.1182 25.4393 41.5335 25.5431 41.845C25.647 42.1565 25.7508 42.4681 25.8546 42.8834C26.0623 43.1949 26.1661 43.4026 26.4776 43.7141C26.6853 43.9217 26.9968 44.0256 27.3083 44.0256C27.8275 44.0256 28.139 43.8179 28.4505 43.5064C28.762 43.1949 28.9696 42.7796 29.0735 42.3642C29.1773 41.9489 29.2811 41.4297 29.2811 40.9105C29.2811 40.1837 29.1773 39.6645 29.0735 39.2492ZM25.8546 23.9856C25.5431 23.6741 25.024 23.4665 24.5048 23.4665C23.9856 23.4665 23.5703 23.6741 23.2588 23.9856C22.9473 24.2971 22.7396 24.8163 22.7396 25.3355C22.7396 25.8546 22.9473 26.27 23.2588 26.6853C23.5703 26.9968 24.0895 27.2045 24.5048 27.2045C25.024 27.2045 25.4393 26.9968 25.8546 26.6853C26.1661 26.3738 26.3738 25.8546 26.3738 25.3355C26.3738 24.8163 26.1661 24.401 25.8546 23.9856ZM25.8546 23.9856C25.5431 23.6741 25.024 23.4665 24.5048 23.4665C23.9856 23.4665 23.5703 23.6741 23.2588 23.9856C22.9473 24.2971 22.7396 24.8163 22.7396 25.3355C22.7396 25.8546 22.9473 26.27 23.2588 26.6853C23.5703 26.9968 24.0895 27.2045 24.5048 27.2045C25.024 27.2045 25.4393 26.9968 25.8546 26.6853C26.1661 26.3738 26.3738 25.8546 26.3738 25.3355C26.3738 24.8163 26.1661 24.401 25.8546 23.9856ZM29.0735 39.2492C28.9696 38.8339 28.762 38.4185 28.4505 38.107C28.139 37.7955 27.8275 37.5879 27.3083 37.5879C26.9968 37.5879 26.6853 37.6917 26.4776 37.8994C26.1661 38.107 25.9585 38.3147 25.8546 38.73C25.7508 39.0415 25.647 39.353 25.5431 39.7684C25.4393 40.0799 25.4393 40.4952 25.4393 40.8067C25.4393 41.1182 25.4393 41.5335 25.5431 41.845C25.647 42.1565 25.7508 42.4681 25.8546 42.8834C26.0623 43.1949 26.1661 43.4026 26.4776 43.7141C26.6853 43.9217 26.9968 44.0256 27.3083 44.0256C27.8275 44.0256 28.139 43.8179 28.4505 43.5064C28.762 43.1949 28.9696 42.7796 29.0735 42.3642C29.1773 41.9489 29.2811 41.4297 29.2811 40.9105C29.2811 40.1837 29.1773 39.6645 29.0735 39.2492ZM38.107 39.2492C38.0032 38.8339 37.7955 38.4185 37.484 38.107C37.1725 37.7955 36.7572 37.5879 36.3419 37.5879C36.0303 37.5879 35.7189 37.6917 35.4074 37.8994C35.1997 38.107 34.8882 38.3147 34.7843 38.73C34.5767 39.0415 34.5767 39.353 34.4728 39.7684C34.369 40.0799 34.369 40.4952 34.369 40.8067C34.369 41.1182 34.369 41.5335 34.4728 41.845C34.5767 42.1565 34.6805 42.4681 34.7843 42.8834C34.8882 43.1949 35.0958 43.4026 35.4074 43.7141C35.615 43.9217 35.9265 44.0256 36.3419 44.0256C36.7572 44.0256 37.1725 43.8179 37.484 43.5064C37.7955 43.1949 38.0032 42.7796 38.107 42.3642C38.2109 41.9489 38.3147 41.4297 38.3147 40.9105C38.3147 40.1837 38.2109 39.6645 38.107 39.2492ZM42.2604 23.6741C41.9489 23.4665 41.6374 23.3626 41.222 23.3626C40.8067 23.3626 40.4952 23.4665 40.1837 23.6741C39.8722 23.8818 39.6645 24.1933 39.6645 24.5048H42.8834C42.7796 24.2971 42.5719 23.9856 42.2604 23.6741ZM47.1406 39.2492C47.0367 38.8339 46.8291 38.4185 46.5176 38.107C46.2061 37.7955 45.7907 37.5879 45.3754 37.5879C45.0639 37.5879 44.7524 37.6917 44.4409 37.8994C44.2332 38.107 44.0256 38.3147 43.8179 38.73C43.7141 39.0415 43.6102 39.353 43.5064 39.7684C43.4025 40.0799 43.4026 40.4952 43.4026 40.8067C43.4026 41.1182 43.4025 41.5335 43.5064 41.845C43.6102 42.1565 43.7141 42.4681 43.8179 42.8834C44.0256 43.1949 44.1294 43.4026 44.4409 43.7141C44.7524 43.9217 44.9601 44.0256 45.3754 44.0256C45.7907 44.0256 46.2061 43.8179 46.5176 43.5064C46.8291 43.1949 47.0367 42.7796 47.1406 42.3642C47.2444 41.9489 47.3482 41.4297 47.3482 40.9105C47.2444 40.1837 47.2444 39.6645 47.1406 39.2492ZM50.4633 23.6741C50.1518 23.4665 49.8403 23.3626 49.4249 23.3626C49.0096 23.3626 48.5942 23.4665 48.2827 23.6741C47.9712 23.8818 47.7636 24.1933 47.7636 24.5048H50.9824C50.8786 24.2971 50.6709 23.9856 50.4633 23.6741ZM50.4633 23.6741C50.1518 23.4665 49.8403 23.3626 49.4249 23.3626C49.0096 23.3626 48.5942 23.4665 48.2827 23.6741C47.9712 23.8818 47.7636 24.1933 47.7636 24.5048H50.9824C50.8786 24.2971 50.6709 23.9856 50.4633 23.6741ZM47.1406 39.2492C47.0367 38.8339 46.8291 38.4185 46.5176 38.107C46.2061 37.7955 45.7907 37.5879 45.3754 37.5879C45.0639 37.5879 44.7524 37.6917 44.4409 37.8994C44.2332 38.107 44.0256 38.3147 43.8179 38.73C43.7141 39.0415 43.6102 39.353 43.5064 39.7684C43.4025 40.0799 43.4026 40.4952 43.4026 40.8067C43.4026 41.1182 43.4025 41.5335 43.5064 41.845C43.6102 42.1565 43.7141 42.4681 43.8179 42.8834C44.0256 43.1949 44.1294 43.4026 44.4409 43.7141C44.7524 43.9217 44.9601 44.0256 45.3754 44.0256C45.7907 44.0256 46.2061 43.8179 46.5176 43.5064C46.8291 43.1949 47.0367 42.7796 47.1406 42.3642C47.2444 41.9489 47.3482 41.4297 47.3482 40.9105C47.2444 40.1837 47.2444 39.6645 47.1406 39.2492ZM42.2604 23.6741C41.9489 23.4665 41.6374 23.3626 41.222 23.3626C40.8067 23.3626 40.4952 23.4665 40.1837 23.6741C39.8722 23.8818 39.6645 24.1933 39.6645 24.5048H42.8834C42.7796 24.2971 42.5719 23.9856 42.2604 23.6741ZM38.107 39.2492C38.0032 38.8339 37.7955 38.4185 37.484 38.107C37.1725 37.7955 36.7572 37.5879 36.3419 37.5879C36.0303 37.5879 35.7189 37.6917 35.4074 37.8994C35.1997 38.107 34.8882 38.3147 34.7843 38.73C34.5767 39.0415 34.5767 39.353 34.4728 39.7684C34.369 40.0799 34.369 40.4952 34.369 40.8067C34.369 41.1182 34.369 41.5335 34.4728 41.845C34.5767 42.1565 34.6805 42.4681 34.7843 42.8834C34.8882 43.1949 35.0958 43.4026 35.4074 43.7141C35.615 43.9217 35.9265 44.0256 36.3419 44.0256C36.7572 44.0256 37.1725 43.8179 37.484 43.5064C37.7955 43.1949 38.0032 42.7796 38.107 42.3642C38.2109 41.9489 38.3147 41.4297 38.3147 40.9105C38.3147 40.1837 38.2109 39.6645 38.107 39.2492ZM29.0735 39.2492C28.9696 38.8339 28.762 38.4185 28.4505 38.107C28.139 37.7955 27.8275 37.5879 27.3083 37.5879C26.9968 37.5879 26.6853 37.6917 26.4776 37.8994C26.1661 38.107 25.9585 38.3147 25.8546 38.73C25.7508 39.0415 25.647 39.353 25.5431 39.7684C25.4393 40.0799 25.4393 40.4952 25.4393 40.8067C25.4393 41.1182 25.4393 41.5335 25.5431 41.845C25.647 42.1565 25.7508 42.4681 25.8546 42.8834C26.0623 43.1949 26.1661 43.4026 26.4776 43.7141C26.6853 43.9217 26.9968 44.0256 27.3083 44.0256C27.8275 44.0256 28.139 43.8179 28.4505 43.5064C28.762 43.1949 28.9696 42.7796 29.0735 42.3642C29.1773 41.9489 29.2811 41.4297 29.2811 40.9105C29.2811 40.1837 29.1773 39.6645 29.0735 39.2492ZM25.8546 23.9856C25.5431 23.6741 25.024 23.4665 24.5048 23.4665C23.9856 23.4665 23.5703 23.6741 23.2588 23.9856C22.9473 24.2971 22.7396 24.8163 22.7396 25.3355C22.7396 25.8546 22.9473 26.27 23.2588 26.6853C23.5703 26.9968 24.0895 27.2045 24.5048 27.2045C25.024 27.2045 25.4393 26.9968 25.8546 26.6853C26.1661 26.3738 26.3738 25.8546 26.3738 25.3355C26.3738 24.8163 26.1661 24.401 25.8546 23.9856ZM25.8546 23.9856C25.5431 23.6741 25.024 23.4665 24.5048 23.4665C23.9856 23.4665 23.5703 23.6741 23.2588 23.9856C22.9473 24.2971 22.7396 24.8163 22.7396 25.3355C22.7396 25.8546 22.9473 26.27 23.2588 26.6853C23.5703 26.9968 24.0895 27.2045 24.5048 27.2045C25.024 27.2045 25.4393 26.9968 25.8546 26.6853C26.1661 26.3738 26.3738 25.8546 26.3738 25.3355C26.3738 24.8163 26.1661 24.401 25.8546 23.9856ZM29.0735 39.2492C28.9696 38.8339 28.762 38.4185 28.4505 38.107C28.139 37.7955 27.8275 37.5879 27.3083 37.5879C26.9968 37.5879 26.6853 37.6917 26.4776 37.8994C26.1661 38.107 25.9585 38.3147 25.8546 38.73C25.7508 39.0415 25.647 39.353 25.5431 39.7684C25.4393 40.0799 25.4393 40.4952 25.4393 40.8067C25.4393 41.1182 25.4393 41.5335 25.5431 41.845C25.647 42.1565 25.7508 42.4681 25.8546 42.8834C26.0623 43.1949 26.1661 43.4026 26.4776 43.7141C26.6853 43.9217 26.9968 44.0256 27.3083 44.0256C27.8275 44.0256 28.139 43.8179 28.4505 43.5064C28.762 43.1949 28.9696 42.7796 29.0735 42.3642C29.1773 41.9489 29.2811 41.4297 29.2811 40.9105C29.2811 40.1837 29.1773 39.6645 29.0735 39.2492ZM38.107 39.2492C38.0032 38.8339 37.7955 38.4185 37.484 38.107C37.1725 37.7955 36.7572 37.5879 36.3419 37.5879C36.0303 37.5879 35.7189 37.6917 35.4074 37.8994C35.1997 38.107 34.8882 38.3147 34.7843 38.73C34.5767 39.0415 34.5767 39.353 34.4728 39.7684C34.369 40.0799 34.369 40.4952 34.369 40.8067C34.369 41.1182 34.369 41.5335 34.4728 41.845C34.5767 42.1565 34.6805 42.4681 34.7843 42.8834C34.8882 43.1949 35.0958 43.4026 35.4074 43.7141C35.615 43.9217 35.9265 44.0256 36.3419 44.0256C36.7572 44.0256 37.1725 43.8179 37.484 43.5064C37.7955 43.1949 38.0032 42.7796 38.107 42.3642C38.2109 41.9489 38.3147 41.4297 38.3147 40.9105C38.3147 40.1837 38.2109 39.6645 38.107 39.2492ZM42.2604 23.6741C41.9489 23.4665 41.6374 23.3626 41.222 23.3626C40.8067 23.3626 40.4952 23.4665 40.1837 23.6741C39.8722 23.8818 39.6645 24.1933 39.6645 24.5048H42.8834C42.7796 24.2971 42.5719 23.9856 42.2604 23.6741ZM47.1406 39.2492C47.0367 38.8339 46.8291 38.4185 46.5176 38.107C46.2061 37.7955 45.7907 37.5879 45.3754 37.5879C45.0639 37.5879 44.7524 37.6917 44.4409 37.8994C44.2332 38.107 44.0256 38.3147 43.8179 38.73C43.7141 39.0415 43.6102 39.353 43.5064 39.7684C43.4025 40.0799 43.4026 40.4952 43.4026 40.8067C43.4026 41.1182 43.4025 41.5335 43.5064 41.845C43.6102 42.1565 43.7141 42.4681 43.8179 42.8834C44.0256 43.1949 44.1294 43.4026 44.4409 43.7141C44.7524 43.9217 44.9601 44.0256 45.3754 44.0256C45.7907 44.0256 46.2061 43.8179 46.5176 43.5064C46.8291 43.1949 47.0367 42.7796 47.1406 42.3642C47.2444 41.9489 47.3482 41.4297 47.3482 40.9105C47.2444 40.1837 47.2444 39.6645 47.1406 39.2492ZM50.4633 23.6741C50.1518 23.4665 49.8403 23.3626 49.4249 23.3626C49.0096 23.3626 48.5942 23.4665 48.2827 23.6741C47.9712 23.8818 47.7636 24.1933 47.7636 24.5048H50.9824C50.8786 24.2971 50.6709 23.9856 50.4633 23.6741ZM50.4633 23.6741C50.1518 23.4665 49.8403 23.3626 49.4249 23.3626C49.0096 23.3626 48.5942 23.4665 48.2827 23.6741C47.9712 23.8818 47.7636 24.1933 47.7636 24.5048H50.9824C50.8786 24.2971 50.6709 23.9856 50.4633 23.6741ZM47.1406 39.2492C47.0367 38.8339 46.8291 38.4185 46.5176 38.107C46.2061 37.7955 45.7907 37.5879 45.3754 37.5879C45.0639 37.5879 44.7524 37.6917 44.4409 37.8994C44.2332 38.107 44.0256 38.3147 43.8179 38.73C43.7141 39.0415 43.6102 39.353 43.5064 39.7684C43.4025 40.0799 43.4026 40.4952 43.4026 40.8067C43.4026 41.1182 43.4025 41.5335 43.5064 41.845C43.6102 42.1565 43.7141 42.4681 43.8179 42.8834C44.0256 43.1949 44.1294 43.4026 44.4409 43.7141C44.7524 43.9217 44.9601 44.0256 45.3754 44.0256C45.7907 44.0256 46.2061 43.8179 46.5176 43.5064C46.8291 43.1949 47.0367 42.7796 47.1406 42.3642C47.2444 41.9489 47.3482 41.4297 47.3482 40.9105C47.2444 40.1837 47.2444 39.6645 47.1406 39.2492ZM42.2604 23.6741C41.9489 23.4665 41.6374 23.3626 41.222 23.3626C40.8067 23.3626 40.4952 23.4665 40.1837 23.6741C39.8722 23.8818 39.6645 24.1933 39.6645 24.5048H42.8834C42.7796 24.2971 42.5719 23.9856 42.2604 23.6741ZM38.107 39.2492C38.0032 38.8339 37.7955 38.4185 37.484 38.107C37.1725 37.7955 36.7572 37.5879 36.3419 37.5879C36.0303 37.5879 35.7189 37.6917 35.4074 37.8994C35.1997 38.107 34.8882 38.3147 34.7843 38.73C34.5767 39.0415 34.5767 39.353 34.4728 39.7684C34.369 40.0799 34.369 40.4952 34.369 40.8067C34.369 41.1182 34.369 41.5335 34.4728 41.845C34.5767 42.1565 34.6805 42.4681 34.7843 42.8834C34.8882 43.1949 35.0958 43.4026 35.4074 43.7141C35.615 43.9217 35.9265 44.0256 36.3419 44.0256C36.7572 44.0256 37.1725 43.8179 37.484 43.5064C37.7955 43.1949 38.0032 42.7796 38.107 42.3642C38.2109 41.9489 38.3147 41.4297 38.3147 40.9105C38.3147 40.1837 38.2109 39.6645 38.107 39.2492ZM29.0735 39.2492C28.9696 38.8339 28.762 38.4185 28.4505 38.107C28.139 37.7955 27.8275 37.5879 27.3083 37.5879C26.9968 37.5879 26.6853 37.6917 26.4776 37.8994C26.1661 38.107 25.9585 38.3147 25.8546 38.73C25.7508 39.0415 25.647 39.353 25.5431 39.7684C25.4393 40.0799 25.4393 40.4952 25.4393 40.8067C25.4393 41.1182 25.4393 41.5335 25.5431 41.845C25.647 42.1565 25.7508 42.4681 25.8546 42.8834C26.0623 43.1949 26.1661 43.4026 26.4776 43.7141C26.6853 43.9217 26.9968 44.0256 27.3083 44.0256C27.8275 44.0256 28.139 43.8179 28.4505 43.5064C28.762 43.1949 28.9696 42.7796 29.0735 42.3642C29.1773 41.9489 29.2811 41.4297 29.2811 40.9105C29.2811 40.1837 29.1773 39.6645 29.0735 39.2492ZM25.8546 23.9856C25.5431 23.6741 25.024 23.4665 24.5048 23.4665C23.9856 23.4665 23.5703 23.6741 23.2588 23.9856C22.9473 24.2971 22.7396 24.8163 22.7396 25.3355C22.7396 25.8546 22.9473 26.27 23.2588 26.6853C23.5703 26.9968 24.0895 27.2045 24.5048 27.2045C25.024 27.2045 25.4393 26.9968 25.8546 26.6853C26.1661 26.3738 26.3738 25.8546 26.3738 25.3355C26.3738 24.8163 26.1661 24.401 25.8546 23.9856ZM25.8546 23.9856C25.5431 23.6741 25.024 23.4665 24.5048 23.4665C23.9856 23.4665 23.5703 23.6741 23.2588 23.9856C22.9473 24.2971 22.7396 24.8163 22.7396 25.3355C22.7396 25.8546 22.9473 26.27 23.2588 26.6853C23.5703 26.9968 24.0895 27.2045 24.5048 27.2045C25.024 27.2045 25.4393 26.9968 25.8546 26.6853C26.1661 26.3738 26.3738 25.8546 26.3738 25.3355C26.3738 24.8163 26.1661 24.401 25.8546 23.9856ZM29.0735 39.2492C28.9696 38.8339 28.762 38.4185 28.4505 38.107C28.139 37.7955 27.8275 37.5879 27.3083 37.5879C26.9968 37.5879 26.6853 37.6917 26.4776 37.8994C26.1661 38.107 25.9585 38.3147 25.8546 38.73C25.7508 39.0415 25.647 39.353 25.5431 39.7684C25.4393 40.0799 25.4393 40.4952 25.4393 40.8067C25.4393 41.1182 25.4393 41.5335 25.5431 41.845C25.647 42.1565 25.7508 42.4681 25.8546 42.8834C26.0623 43.1949 26.1661 43.4026 26.4776 43.7141C26.6853 43.9217 26.9968 44.0256 27.3083 44.0256C27.8275 44.0256 28.139 43.8179 28.4505 43.5064C28.762 43.1949 28.9696 42.7796 29.0735 42.3642C29.1773 41.9489 29.2811 41.4297 29.2811 40.9105C29.2811 40.1837 29.1773 39.6645 29.0735 39.2492ZM38.107 39.2492C38.0032 38.8339 37.7955 38.4185 37.484 38.107C37.1725 37.7955 36.7572 37.5879 36.3419 37.5879C36.0303 37.5879 35.7189 37.6917 35.4074 37.8994C35.1997 38.107 34.8882 38.3147 34.7843 38.73C34.5767 39.0415 34.5767 39.353 34.4728 39.7684C34.369 40.0799 34.369 40.4952 34.369 40.8067C34.369 41.1182 34.369 41.5335 34.4728 41.845C34.5767 42.1565 34.6805 42.4681 34.7843 42.8834C34.8882 43.1949 35.0958 43.4026 35.4074 43.7141C35.615 43.9217 35.9265 44.0256 36.3419 44.0256C36.7572 44.0256 37.1725 43.8179 37.484 43.5064C37.7955 43.1949 38.0032 42.7796 38.107 42.3642C38.2109 41.9489 38.3147 41.4297 38.3147 40.9105C38.3147 40.1837 38.2109 39.6645 38.107 39.2492ZM42.2604 23.6741C41.9489 23.4665 41.6374 23.3626 41.222 23.3626C40.8067 23.3626 40.4952 23.4665 40.1837 23.6741C39.8722 23.8818 39.6645 24.1933 39.6645 24.5048H42.8834C42.7796 24.2971 42.5719 23.9856 42.2604 23.6741ZM47.1406 39.2492C47.0367 38.8339 46.8291 38.4185 46.5176 38.107C46.2061 37.7955 45.7907 37.5879 45.3754 37.5879C45.0639 37.5879 44.7524 37.6917 44.4409 37.8994C44.2332 38.107 44.0256 38.3147 43.8179 38.73C43.7141 39.0415 43.6102 39.353 43.5064 39.7684C43.4025 40.0799 43.4026 40.4952 43.4026 40.8067C43.4026 41.1182 43.4025 41.5335 43.5064 41.845C43.6102 42.1565 43.7141 42.4681 43.8179 42.8834C44.0256 43.1949 44.1294 43.4026 44.4409 43.7141C44.7524 43.9217 44.9601 44.0256 45.3754 44.0256C45.7907 44.0256 46.2061 43.8179 46.5176 43.5064C46.8291 43.1949 47.0367 42.7796 47.1406 42.3642C47.2444 41.9489 47.3482 41.4297 47.3482 40.9105C47.2444 40.1837 47.2444 39.6645 47.1406 39.2492ZM50.4633 23.6741C50.1518 23.4665 49.8403 23.3626 49.4249 23.3626C49.0096 23.3626 48.5942 23.4665 48.2827 23.6741C47.9712 23.8818 47.7636 24.1933 47.7636 24.5048H50.9824C50.8786 24.2971 50.6709 23.9856 50.4633 23.6741ZM50.4633 23.6741C50.1518 23.4665 49.8403 23.3626 49.4249 23.3626C49.0096 23.3626 48.5942 23.4665 48.2827 23.6741C47.9712 23.8818 47.7636 24.1933 47.7636 24.5048H50.9824C50.8786 24.2971 50.6709 23.9856 50.4633 23.6741ZM47.1406 39.2492C47.0367 38.8339 46.8291 38.4185 46.5176 38.107C46.2061 37.7955 45.7907 37.5879 45.3754 37.5879C45.0639 37.5879 44.7524 37.6917 44.4409 37.8994C44.2332 38.107 44.0256 38.3147 43.8179 38.73C43.7141 39.0415 43.6102 39.353 43.5064 39.7684C43.4025 40.0799 43.4026 40.4952 43.4026 40.8067C43.4026 41.1182 43.4025 41.5335 43.5064 41.845C43.6102 42.1565 43.7141 42.4681 43.8179 42.8834C44.0256 43.1949 44.1294 43.4026 44.4409 43.7141C44.7524 43.9217 44.9601 44.0256 45.3754 44.0256C45.7907 44.0256 46.2061 43.8179 46.5176 43.5064C46.8291 43.1949 47.0367 42.7796 47.1406 42.3642C47.2444 41.9489 47.3482 41.4297 47.3482 40.9105C47.2444 40.1837 47.2444 39.6645 47.1406 39.2492ZM42.2604 23.6741C41.9489 23.4665 41.6374 23.3626 41.222 23.3626C40.8067 23.3626 40.4952 23.4665 40.1837 23.6741C39.8722 23.8818 39.6645 24.1933 39.6645 24.5048H42.8834C42.7796 24.2971 42.5719 23.9856 42.2604 23.6741ZM38.107 39.2492C38.0032 38.8339 37.7955 38.4185 37.484 38.107C37.1725 37.7955 36.7572 37.5879 36.3419 37.5879C36.0303 37.5879 35.7189 37.6917 35.4074 37.8994C35.1997 38.107 34.8882 38.3147 34.7843 38.73C34.5767 39.0415 34.5767 39.353 34.4728 39.7684C34.369 40.0799 34.369 40.4952 34.369 40.8067C34.369 41.1182 34.369 41.5335 34.4728 41.845C34.5767 42.1565 34.6805 42.4681 34.7843 42.8834C34.8882 43.1949 35.0958 43.4026 35.4074 43.7141C35.615 43.9217 35.9265 44.0256 36.3419 44.0256C36.7572 44.0256 37.1725 43.8179 37.484 43.5064C37.7955 43.1949 38.0032 42.7796 38.107 42.3642C38.2109 41.9489 38.3147 41.4297 38.3147 40.9105C38.3147 40.1837 38.2109 39.6645 38.107 39.2492ZM29.0735 39.2492C28.9696 38.8339 28.762 38.4185 28.4505 38.107C28.139 37.7955 27.8275 37.5879 27.3083 37.5879C26.9968 37.5879 26.6853 37.6917 26.4776 37.8994C26.1661 38.107 25.9585 38.3147 25.8546 38.73C25.7508 39.0415 25.647 39.353 25.5431 39.7684C25.4393 40.0799 25.4393 40.4952 25.4393 40.8067C25.4393 41.1182 25.4393 41.5335 25.5431 41.845C25.647 42.1565 25.7508 42.4681 25.8546 42.8834C26.0623 43.1949 26.1661 43.4026 26.4776 43.7141C26.6853 43.9217 26.9968 44.0256 27.3083 44.0256C27.8275 44.0256 28.139 43.8179 28.4505 43.5064C28.762 43.1949 28.9696 42.7796 29.0735 42.3642C29.1773 41.9489 29.2811 41.4297 29.2811 40.9105C29.2811 40.1837 29.1773 39.6645 29.0735 39.2492ZM25.8546 23.9856C25.5431 23.6741 25.024 23.4665 24.5048 23.4665C23.9856 23.4665 23.5703 23.6741 23.2588 23.9856C22.9473 24.2971 22.7396 24.8163 22.7396 25.3355C22.7396 25.8546 22.9473 26.27 23.2588 26.6853C23.5703 26.9968 24.0895 27.2045 24.5048 27.2045C25.024 27.2045 25.4393 26.9968 25.8546 26.6853C26.1661 26.3738 26.3738 25.8546 26.3738 25.3355C26.3738 24.8163 26.1661 24.401 25.8546 23.9856ZM25.8546 23.9856C25.5431 23.6741 25.024 23.4665 24.5048 23.4665C23.9856 23.4665 23.5703 23.6741 23.2588 23.9856C22.9473 24.2971 22.7396 24.8163 22.7396 25.3355C22.7396 25.8546 22.9473 26.27 23.2588 26.6853C23.5703 26.9968 24.0895 27.2045 24.5048 27.2045C25.024 27.2045 25.4393 26.9968 25.8546 26.6853C26.1661 26.3738 26.3738 25.8546 26.3738 25.3355C26.3738 24.8163 26.1661 24.401 25.8546 23.9856ZM29.0735 39.2492C28.9696 38.8339 28.762 38.4185 28.4505 38.107C28.139 37.7955 27.8275 37.5879 27.3083 37.5879C26.9968 37.5879 26.6853 37.6917 26.4776 37.8994C26.1661 38.107 25.9585 38.3147 25.8546 38.73C25.7508 39.0415 25.647 39.353 25.5431 39.7684C25.4393 40.0799 25.4393 40.4952 25.4393 40.8067C25.4393 41.1182 25.4393 41.5335 25.5431 41.845C25.647 42.1565 25.7508 42.4681 25.8546 42.8834C26.0623 43.1949 26.1661 43.4026 26.4776 43.7141C26.6853 43.9217 26.9968 44.0256 27.3083 44.0256C27.8275 44.0256 28.139 43.8179 28.4505 43.5064C28.762 43.1949 28.9696 42.7796 29.0735 42.3642C29.1773 41.9489 29.2811 41.4297 29.2811 40.9105C29.2811 40.1837 29.1773 39.6645 29.0735 39.2492ZM38.107 39.2492C38.0032 38.8339 37.7955 38.4185 37.484 38.107C37.1725 37.7955 36.7572 37.5879 36.3419 37.5879C36.0303 37.5879 35.7189 37.6917 35.4074 37.8994C35.1997 38.107 34.8882 38.3147 34.7843 38.73C34.5767 39.0415 34.5767 39.353 34.4728 39.7684C34.369 40.0799 34.369 40.4952 34.369 40.8067C34.369 41.1182 34.369 41.5335 34.4728 41.845C34.5767 42.1565 34.6805 42.4681 34.7843 42.8834C34.8882 43.1949 35.0958 43.4026 35.4074 43.7141C35.615 43.9217 35.9265 44.0256 36.3419 44.0256C36.7572 44.0256 37.1725 43.8179 37.484 43.5064C37.7955 43.1949 38.0032 42.7796 38.107 42.3642C38.2109 41.9489 38.3147 41.4297 38.3147 40.9105C38.3147 40.1837 38.2109 39.6645 38.107 39.2492ZM42.2604 23.6741C41.9489 23.4665 41.6374 23.3626 41.222 23.3626C40.8067 23.3626 40.4952 23.4665 40.1837 23.6741C39.8722 23.8818 39.6645 24.1933 39.6645 24.5048H42.8834C42.7796 24.2971 42.5719 23.9856 42.2604 23.6741ZM47.1406 39.2492C47.0367 38.8339 46.8291 38.4185 46.5176 38.107C46.2061 37.7955 45.7907 37.5879 45.3754 37.5879C45.0639 37.5879 44.7524 37.6917 44.4409 37.8994C44.2332 38.107 44.0256 38.3147 43.8179 38.73C43.7141 39.0415 43.6102 39.353 43.5064 39.7684C43.4025 40.0799 43.4026 40.4952 43.4026 40.8067C43.4026 41.1182 43.4025 41.5335 43.5064 41.845C43.6102 42.1565 43.7141 42.4681 43.8179 42.8834C44.0256 43.1949 44.1294 43.4026 44.4409 43.7141C44.7524 43.9217 44.9601 44.0256 45.3754 44.0256C45.7907 44.0256 46.2061 43.8179 46.5176 43.5064C46.8291 43.1949 47.0367 42.7796 47.1406 42.3642C47.2444 41.9489 47.3482 41.4297 47.3482 40.9105C47.2444 40.1837 47.2444 39.6645 47.1406 39.2492ZM50.4633 23.6741C50.1518 23.4665 49.8403 23.3626 49.4249 23.3626C49.0096 23.3626 48.5942 23.4665 48.2827 23.6741C47.9712 23.8818 47.7636 24.1933 47.7636 24.5048H50.9824C50.8786 24.2971 50.6709 23.9856 50.4633 23.6741ZM50.4633 23.6741C50.1518 23.4665 49.8403 23.3626 49.4249 23.3626C49.0096 23.3626 48.5942 23.4665 48.2827 23.6741C47.9712 23.8818 47.7636 24.1933 47.7636 24.5048H50.9824C50.8786 24.2971 50.6709 23.9856 50.4633 23.6741ZM47.1406 39.2492C47.0367 38.8339 46.8291 38.4185 46.5176 38.107C46.2061 37.7955 45.7907 37.5879 45.3754 37.5879C45.0639 37.5879 44.7524 37.6917 44.4409 37.8994C44.2332 38.107 44.0256 38.3147 43.8179 38.73C43.7141 39.0415 43.6102 39.353 43.5064 39.7684C43.4025 40.0799 43.4026 40.4952 43.4026 40.8067C43.4026 41.1182 43.4025 41.5335 43.5064 41.845C43.6102 42.1565 43.7141 42.4681 43.8179 42.8834C44.0256 43.1949 44.1294 43.4026 44.4409 43.7141C44.7524 43.9217 44.9601 44.0256 45.3754 44.0256C45.7907 44.0256 46.2061 43.8179 46.5176 43.5064C46.8291 43.1949 47.0367 42.7796 47.1406 42.3642C47.2444 41.9489 47.3482 41.4297 47.3482 40.9105C47.2444 40.1837 47.2444 39.6645 47.1406 39.2492ZM42.2604 23.6741C41.9489 23.4665 41.6374 23.3626 41.222 23.3626C40.8067 23.3626 40.4952 23.4665 40.1837 23.6741C39.8722 23.8818 39.6645 24.1933 39.6645 24.5048H42.8834C42.7796 24.2971 42.5719 23.9856 42.2604 23.6741ZM38.107 39.2492C38.0032 38.8339 37.7955 38.4185 37.484 38.107C37.1725 37.7955 36.7572 37.5879 36.3419 37.5879C36.0303 37.5879 35.7189 37.6917 35.4074 37.8994C35.1997 38.107 34.8882 38.3147 34.7843 38.73C34.5767 39.0415 34.5767 39.353 34.4728 39.7684C34.369 40.0799 34.369 40.4952 34.369 40.8067C34.369 41.1182 34.369 41.5335 34.4728 41.845C34.5767 42.1565 34.6805 42.4681 34.7843 42.8834C34.8882 43.1949 35.0958 43.4026 35.4074 43.7141C35.615 43.9217 35.9265 44.0256 36.3419 44.0256C36.7572 44.0256 37.1725 43.8179 37.484 43.5064C37.7955 43.1949 38.0032 42.7796 38.107 42.3642C38.2109 41.9489 38.3147 41.4297 38.3147 40.9105C38.3147 40.1837 38.2109 39.6645 38.107 39.2492ZM29.0735 39.2492C28.9696 38.8339 28.762 38.4185 28.4505 38.107C28.139 37.7955 27.8275 37.5879 27.3083 37.5879C26.9968 37.5879 26.6853 37.6917 26.4776 37.8994C26.1661 38.107 25.9585 38.3147 25.8546 38.73C25.7508 39.0415 25.647 39.353 25.5431 39.7684C25.4393 40.0799 25.4393 40.4952 25.4393 40.8067C25.4393 41.1182 25.4393 41.5335 25.5431 41.845C25.647 42.1565 25.7508 42.4681 25.8546 42.8834C26.0623 43.1949 26.1661 43.4026 26.4776 43.7141C26.6853 43.9217 26.9968 44.0256 27.3083 44.0256C27.8275 44.0256 28.139 43.8179 28.4505 43.5064C28.762 43.1949 28.9696 42.7796 29.0735 42.3642C29.1773 41.9489 29.2811 41.4297 29.2811 40.9105C29.2811 40.1837 29.1773 39.6645 29.0735 39.2492ZM25.8546 23.9856C25.5431 23.6741 25.024 23.4665 24.5048 23.4665C23.9856 23.4665 23.5703 23.6741 23.2588 23.9856C22.9473 24.2971 22.7396 24.8163 22.7396 25.3355C22.7396 25.8546 22.9473 26.27 23.2588 26.6853C23.5703 26.9968 24.0895 27.2045 24.5048 27.2045C25.024 27.2045 25.4393 26.9968 25.8546 26.6853C26.1661 26.3738 26.3738 25.8546 26.3738 25.3355C26.3738 24.8163 26.1661 24.401 25.8546 23.9856ZM25.8546 23.9856C25.5431 23.6741 25.024 23.4665 24.5048 23.4665C23.9856 23.4665 23.5703 23.6741 23.2588 23.9856C22.9473 24.2971 22.7396 24.8163 22.7396 25.3355C22.7396 25.8546 22.9473 26.27 23.2588 26.6853C23.5703 26.9968 24.0895 27.2045 24.5048 27.2045C25.024 27.2045 25.4393 26.9968 25.8546 26.6853C26.1661 26.3738 26.3738 25.8546 26.3738 25.3355C26.3738 24.8163 26.1661 24.401 25.8546 23.9856ZM29.0735 39.2492C28.9696 38.8339 28.762 38.4185 28.4505 38.107C28.139 37.7955 27.8275 37.5879 27.3083 37.5879C26.9968 37.5879 26.6853 37.6917 26.4776 37.8994C26.1661 38.107 25.9585 38.3147 25.8546 38.73C25.7508 39.0415 25.647 39.353 25.5431 39.7684C25.4393 40.0799 25.4393 40.4952 25.4393 40.8067C25.4393 41.1182 25.4393 41.5335 25.5431 41.845C25.647 42.1565 25.7508 42.4681 25.8546 42.8834C26.0623 43.1949 26.1661 43.4026 26.4776 43.7141C26.6853 43.9217 26.9968 44.0256 27.3083 44.0256C27.8275 44.0256 28.139 43.8179 28.4505 43.5064C28.762 43.1949 28.9696 42.7796 29.0735 42.3642C29.1773 41.9489 29.2811 41.4297 29.2811 40.9105C29.2811 40.1837 29.1773 39.6645 29.0735 39.2492ZM38.107 39.2492C38.0032 38.8339 37.7955 38.4185 37.484 38.107C37.1725 37.7955 36.7572 37.5879 36.3419 37.5879C36.0303 37.5879 35.7189 37.6917 35.4074 37.8994C35.1997 38.107 34.8882 38.3147 34.7843 38.73C34.5767 39.0415 34.5767 39.353 34.4728 39.7684C34.369 40.0799 34.369 40.4952 34.369 40.8067C34.369 41.1182 34.369 41.5335 34.4728 41.845C34.5767 42.1565 34.6805 42.4681 34.7843 42.8834C34.8882 43.1949 35.0958 43.4026 35.4074 43.7141C35.615 43.9217 35.9265 44.0256 36.3419 44.0256C36.7572 44.0256 37.1725 43.8179 37.484 43.5064C37.7955 43.1949 38.0032 42.7796 38.107 42.3642C38.2109 41.9489 38.3147 41.4297 38.3147 40.9105C38.3147 40.1837 38.2109 39.6645 38.107 39.2492ZM42.2604 23.6741C41.9489 23.4665 41.6374 23.3626 41.222 23.3626C40.8067 23.3626 40.4952 23.4665 40.1837 23.6741C39.8722 23.8818 39.6645 24.1933 39.6645 24.5048H42.8834C42.7796 24.2971 42.5719 23.9856 42.2604 23.6741ZM47.1406 39.2492C47.0367 38.8339 46.8291 38.4185 46.5176 38.107C46.2061 37.7955 45.7907 37.5879 45.3754 37.5879C45.0639 37.5879 44.7524 37.6917 44.4409 37.8994C44.2332 38.107 44.0256 38.3147 43.8179 38.73C43.7141 39.0415 43.6102 39.353 43.5064 39.7684C43.4025 40.0799 43.4026 40.4952 43.4026 40.8067C43.4026 41.1182 43.4025 41.5335 43.5064 41.845C43.6102 42.1565 43.7141 42.4681 43.8179 42.8834C44.0256 43.1949 44.1294 43.4026 44.4409 43.7141C44.7524 43.9217 44.9601 44.0256 45.3754 44.0256C45.7907 44.0256 46.2061 43.8179 46.5176 43.5064C46.8291 43.1949 47.0367 42.7796 47.1406 42.3642C47.2444 41.9489 47.3482 41.4297 47.3482 40.9105C47.2444 40.1837 47.2444 39.6645 47.1406 39.2492ZM50.4633 23.6741C50.1518 23.4665 49.8403 23.3626 49.4249 23.3626C49.0096 23.3626 48.5942 23.4665 48.2827 23.6741C47.9712 23.8818 47.7636 24.1933 47.7636 24.5048H50.9824C50.8786 24.2971 50.6709 23.9856 50.4633 23.6741ZM50.4633 23.6741C50.1518 23.4665 49.8403 23.3626 49.4249 23.3626C49.0096 23.3626 48.5942 23.4665 48.2827 23.6741C47.9712 23.8818 47.7636 24.1933 47.7636 24.5048H50.9824C50.8786 24.2971 50.6709 23.9856 50.4633 23.6741ZM47.1406 39.2492C47.0367 38.8339 46.8291 38.4185 46.5176 38.107C46.2061 37.7955 45.7907 37.5879 45.3754 37.5879C45.0639 37.5879 44.7524 37.6917 44.4409 37.8994C44.2332 38.107 44.0256 38.3147 43.8179 38.73C43.7141 39.0415 43.6102 39.353 43.5064 39.7684C43.4025 40.0799 43.4026 40.4952 43.4026 40.8067C43.4026 41.1182 43.4025 41.5335 43.5064 41.845C43.6102 42.1565 43.7141 42.4681 43.8179 42.8834C44.0256 43.1949 44.1294 43.4026 44.4409 43.7141C44.7524 43.9217 44.9601 44.0256 45.3754 44.0256C45.7907 44.0256 46.2061 43.8179 46.5176 43.5064C46.8291 43.1949 47.0367 42.7796 47.1406 42.3642C47.2444 41.9489 47.3482 41.4297 47.3482 40.9105C47.2444 40.1837 47.2444 39.6645 47.1406 39.2492ZM42.2604 23.6741C41.9489 23.4665 41.6374 23.3626 41.222 23.3626C40.8067 23.3626 40.4952 23.4665 40.1837 23.6741C39.8722 23.8818 39.6645 24.1933 39.6645 24.5048H42.8834C42.7796 24.2971 42.5719 23.9856 42.2604 23.6741ZM38.107 39.2492C38.0032 38.8339 37.7955 38.4185 37.484 38.107C37.1725 37.7955 36.7572 37.5879 36.3419 37.5879C36.0303 37.5879 35.7189 37.6917 35.4074 37.8994C35.1997 38.107 34.8882 38.3147 34.7843 38.73C34.5767 39.0415 34.5767 39.353 34.4728 39.7684C34.369 40.0799 34.369 40.4952 34.369 40.8067C34.369 41.1182 34.369 41.5335 34.4728 41.845C34.5767 42.1565 34.6805 42.4681 34.7843 42.8834C34.8882 43.1949 35.0958 43.4026 35.4074 43.7141C35.615 43.9217 35.9265 44.0256 36.3419 44.0256C36.7572 44.0256 37.1725 43.8179 37.484 43.5064C37.7955 43.1949 38.0032 42.7796 38.107 42.3642C38.2109 41.9489 38.3147 41.4297 38.3147 40.9105C38.3147 40.1837 38.2109 39.6645 38.107 39.2492ZM29.0735 39.2492C28.9696 38.8339 28.762 38.4185 28.4505 38.107C28.139 37.7955 27.8275 37.5879 27.3083 37.5879C26.9968 37.5879 26.6853 37.6917 26.4776 37.8994C26.1661 38.107 25.9585 38.3147 25.8546 38.73C25.7508 39.0415 25.647 39.353 25.5431 39.7684C25.4393 40.0799 25.4393 40.4952 25.4393 40.8067C25.4393 41.1182 25.4393 41.5335 25.5431 41.845C25.647 42.1565 25.7508 42.4681 25.8546 42.8834C26.0623 43.1949 26.1661 43.4026 26.4776 43.7141C26.6853 43.9217 26.9968 44.0256 27.3083 44.0256C27.8275 44.0256 28.139 43.8179 28.4505 43.5064C28.762 43.1949 28.9696 42.7796 29.0735 42.3642C29.1773 41.9489 29.2811 41.4297 29.2811 40.9105C29.2811 40.1837 29.1773 39.6645 29.0735 39.2492ZM25.8546 23.9856C25.5431 23.6741 25.024 23.4665 24.5048 23.4665C23.9856 23.4665 23.5703 23.6741 23.2588 23.9856C22.9473 24.2971 22.7396 24.8163 22.7396 25.3355C22.7396 25.8546 22.9473 26.27 23.2588 26.6853C23.5703 26.9968 24.0895 27.2045 24.5048 27.2045C25.024 27.2045 25.4393 26.9968 25.8546 26.6853C26.1661 26.3738 26.3738 25.8546 26.3738 25.3355C26.3738 24.8163 26.1661 24.401 25.8546 23.9856ZM25.8546 23.9856C25.5431 23.6741 25.024 23.4665 24.5048 23.4665C23.9856 23.4665 23.5703 23.6741 23.2588 23.9856C22.9473 24.2971 22.7396 24.8163 22.7396 25.3355C22.7396 25.8546 22.9473 26.27 23.2588 26.6853C23.5703 26.9968 24.0895 27.2045 24.5048 27.2045C25.024 27.2045 25.4393 26.9968 25.8546 26.6853C26.1661 26.3738 26.3738 25.8546 26.3738 25.3355C26.3738 24.8163 26.1661 24.401 25.8546 23.9856ZM38.107 39.2492C38.0032 38.8339 37.7955 38.4185 37.484 38.107C37.1725 37.7955 36.7572 37.5879 36.3419 37.5879C36.0303 37.5879 35.7189 37.6917 35.4074 37.8994C35.1997 38.107 34.8882 38.3147 34.7843 38.73C34.5767 39.0415 34.5767 39.353 34.4728 39.7684C34.369 40.0799 34.369 40.4952 34.369 40.8067C34.369 41.1182 34.369 41.5335 34.4728 41.845C34.5767 42.1565 34.6805 42.4681 34.7843 42.8834C34.8882 43.1949 35.0958 43.4026 35.4074 43.7141C35.615 43.9217 35.9265 44.0256 36.3419 44.0256C36.7572 44.0256 37.1725 43.8179 37.484 43.5064C37.7955 43.1949 38.0032 42.7796 38.107 42.3642C38.2109 41.9489 38.3147 41.4297 38.3147 40.9105C38.3147 40.1837 38.2109 39.6645 38.107 39.2492ZM42.2604 23.6741C41.9489 23.4665 41.6374 23.3626 41.222 23.3626C40.8067 23.3626 40.4952 23.4665 40.1837 23.6741C39.8722 23.8818 39.6645 24.1933 39.6645 24.5048H42.8834C42.7796 24.2971 42.5719 23.9856 42.2604 23.6741ZM47.1406 39.2492C47.0367 38.8339 46.8291 38.4185 46.5176 38.107C46.2061 37.7955 45.7907 37.5879 45.3754 37.5879C45.0639 37.5879 44.7524 37.6917 44.4409 37.8994C44.2332 38.107 44.0256 38.3147 43.8179 38.73C43.7141 39.0415 43.6102 39.353 43.5064 39.7684C43.4025 40.0799 43.4026 40.4952 43.4026 40.8067C43.4026 41.1182 43.4025 41.5335 43.5064 41.845C43.6102 42.1565 43.7141 42.4681 43.8179 42.8834C44.0256 43.1949 44.1294 43.4026 44.4409 43.7141C44.7524 43.9217 44.9601 44.0256 45.3754 44.0256C45.7907 44.0256 46.2061 43.8179 46.5176 43.5064C46.8291 43.1949 47.0367 42.7796 47.1406 42.3642C47.2444 41.9489 47.3482 41.4297 47.3482 40.9105C47.2444 40.1837 47.2444 39.6645 47.1406 39.2492ZM50.4633 23.6741C50.1518 23.4665 49.8403 23.3626 49.4249 23.3626C49.0096 23.3626 48.5942 23.4665 48.2827 23.6741C47.9712 23.8818 47.7636 24.1933 47.7636 24.5048H50.9824C50.8786 24.2971 50.6709 23.9856 50.4633 23.6741ZM50.4633 23.6741C50.1518 23.4665 49.8403 23.3626 49.4249 23.3626C49.0096 23.3626 48.5942 23.4665 48.2827 23.6741C47.9712 23.8818 47.7636 24.1933 47.7636 24.5048H50.9824C50.8786 24.2971 50.6709 23.9856 50.4633 23.6741ZM47.1406 39.2492C47.0367 38.8339 46.8291 38.4185 46.5176 38.107C46.2061 37.7955 45.7907 37.5879 45.3754 37.5879C45.0639 37.5879 44.7524 37.6917 44.4409 37.8994C44.2332 38.107 44.0256 38.3147 43.8179 38.73C43.7141 39.0415 43.6102 39.353 43.5064 39.7684C43.4025 40.0799 43.4026 40.4952 43.4026 40.8067C43.4026 41.1182 43.4025 41.5335 43.5064 41.845C43.6102 42.1565 43.7141 42.4681 43.8179 42.8834C44.0256 43.1949 44.1294 43.4026 44.4409 43.7141C44.7524 43.9217 44.9601 44.0256 45.3754 44.0256C45.7907 44.0256 46.2061 43.8179 46.5176 43.5064C46.8291 43.1949 47.0367 42.7796 47.1406 42.3642C47.2444 41.9489 47.3482 41.4297 47.3482 40.9105C47.2444 40.1837 47.2444 39.6645 47.1406 39.2492ZM42.2604 23.6741C41.9489 23.4665 41.6374 23.3626 41.222 23.3626C40.8067 23.3626 40.4952 23.4665 40.1837 23.6741C39.8722 23.8818 39.6645 24.1933 39.6645 24.5048H42.8834C42.7796 24.2971 42.5719 23.9856 42.2604 23.6741ZM38.107 39.2492C38.0032 38.8339 37.7955 38.4185 37.484 38.107C37.1725 37.7955 36.7572 37.5879 36.3419 37.5879C36.0303 37.5879 35.7189 37.6917 35.4074 37.8994C35.1997 38.107 34.8882 38.3147 34.7843 38.73C34.5767 39.0415 34.5767 39.353 34.4728 39.7684C34.369 40.0799 34.369 40.4952 34.369 40.8067C34.369 41.1182 34.369 41.5335 34.4728 41.845C34.5767 42.1565 34.6805 42.4681 34.7843 42.8834C34.8882 43.1949 35.0958 43.4026 35.4074 43.7141C35.615 43.9217 35.9265 44.0256 36.3419 44.0256C36.7572 44.0256 37.1725 43.8179 37.484 43.5064C37.7955 43.1949 38.0032 42.7796 38.107 42.3642C38.2109 41.9489 38.3147 41.4297 38.3147 40.9105C38.3147 40.1837 38.2109 39.6645 38.107 39.2492ZM25.8546 23.9856C25.5431 23.6741 25.024 23.4665 24.5048 23.4665C23.9856 23.4665 23.5703 23.6741 23.2588 23.9856C22.9473 24.2971 22.7396 24.8163 22.7396 25.3355C22.7396 25.8546 22.9473 26.27 23.2588 26.6853C23.5703 26.9968 24.0895 27.2045 24.5048 27.2045C25.024 27.2045 25.4393 26.9968 25.8546 26.6853C26.1661 26.3738 26.3738 25.8546 26.3738 25.3355C26.3738 24.8163 26.1661 24.401 25.8546 23.9856ZM25.8546 23.9856C25.5431 23.6741 25.024 23.4665 24.5048 23.4665C23.9856 23.4665 23.5703 23.6741 23.2588 23.9856C22.9473 24.2971 22.7396 24.8163 22.7396 25.3355C22.7396 25.8546 22.9473 26.27 23.2588 26.6853C23.5703 26.9968 24.0895 27.2045 24.5048 27.2045C25.024 27.2045 25.4393 26.9968 25.8546 26.6853C26.1661 26.3738 26.3738 25.8546 26.3738 25.3355C26.3738 24.8163 26.1661 24.401 25.8546 23.9856ZM42.2604 23.6741C41.9489 23.4665 41.6374 23.3626 41.222 23.3626C40.8067 23.3626 40.4952 23.4665 40.1837 23.6741C39.8722 23.8818 39.6645 24.1933 39.6645 24.5048H42.8834C42.7796 24.2971 42.5719 23.9856 42.2604 23.6741ZM50.4633 23.6741C50.1518 23.4665 49.8403 23.3626 49.4249 23.3626C49.0096 23.3626 48.5942 23.4665 48.2827 23.6741C47.9712 23.8818 47.7636 24.1933 47.7636 24.5048H50.9824C50.8786 24.2971 50.6709 23.9856 50.4633 23.6741ZM50.4633 23.6741C50.1518 23.4665 49.8403 23.3626 49.4249 23.3626C49.0096 23.3626 48.5942 23.4665 48.2827 23.6741C47.9712 23.8818 47.7636 24.1933 47.7636 24.5048H50.9824C50.8786 24.2971 50.6709 23.9856 50.4633 23.6741ZM42.2604 23.6741C41.9489 23.4665 41.6374 23.3626 41.222 23.3626C40.8067 23.3626 40.4952 23.4665 40.1837 23.6741C39.8722 23.8818 39.6645 24.1933 39.6645 24.5048H42.8834C42.7796 24.2971 42.5719 23.9856 42.2604 23.6741ZM25.8546 23.9856C25.5431 23.6741 25.024 23.4665 24.5048 23.4665C23.9856 23.4665 23.5703 23.6741 23.2588 23.9856C22.9473 24.2971 22.7396 24.8163 22.7396 25.3355C22.7396 25.8546 22.9473 26.27 23.2588 26.6853C23.5703 26.9968 24.0895 27.2045 24.5048 27.2045C25.024 27.2045 25.4393 26.9968 25.8546 26.6853C26.1661 26.3738 26.3738 25.8546 26.3738 25.3355C26.3738 24.8163 26.1661 24.401 25.8546 23.9856ZM25.8546 23.9856C25.5431 23.6741 25.024 23.4665 24.5048 23.4665C23.9856 23.4665 23.5703 23.6741 23.2588 23.9856C22.9473 24.2971 22.7396 24.8163 22.7396 25.3355C22.7396 25.8546 22.9473 26.27 23.2588 26.6853C23.5703 26.9968 24.0895 27.2045 24.5048 27.2045C25.024 27.2045 25.4393 26.9968 25.8546 26.6853C26.1661 26.3738 26.3738 25.8546 26.3738 25.3355C26.3738 24.8163 26.1661 24.401 25.8546 23.9856ZM25.8546 23.9856C25.5431 23.6741 25.024 23.4665 24.5048 23.4665C23.9856 23.4665 23.5703 23.6741 23.2588 23.9856C22.9473 24.2971 22.7396 24.8163 22.7396 25.3355C22.7396 25.8546 22.9473 26.27 23.2588 26.6853C23.5703 26.9968 24.0895 27.2045 24.5048 27.2045C25.024 27.2045 25.4393 26.9968 25.8546 26.6853C26.1661 26.3738 26.3738 25.8546 26.3738 25.3355C26.3738 24.8163 26.1661 24.401 25.8546 23.9856Z" fill="#114FAC"/>
</svg>
