<svg width="66" height="65" viewBox="0 0 66 65" fill="none" xmlns="http://www.w3.org/2000/svg">
<path d="M43.4872 20.1438C43.2796 19.1054 42.7604 18.1709 42.0335 17.4441C41.3067 16.6134 40.476 16.3019 39.4377 16.3019C38.7109 16.3019 37.984 16.5096 37.361 17.0288C36.8419 17.4441 36.3227 18.0671 36.0112 18.7939C35.6997 19.5208 35.492 20.3514 35.2843 21.0783C35.0767 21.9089 35.0767 22.6358 35.0767 23.4665C35.0767 24.2971 35.1805 25.1278 35.2843 25.8546C35.492 26.6853 35.6997 27.4121 36.0112 28.139C36.3227 28.8658 36.8419 29.4888 37.361 29.9042C37.984 30.4233 38.607 30.631 39.4377 30.631C40.476 30.631 41.3067 30.2157 42.0335 29.4888C42.7604 28.6581 43.1757 27.8275 43.4872 26.7891C43.6949 25.7508 43.9026 24.7125 43.9026 23.5703C43.9026 22.2204 43.7987 21.0783 43.4872 20.1438ZM43.4872 20.1438C43.2796 19.1054 42.7604 18.1709 42.0335 17.4441C41.3067 16.6134 40.476 16.3019 39.4377 16.3019C38.7109 16.3019 37.984 16.5096 37.361 17.0288C36.8419 17.4441 36.3227 18.0671 36.0112 18.7939C35.6997 19.5208 35.492 20.3514 35.2843 21.0783C35.0767 21.9089 35.0767 22.6358 35.0767 23.4665C35.0767 24.2971 35.1805 25.1278 35.2843 25.8546C35.492 26.6853 35.6997 27.4121 36.0112 28.139C36.3227 28.8658 36.8419 29.4888 37.361 29.9042C37.984 30.4233 38.607 30.631 39.4377 30.631C40.476 30.631 41.3067 30.2157 42.0335 29.4888C42.7604 28.6581 43.1757 27.8275 43.4872 26.7891C43.6949 25.7508 43.9026 24.7125 43.9026 23.5703C43.9026 22.2204 43.7987 21.0783 43.4872 20.1438ZM36.3227 45.9984C35.9073 45.6869 35.492 45.5831 34.9728 45.5831C34.4537 45.5831 34.0383 45.7907 33.623 45.9984C33.2077 46.3099 33 46.6214 32.8962 47.1406H36.9457C36.8419 46.6214 36.6342 46.2061 36.3227 45.9984ZM43.4872 20.1438C43.2796 19.1054 42.7604 18.1709 42.0335 17.4441C41.3067 16.6134 40.476 16.3019 39.4377 16.3019C38.7109 16.3019 37.984 16.5096 37.361 17.0288C36.8419 17.4441 36.3227 18.0671 36.0112 18.7939C35.6997 19.5208 35.492 20.3514 35.2843 21.0783C35.0767 21.9089 35.0767 22.6358 35.0767 23.4665C35.0767 24.2971 35.1805 25.1278 35.2843 25.8546C35.492 26.6853 35.6997 27.4121 36.0112 28.139C36.3227 28.8658 36.8419 29.4888 37.361 29.9042C37.984 30.4233 38.607 30.631 39.4377 30.631C40.476 30.631 41.3067 30.2157 42.0335 29.4888C42.7604 28.6581 43.1757 27.8275 43.4872 26.7891C43.6949 25.7508 43.9026 24.7125 43.9026 23.5703C43.9026 22.2204 43.7987 21.0783 43.4872 20.1438ZM43.4872 20.1438C43.2796 19.1054 42.7604 18.1709 42.0335 17.4441C41.3067 16.6134 40.476 16.3019 39.4377 16.3019C38.7109 16.3019 37.984 16.5096 37.361 17.0288C36.8419 17.4441 36.3227 18.0671 36.0112 18.7939C35.6997 19.5208 35.492 20.3514 35.2843 21.0783C35.0767 21.9089 35.0767 22.6358 35.0767 23.4665C35.0767 24.2971 35.1805 25.1278 35.2843 25.8546C35.492 26.6853 35.6997 27.4121 36.0112 28.139C36.3227 28.8658 36.8419 29.4888 37.361 29.9042C37.984 30.4233 38.607 30.631 39.4377 30.631C40.476 30.631 41.3067 30.2157 42.0335 29.4888C42.7604 28.6581 43.1757 27.8275 43.4872 26.7891C43.6949 25.7508 43.9026 24.7125 43.9026 23.5703C43.9026 22.2204 43.7987 21.0783 43.4872 20.1438ZM36.3227 45.9984C35.9073 45.6869 35.492 45.5831 34.9728 45.5831C34.4537 45.5831 34.0383 45.7907 33.623 45.9984C33.2077 46.3099 33 46.6214 32.8962 47.1406H36.9457C36.8419 46.6214 36.6342 46.2061 36.3227 45.9984ZM36.3227 45.9984C35.9073 45.6869 35.492 45.5831 34.9728 45.5831C34.4537 45.5831 34.0383 45.7907 33.623 45.9984C33.2077 46.3099 33 46.6214 32.8962 47.1406H36.9457C36.8419 46.6214 36.6342 46.2061 36.3227 45.9984ZM43.4872 20.1438C43.2796 19.1054 42.7604 18.1709 42.0335 17.4441C41.3067 16.6134 40.476 16.3019 39.4377 16.3019C38.7109 16.3019 37.984 16.5096 37.361 17.0288C36.8419 17.4441 36.3227 18.0671 36.0112 18.7939C35.6997 19.5208 35.492 20.3514 35.2843 21.0783C35.0767 21.9089 35.0767 22.6358 35.0767 23.4665C35.0767 24.2971 35.1805 25.1278 35.2843 25.8546C35.492 26.6853 35.6997 27.4121 36.0112 28.139C36.3227 28.8658 36.8419 29.4888 37.361 29.9042C37.984 30.4233 38.607 30.631 39.4377 30.631C40.476 30.631 41.3067 30.2157 42.0335 29.4888C42.7604 28.6581 43.1757 27.8275 43.4872 26.7891C43.6949 25.7508 43.9026 24.7125 43.9026 23.5703C43.9026 22.2204 43.7987 21.0783 43.4872 20.1438ZM43.4872 20.1438C43.2796 19.1054 42.7604 18.1709 42.0335 17.4441C41.3067 16.6134 40.476 16.3019 39.4377 16.3019C38.7109 16.3019 37.984 16.5096 37.361 17.0288C36.8419 17.4441 36.3227 18.0671 36.0112 18.7939C35.6997 19.5208 35.492 20.3514 35.2843 21.0783C35.0767 21.9089 35.0767 22.6358 35.0767 23.4665C35.0767 24.2971 35.1805 25.1278 35.2843 25.8546C35.492 26.6853 35.6997 27.4121 36.0112 28.139C36.3227 28.8658 36.8419 29.4888 37.361 29.9042C37.984 30.4233 38.607 30.631 39.4377 30.631C40.476 30.631 41.3067 30.2157 42.0335 29.4888C42.7604 28.6581 43.1757 27.8275 43.4872 26.7891C43.6949 25.7508 43.9026 24.7125 43.9026 23.5703C43.9026 22.2204 43.7987 21.0783 43.4872 20.1438ZM36.3227 45.9984C35.9073 45.6869 35.492 45.5831 34.9728 45.5831C34.4537 45.5831 34.0383 45.7907 33.623 45.9984C33.2077 46.3099 33 46.6214 32.8962 47.1406H36.9457C36.8419 46.6214 36.6342 46.2061 36.3227 45.9984ZM36.3227 45.9984C35.9073 45.6869 35.492 45.5831 34.9728 45.5831C34.4537 45.5831 34.0383 45.7907 33.623 45.9984C33.2077 46.3099 33 46.6214 32.8962 47.1406H36.9457C36.8419 46.6214 36.6342 46.2061 36.3227 45.9984ZM43.4872 20.1438C43.2796 19.1054 42.7604 18.1709 42.0335 17.4441C41.3067 16.6134 40.476 16.3019 39.4377 16.3019C38.7109 16.3019 37.984 16.5096 37.361 17.0288C36.8419 17.4441 36.3227 18.0671 36.0112 18.7939C35.6997 19.5208 35.492 20.3514 35.2843 21.0783C35.0767 21.9089 35.0767 22.6358 35.0767 23.4665C35.0767 24.2971 35.1805 25.1278 35.2843 25.8546C35.492 26.6853 35.6997 27.4121 36.0112 28.139C36.3227 28.8658 36.8419 29.4888 37.361 29.9042C37.984 30.4233 38.607 30.631 39.4377 30.631C40.476 30.631 41.3067 30.2157 42.0335 29.4888C42.7604 28.6581 43.1757 27.8275 43.4872 26.7891C43.6949 25.7508 43.9026 24.7125 43.9026 23.5703C43.9026 22.2204 43.7987 21.0783 43.4872 20.1438ZM43.4872 20.1438C43.2796 19.1054 42.7604 18.1709 42.0335 17.4441C41.3067 16.6134 40.476 16.3019 39.4377 16.3019C38.7109 16.3019 37.984 16.5096 37.361 17.0288C36.8419 17.4441 36.3227 18.0671 36.0112 18.7939C35.6997 19.5208 35.492 20.3514 35.2843 21.0783C35.0767 21.9089 35.0767 22.6358 35.0767 23.4665C35.0767 24.2971 35.1805 25.1278 35.2843 25.8546C35.492 26.6853 35.6997 27.4121 36.0112 28.139C36.3227 28.8658 36.8419 29.4888 37.361 29.9042C37.984 30.4233 38.607 30.631 39.4377 30.631C40.476 30.631 41.3067 30.2157 42.0335 29.4888C42.7604 28.6581 43.1757 27.8275 43.4872 26.7891C43.6949 25.7508 43.9026 24.7125 43.9026 23.5703C43.9026 22.2204 43.7987 21.0783 43.4872 20.1438ZM36.3227 45.9984C35.9073 45.6869 35.492 45.5831 34.9728 45.5831C34.4537 45.5831 34.0383 45.7907 33.623 45.9984C33.2077 46.3099 33 46.6214 32.8962 47.1406H36.9457C36.8419 46.6214 36.6342 46.2061 36.3227 45.9984ZM36.3227 45.9984C35.9073 45.6869 35.492 45.5831 34.9728 45.5831C34.4537 45.5831 34.0383 45.7907 33.623 45.9984C33.2077 46.3099 33 46.6214 32.8962 47.1406H36.9457C36.8419 46.6214 36.6342 46.2061 36.3227 45.9984ZM43.4872 20.1438C43.2796 19.1054 42.7604 18.1709 42.0335 17.4441C41.3067 16.6134 40.476 16.3019 39.4377 16.3019C38.7109 16.3019 37.984 16.5096 37.361 17.0288C36.8419 17.4441 36.3227 18.0671 36.0112 18.7939C35.6997 19.5208 35.492 20.3514 35.2843 21.0783C35.0767 21.9089 35.0767 22.6358 35.0767 23.4665C35.0767 24.2971 35.1805 25.1278 35.2843 25.8546C35.492 26.6853 35.6997 27.4121 36.0112 28.139C36.3227 28.8658 36.8419 29.4888 37.361 29.9042C37.984 30.4233 38.607 30.631 39.4377 30.631C40.476 30.631 41.3067 30.2157 42.0335 29.4888C42.7604 28.6581 43.1757 27.8275 43.4872 26.7891C43.6949 25.7508 43.9026 24.7125 43.9026 23.5703C43.9026 22.2204 43.7987 21.0783 43.4872 20.1438ZM43.4872 20.1438C43.2796 19.1054 42.7604 18.1709 42.0335 17.4441C41.3067 16.6134 40.476 16.3019 39.4377 16.3019C38.7109 16.3019 37.984 16.5096 37.361 17.0288C36.8419 17.4441 36.3227 18.0671 36.0112 18.7939C35.6997 19.5208 35.492 20.3514 35.2843 21.0783C35.0767 21.9089 35.0767 22.6358 35.0767 23.4665C35.0767 24.2971 35.1805 25.1278 35.2843 25.8546C35.492 26.6853 35.6997 27.4121 36.0112 28.139C36.3227 28.8658 36.8419 29.4888 37.361 29.9042C37.984 30.4233 38.607 30.631 39.4377 30.631C40.476 30.631 41.3067 30.2157 42.0335 29.4888C42.7604 28.6581 43.1757 27.8275 43.4872 26.7891C43.6949 25.7508 43.9026 24.7125 43.9026 23.5703C43.9026 22.2204 43.7987 21.0783 43.4872 20.1438ZM36.3227 45.9984C35.9073 45.6869 35.492 45.5831 34.9728 45.5831C34.4537 45.5831 34.0383 45.7907 33.623 45.9984C33.2077 46.3099 33 46.6214 32.8962 47.1406H36.9457C36.8419 46.6214 36.6342 46.2061 36.3227 45.9984ZM36.3227 45.9984C35.9073 45.6869 35.492 45.5831 34.9728 45.5831C34.4537 45.5831 34.0383 45.7907 33.623 45.9984C33.2077 46.3099 33 46.6214 32.8962 47.1406H36.9457C36.8419 46.6214 36.6342 46.2061 36.3227 45.9984ZM43.4872 20.1438C43.2796 19.1054 42.7604 18.1709 42.0335 17.4441C41.3067 16.6134 40.476 16.3019 39.4377 16.3019C38.7109 16.3019 37.984 16.5096 37.361 17.0288C36.8419 17.4441 36.3227 18.0671 36.0112 18.7939C35.6997 19.5208 35.492 20.3514 35.2843 21.0783C35.0767 21.9089 35.0767 22.6358 35.0767 23.4665C35.0767 24.2971 35.1805 25.1278 35.2843 25.8546C35.492 26.6853 35.6997 27.4121 36.0112 28.139C36.3227 28.8658 36.8419 29.4888 37.361 29.9042C37.984 30.4233 38.607 30.631 39.4377 30.631C40.476 30.631 41.3067 30.2157 42.0335 29.4888C42.7604 28.6581 43.1757 27.8275 43.4872 26.7891C43.6949 25.7508 43.9026 24.7125 43.9026 23.5703C43.9026 22.2204 43.7987 21.0783 43.4872 20.1438ZM43.4872 20.1438C43.2796 19.1054 42.7604 18.1709 42.0335 17.4441C41.3067 16.6134 40.476 16.3019 39.4377 16.3019C38.7109 16.3019 37.984 16.5096 37.361 17.0288C36.8419 17.4441 36.3227 18.0671 36.0112 18.7939C35.6997 19.5208 35.492 20.3514 35.2843 21.0783C35.0767 21.9089 35.0767 22.6358 35.0767 23.4665C35.0767 24.2971 35.1805 25.1278 35.2843 25.8546C35.492 26.6853 35.6997 27.4121 36.0112 28.139C36.3227 28.8658 36.8419 29.4888 37.361 29.9042C37.984 30.4233 38.607 30.631 39.4377 30.631C40.476 30.631 41.3067 30.2157 42.0335 29.4888C42.7604 28.6581 43.1757 27.8275 43.4872 26.7891C43.6949 25.7508 43.9026 24.7125 43.9026 23.5703C43.9026 22.2204 43.7987 21.0783 43.4872 20.1438ZM36.3227 45.9984C35.9073 45.6869 35.492 45.5831 34.9728 45.5831C34.4537 45.5831 34.0383 45.7907 33.623 45.9984C33.2077 46.3099 33 46.6214 32.8962 47.1406H36.9457C36.8419 46.6214 36.6342 46.2061 36.3227 45.9984ZM36.3227 45.9984C35.9073 45.6869 35.492 45.5831 34.9728 45.5831C34.4537 45.5831 34.0383 45.7907 33.623 45.9984C33.2077 46.3099 33 46.6214 32.8962 47.1406H36.9457C36.8419 46.6214 36.6342 46.2061 36.3227 45.9984ZM43.4872 20.1438C43.2796 19.1054 42.7604 18.1709 42.0335 17.4441C41.3067 16.6134 40.476 16.3019 39.4377 16.3019C38.7109 16.3019 37.984 16.5096 37.361 17.0288C36.8419 17.4441 36.3227 18.0671 36.0112 18.7939C35.6997 19.5208 35.492 20.3514 35.2843 21.0783C35.0767 21.9089 35.0767 22.6358 35.0767 23.4665C35.0767 24.2971 35.1805 25.1278 35.2843 25.8546C35.492 26.6853 35.6997 27.4121 36.0112 28.139C36.3227 28.8658 36.8419 29.4888 37.361 29.9042C37.984 30.4233 38.607 30.631 39.4377 30.631C40.476 30.631 41.3067 30.2157 42.0335 29.4888C42.7604 28.6581 43.1757 27.8275 43.4872 26.7891C43.6949 25.7508 43.9026 24.7125 43.9026 23.5703C43.9026 22.2204 43.7987 21.0783 43.4872 20.1438ZM43.4872 20.1438C43.2796 19.1054 42.7604 18.1709 42.0335 17.4441C41.3067 16.6134 40.476 16.3019 39.4377 16.3019C38.7109 16.3019 37.984 16.5096 37.361 17.0288C36.8419 17.4441 36.3227 18.0671 36.0112 18.7939C35.6997 19.5208 35.492 20.3514 35.2843 21.0783C35.0767 21.9089 35.0767 22.6358 35.0767 23.4665C35.0767 24.2971 35.1805 25.1278 35.2843 25.8546C35.492 26.6853 35.6997 27.4121 36.0112 28.139C36.3227 28.8658 36.8419 29.4888 37.361 29.9042C37.984 30.4233 38.607 30.631 39.4377 30.631C40.476 30.631 41.3067 30.2157 42.0335 29.4888C42.7604 28.6581 43.1757 27.8275 43.4872 26.7891C43.6949 25.7508 43.9026 24.7125 43.9026 23.5703C43.9026 22.2204 43.7987 21.0783 43.4872 20.1438ZM36.3227 45.9984C35.9073 45.6869 35.492 45.5831 34.9728 45.5831C34.4537 45.5831 34.0383 45.7907 33.623 45.9984C33.2077 46.3099 33 46.6214 32.8962 47.1406H36.9457C36.8419 46.6214 36.6342 46.2061 36.3227 45.9984ZM36.3227 45.9984C35.9073 45.6869 35.492 45.5831 34.9728 45.5831C34.4537 45.5831 34.0383 45.7907 33.623 45.9984C33.2077 46.3099 33 46.6214 32.8962 47.1406H36.9457C36.8419 46.6214 36.6342 46.2061 36.3227 45.9984ZM43.4872 20.1438C43.2796 19.1054 42.7604 18.1709 42.0335 17.4441C41.3067 16.6134 40.476 16.3019 39.4377 16.3019C38.7109 16.3019 37.984 16.5096 37.361 17.0288C36.8419 17.4441 36.3227 18.0671 36.0112 18.7939C35.6997 19.5208 35.492 20.3514 35.2843 21.0783C35.0767 21.9089 35.0767 22.6358 35.0767 23.4665C35.0767 24.2971 35.1805 25.1278 35.2843 25.8546C35.492 26.6853 35.6997 27.4121 36.0112 28.139C36.3227 28.8658 36.8419 29.4888 37.361 29.9042C37.984 30.4233 38.607 30.631 39.4377 30.631C40.476 30.631 41.3067 30.2157 42.0335 29.4888C42.7604 28.6581 43.1757 27.8275 43.4872 26.7891C43.6949 25.7508 43.9026 24.7125 43.9026 23.5703C43.9026 22.2204 43.7987 21.0783 43.4872 20.1438ZM43.4872 20.1438C43.2796 19.1054 42.7604 18.1709 42.0335 17.4441C41.3067 16.6134 40.476 16.3019 39.4377 16.3019C38.7109 16.3019 37.984 16.5096 37.361 17.0288C36.8419 17.4441 36.3227 18.0671 36.0112 18.7939C35.6997 19.5208 35.492 20.3514 35.2843 21.0783C35.0767 21.9089 35.0767 22.6358 35.0767 23.4665C35.0767 24.2971 35.1805 25.1278 35.2843 25.8546C35.492 26.6853 35.6997 27.4121 36.0112 28.139C36.3227 28.8658 36.8419 29.4888 37.361 29.9042C37.984 30.4233 38.607 30.631 39.4377 30.631C40.476 30.631 41.3067 30.2157 42.0335 29.4888C42.7604 28.6581 43.1757 27.8275 43.4872 26.7891C43.6949 25.7508 43.9026 24.7125 43.9026 23.5703C43.9026 22.2204 43.7987 21.0783 43.4872 20.1438ZM36.3227 45.9984C35.9073 45.6869 35.492 45.5831 34.9728 45.5831C34.4537 45.5831 34.0383 45.7907 33.623 45.9984C33.2077 46.3099 33 46.6214 32.8962 47.1406H36.9457C36.8419 46.6214 36.6342 46.2061 36.3227 45.9984ZM36.3227 45.9984C35.9073 45.6869 35.492 45.5831 34.9728 45.5831C34.4537 45.5831 34.0383 45.7907 33.623 45.9984C33.2077 46.3099 33 46.6214 32.8962 47.1406H36.9457C36.8419 46.6214 36.6342 46.2061 36.3227 45.9984ZM43.4872 20.1438C43.2796 19.1054 42.7604 18.1709 42.0335 17.4441C41.3067 16.6134 40.476 16.3019 39.4377 16.3019C38.7109 16.3019 37.984 16.5096 37.361 17.0288C36.8419 17.4441 36.3227 18.0671 36.0112 18.7939C35.6997 19.5208 35.492 20.3514 35.2843 21.0783C35.0767 21.9089 35.0767 22.6358 35.0767 23.4665C35.0767 24.2971 35.1805 25.1278 35.2843 25.8546C35.492 26.6853 35.6997 27.4121 36.0112 28.139C36.3227 28.8658 36.8419 29.4888 37.361 29.9042C37.984 30.4233 38.607 30.631 39.4377 30.631C40.476 30.631 41.3067 30.2157 42.0335 29.4888C42.7604 28.6581 43.1757 27.8275 43.4872 26.7891C43.6949 25.7508 43.9026 24.7125 43.9026 23.5703C43.9026 22.2204 43.7987 21.0783 43.4872 20.1438ZM43.4872 20.1438C43.2796 19.1054 42.7604 18.1709 42.0335 17.4441C41.3067 16.6134 40.476 16.3019 39.4377 16.3019C38.7109 16.3019 37.984 16.5096 37.361 17.0288C36.8419 17.4441 36.3227 18.0671 36.0112 18.7939C35.6997 19.5208 35.492 20.3514 35.2843 21.0783C35.0767 21.9089 35.0767 22.6358 35.0767 23.4665C35.0767 24.2971 35.1805 25.1278 35.2843 25.8546C35.492 26.6853 35.6997 27.4121 36.0112 28.139C36.3227 28.8658 36.8419 29.4888 37.361 29.9042C37.984 30.4233 38.607 30.631 39.4377 30.631C40.476 30.631 41.3067 30.2157 42.0335 29.4888C42.7604 28.6581 43.1757 27.8275 43.4872 26.7891C43.6949 25.7508 43.9026 24.7125 43.9026 23.5703C43.9026 22.2204 43.7987 21.0783 43.4872 20.1438ZM36.3227 45.9984C35.9073 45.6869 35.492 45.5831 34.9728 45.5831C34.4537 45.5831 34.0383 45.7907 33.623 45.9984C33.2077 46.3099 33 46.6214 32.8962 47.1406H36.9457C36.8419 46.6214 36.6342 46.2061 36.3227 45.9984ZM36.3227 45.9984C35.9073 45.6869 35.492 45.5831 34.9728 45.5831C34.4537 45.5831 34.0383 45.7907 33.623 45.9984C33.2077 46.3099 33 46.6214 32.8962 47.1406H36.9457C36.8419 46.6214 36.6342 46.2061 36.3227 45.9984ZM43.4872 20.1438C43.2796 19.1054 42.7604 18.1709 42.0335 17.4441C41.3067 16.6134 40.476 16.3019 39.4377 16.3019C38.7109 16.3019 37.984 16.5096 37.361 17.0288C36.8419 17.4441 36.3227 18.0671 36.0112 18.7939C35.6997 19.5208 35.492 20.3514 35.2843 21.0783C35.0767 21.9089 35.0767 22.6358 35.0767 23.4665C35.0767 24.2971 35.1805 25.1278 35.2843 25.8546C35.492 26.6853 35.6997 27.4121 36.0112 28.139C36.3227 28.8658 36.8419 29.4888 37.361 29.9042C37.984 30.4233 38.607 30.631 39.4377 30.631C40.476 30.631 41.3067 30.2157 42.0335 29.4888C42.7604 28.6581 43.1757 27.8275 43.4872 26.7891C43.6949 25.7508 43.9026 24.7125 43.9026 23.5703C43.9026 22.2204 43.7987 21.0783 43.4872 20.1438ZM43.4872 20.1438C43.2796 19.1054 42.7604 18.1709 42.0335 17.4441C41.3067 16.6134 40.476 16.3019 39.4377 16.3019C38.7109 16.3019 37.984 16.5096 37.361 17.0288C36.8419 17.4441 36.3227 18.0671 36.0112 18.7939C35.6997 19.5208 35.492 20.3514 35.2843 21.0783C35.0767 21.9089 35.0767 22.6358 35.0767 23.4665C35.0767 24.2971 35.1805 25.1278 35.2843 25.8546C35.492 26.6853 35.6997 27.4121 36.0112 28.139C36.3227 28.8658 36.8419 29.4888 37.361 29.9042C37.984 30.4233 38.607 30.631 39.4377 30.631C40.476 30.631 41.3067 30.2157 42.0335 29.4888C42.7604 28.6581 43.1757 27.8275 43.4872 26.7891C43.6949 25.7508 43.9026 24.7125 43.9026 23.5703C43.9026 22.2204 43.7987 21.0783 43.4872 20.1438ZM36.3227 45.9984C35.9073 45.6869 35.492 45.5831 34.9728 45.5831C34.4537 45.5831 34.0383 45.7907 33.623 45.9984C33.2077 46.3099 33 46.6214 32.8962 47.1406H36.9457C36.8419 46.6214 36.6342 46.2061 36.3227 45.9984ZM36.3227 45.9984C35.9073 45.6869 35.492 45.5831 34.9728 45.5831C34.4537 45.5831 34.0383 45.7907 33.623 45.9984C33.2077 46.3099 33 46.6214 32.8962 47.1406H36.9457C36.8419 46.6214 36.6342 46.2061 36.3227 45.9984ZM43.4872 20.1438C43.2796 19.1054 42.7604 18.1709 42.0335 17.4441C41.3067 16.6134 40.476 16.3019 39.4377 16.3019C38.7109 16.3019 37.984 16.5096 37.361 17.0288C36.8419 17.4441 36.3227 18.0671 36.0112 18.7939C35.6997 19.5208 35.492 20.3514 35.2843 21.0783C35.0767 21.9089 35.0767 22.6358 35.0767 23.4665C35.0767 24.2971 35.1805 25.1278 35.2843 25.8546C35.492 26.6853 35.6997 27.4121 36.0112 28.139C36.3227 28.8658 36.8419 29.4888 37.361 29.9042C37.984 30.4233 38.607 30.631 39.4377 30.631C40.476 30.631 41.3067 30.2157 42.0335 29.4888C42.7604 28.6581 43.1757 27.8275 43.4872 26.7891C43.6949 25.7508 43.9026 24.7125 43.9026 23.5703C43.9026 22.2204 43.7987 21.0783 43.4872 20.1438ZM43.4872 20.1438C43.2796 19.1054 42.7604 18.1709 42.0335 17.4441C41.3067 16.6134 40.476 16.3019 39.4377 16.3019C38.7109 16.3019 37.984 16.5096 37.361 17.0288C36.8419 17.4441 36.3227 18.0671 36.0112 18.7939C35.6997 19.5208 35.492 20.3514 35.2843 21.0783C35.0767 21.9089 35.0767 22.6358 35.0767 23.4665C35.0767 24.2971 35.1805 25.1278 35.2843 25.8546C35.492 26.6853 35.6997 27.4121 36.0112 28.139C36.3227 28.8658 36.8419 29.4888 37.361 29.9042C37.984 30.4233 38.607 30.631 39.4377 30.631C40.476 30.631 41.3067 30.2157 42.0335 29.4888C42.7604 28.6581 43.1757 27.8275 43.4872 26.7891C43.6949 25.7508 43.9026 24.7125 43.9026 23.5703C43.9026 22.2204 43.7987 21.0783 43.4872 20.1438ZM36.3227 45.9984C35.9073 45.6869 35.492 45.5831 34.9728 45.5831C34.4537 45.5831 34.0383 45.7907 33.623 45.9984C33.2077 46.3099 33 46.6214 32.8962 47.1406H36.9457C36.8419 46.6214 36.6342 46.2061 36.3227 45.9984ZM36.3227 45.9984C35.9073 45.6869 35.492 45.5831 34.9728 45.5831C34.4537 45.5831 34.0383 45.7907 33.623 45.9984C33.2077 46.3099 33 46.6214 32.8962 47.1406H36.9457C36.8419 46.6214 36.6342 46.2061 36.3227 45.9984ZM43.4872 20.1438C43.2796 19.1054 42.7604 18.1709 42.0335 17.4441C41.3067 16.6134 40.476 16.3019 39.4377 16.3019C38.7109 16.3019 37.984 16.5096 37.361 17.0288C36.8419 17.4441 36.3227 18.0671 36.0112 18.7939C35.6997 19.5208 35.492 20.3514 35.2843 21.0783C35.0767 21.9089 35.0767 22.6358 35.0767 23.4665C35.0767 24.2971 35.1805 25.1278 35.2843 25.8546C35.492 26.6853 35.6997 27.4121 36.0112 28.139C36.3227 28.8658 36.8419 29.4888 37.361 29.9042C37.984 30.4233 38.607 30.631 39.4377 30.631C40.476 30.631 41.3067 30.2157 42.0335 29.4888C42.7604 28.6581 43.1757 27.8275 43.4872 26.7891C43.6949 25.7508 43.9026 24.7125 43.9026 23.5703C43.9026 22.2204 43.7987 21.0783 43.4872 20.1438ZM43.4872 20.1438C43.2796 19.1054 42.7604 18.1709 42.0335 17.4441C41.3067 16.6134 40.476 16.3019 39.4377 16.3019C38.7109 16.3019 37.984 16.5096 37.361 17.0288C36.8419 17.4441 36.3227 18.0671 36.0112 18.7939C35.6997 19.5208 35.492 20.3514 35.2843 21.0783C35.0767 21.9089 35.0767 22.6358 35.0767 23.4665C35.0767 24.2971 35.1805 25.1278 35.2843 25.8546C35.492 26.6853 35.6997 27.4121 36.0112 28.139C36.3227 28.8658 36.8419 29.4888 37.361 29.9042C37.984 30.4233 38.607 30.631 39.4377 30.631C40.476 30.631 41.3067 30.2157 42.0335 29.4888C42.7604 28.6581 43.1757 27.8275 43.4872 26.7891C43.6949 25.7508 43.9026 24.7125 43.9026 23.5703C43.9026 22.2204 43.7987 21.0783 43.4872 20.1438ZM36.3227 45.9984C35.9073 45.6869 35.492 45.5831 34.9728 45.5831C34.4537 45.5831 34.0383 45.7907 33.623 45.9984C33.2077 46.3099 33 46.6214 32.8962 47.1406H36.9457C36.8419 46.6214 36.6342 46.2061 36.3227 45.9984ZM33 0C15.0367 0 0.5 14.5367 0.5 32.5C0.5 50.4633 15.0367 65 33 65C50.8594 65 65.5 50.4633 65.5 32.5C65.5 14.5367 50.8594 0 33 0ZM17.9441 16.8211L22.0974 12.9792H26.3546V33.8498H22.2013V17.6518L17.9441 21.5974V16.8211ZM28.4313 52.2284H26.147V42.5719H22.2013V45.9984C22.2013 46.7252 22.2013 47.2444 22.0974 47.7636C22.0974 48.2827 21.9936 48.8019 21.7859 49.3211C21.5783 49.9441 21.3706 50.3594 21.1629 50.7748C20.8514 51.1901 20.5399 51.5016 20.0208 51.7093C19.5016 51.9169 18.9824 52.1246 18.3594 52.1246H17.3211V50.0479H17.9441C18.3594 50.0479 18.6709 49.9441 18.9824 49.7364C19.1901 49.5288 19.3978 49.2173 19.5016 48.8019C19.6054 48.3866 19.7093 47.9712 19.7093 47.6597C19.7093 47.2444 19.7093 46.8291 19.7093 46.3099V40.7029H28.3275V52.2284H28.4313ZM39.23 48.8019H32.7923C32.8962 49.3211 33.2077 49.6326 33.623 49.9441C34.0383 50.2556 34.4537 50.3594 35.0767 50.3594C35.8035 50.3594 36.4265 50.1518 36.8419 49.6326H39.23C38.9185 50.4633 38.3994 51.1901 37.6725 51.6054C36.9457 52.1246 36.115 52.3323 35.1805 52.3323C33.9345 52.3323 32.7923 51.9169 31.9617 51.0863C31.131 50.2556 30.7157 49.2173 30.7157 47.9712C30.7157 46.7252 31.131 45.6869 31.9617 44.8562C32.7923 44.0256 33.8307 43.6102 35.0767 43.6102C36.3227 43.6102 37.361 44.0256 38.1917 44.8562C39.0224 45.6869 39.4377 46.7252 39.4377 47.9712C39.23 48.3866 39.23 48.5942 39.23 48.8019ZM36.0112 33.4345C34.9728 32.9153 34.1422 32.2923 33.5192 31.5655C32.8962 30.8387 32.377 30.008 31.9617 28.9696C31.6502 28.0351 31.4425 26.9968 31.2348 26.1661C31.0272 25.2316 31.0272 24.2971 31.0272 23.3626C31.0272 22.4281 31.131 21.4936 31.2348 20.5591C31.4425 19.6246 31.6502 18.6901 32.0655 17.6518C32.4808 16.7173 32.8962 15.7827 33.623 15.0559C34.246 14.3291 35.0767 13.7061 36.115 13.1869C37.1534 12.6677 38.2955 12.4601 39.5415 12.4601C40.7875 12.4601 42.0335 12.6677 42.9681 13.1869C44.0064 13.7061 44.8371 14.3291 45.4601 15.0559C46.0831 15.7827 46.6022 16.6134 47.0176 17.6518C47.4329 18.5863 47.6406 19.6246 47.8482 20.5591C48.0559 21.4936 48.0559 22.4281 48.0559 23.3626C48.0559 24.2971 47.9521 25.2316 47.8482 26.1661C47.6406 27.1006 47.4329 28.0351 47.0176 29.0735C46.6022 30.1118 46.0831 30.9425 45.4601 31.6693C44.8371 32.3962 44.0064 33.0192 42.9681 33.5383C41.9297 34.0575 40.7875 34.2652 39.5415 34.2652C38.2955 34.1613 37.0495 33.9537 36.0112 33.4345ZM48.5751 45.7907H45.4601V52.1246H43.2796V45.7907H40.1645V43.8179H48.5751V45.7907ZM43.9026 23.3626C43.9026 22.2204 43.7987 21.1821 43.4872 20.1438C43.2796 19.1054 42.7604 18.1709 42.0335 17.4441C41.3067 16.6134 40.476 16.3019 39.4377 16.3019C38.7109 16.3019 37.984 16.5096 37.361 17.0288C36.8419 17.4441 36.3227 18.0671 36.0112 18.7939C35.6997 19.5208 35.492 20.3514 35.2843 21.0783C35.0767 21.9089 35.0767 22.6358 35.0767 23.4665C35.0767 24.2971 35.1805 25.1278 35.2843 25.8546C35.492 26.6853 35.6997 27.4121 36.0112 28.139C36.3227 28.8658 36.8419 29.4888 37.361 29.9042C37.984 30.4233 38.607 30.631 39.4377 30.631C40.476 30.631 41.3067 30.2157 42.0335 29.4888C42.7604 28.6581 43.1757 27.8275 43.4872 26.7891C43.7987 25.5431 43.9026 24.5048 43.9026 23.3626ZM34.9728 45.4792C34.4537 45.4792 34.0383 45.6869 33.623 45.8946C33.2077 46.2061 33 46.5176 32.8962 47.0367H36.9457C36.8419 46.5176 36.6342 46.2061 36.3227 45.8946C35.9073 45.6869 35.492 45.4792 34.9728 45.4792ZM36.3227 45.9984C35.9073 45.6869 35.492 45.5831 34.9728 45.5831C34.4537 45.5831 34.0383 45.7907 33.623 45.9984C33.2077 46.3099 33 46.6214 32.8962 47.1406H36.9457C36.8419 46.6214 36.6342 46.2061 36.3227 45.9984ZM43.4872 20.1438C43.2796 19.1054 42.7604 18.1709 42.0335 17.4441C41.3067 16.6134 40.476 16.3019 39.4377 16.3019C38.7109 16.3019 37.984 16.5096 37.361 17.0288C36.8419 17.4441 36.3227 18.0671 36.0112 18.7939C35.6997 19.5208 35.492 20.3514 35.2843 21.0783C35.0767 21.9089 35.0767 22.6358 35.0767 23.4665C35.0767 24.2971 35.1805 25.1278 35.2843 25.8546C35.492 26.6853 35.6997 27.4121 36.0112 28.139C36.3227 28.8658 36.8419 29.4888 37.361 29.9042C37.984 30.4233 38.607 30.631 39.4377 30.631C40.476 30.631 41.3067 30.2157 42.0335 29.4888C42.7604 28.6581 43.1757 27.8275 43.4872 26.7891C43.6949 25.7508 43.9026 24.7125 43.9026 23.5703C43.9026 22.2204 43.7987 21.0783 43.4872 20.1438ZM43.4872 20.1438C43.2796 19.1054 42.7604 18.1709 42.0335 17.4441C41.3067 16.6134 40.476 16.3019 39.4377 16.3019C38.7109 16.3019 37.984 16.5096 37.361 17.0288C36.8419 17.4441 36.3227 18.0671 36.0112 18.7939C35.6997 19.5208 35.492 20.3514 35.2843 21.0783C35.0767 21.9089 35.0767 22.6358 35.0767 23.4665C35.0767 24.2971 35.1805 25.1278 35.2843 25.8546C35.492 26.6853 35.6997 27.4121 36.0112 28.139C36.3227 28.8658 36.8419 29.4888 37.361 29.9042C37.984 30.4233 38.607 30.631 39.4377 30.631C40.476 30.631 41.3067 30.2157 42.0335 29.4888C42.7604 28.6581 43.1757 27.8275 43.4872 26.7891C43.6949 25.7508 43.9026 24.7125 43.9026 23.5703C43.9026 22.2204 43.7987 21.0783 43.4872 20.1438ZM36.3227 45.9984C35.9073 45.6869 35.492 45.5831 34.9728 45.5831C34.4537 45.5831 34.0383 45.7907 33.623 45.9984C33.2077 46.3099 33 46.6214 32.8962 47.1406H36.9457C36.8419 46.6214 36.6342 46.2061 36.3227 45.9984ZM36.3227 45.9984C35.9073 45.6869 35.492 45.5831 34.9728 45.5831C34.4537 45.5831 34.0383 45.7907 33.623 45.9984C33.2077 46.3099 33 46.6214 32.8962 47.1406H36.9457C36.8419 46.6214 36.6342 46.2061 36.3227 45.9984ZM43.4872 20.1438C43.2796 19.1054 42.7604 18.1709 42.0335 17.4441C41.3067 16.6134 40.476 16.3019 39.4377 16.3019C38.7109 16.3019 37.984 16.5096 37.361 17.0288C36.8419 17.4441 36.3227 18.0671 36.0112 18.7939C35.6997 19.5208 35.492 20.3514 35.2843 21.0783C35.0767 21.9089 35.0767 22.6358 35.0767 23.4665C35.0767 24.2971 35.1805 25.1278 35.2843 25.8546C35.492 26.6853 35.6997 27.4121 36.0112 28.139C36.3227 28.8658 36.8419 29.4888 37.361 29.9042C37.984 30.4233 38.607 30.631 39.4377 30.631C40.476 30.631 41.3067 30.2157 42.0335 29.4888C42.7604 28.6581 43.1757 27.8275 43.4872 26.7891C43.6949 25.7508 43.9026 24.7125 43.9026 23.5703C43.9026 22.2204 43.7987 21.0783 43.4872 20.1438ZM43.4872 20.1438C43.2796 19.1054 42.7604 18.1709 42.0335 17.4441C41.3067 16.6134 40.476 16.3019 39.4377 16.3019C38.7109 16.3019 37.984 16.5096 37.361 17.0288C36.8419 17.4441 36.3227 18.0671 36.0112 18.7939C35.6997 19.5208 35.492 20.3514 35.2843 21.0783C35.0767 21.9089 35.0767 22.6358 35.0767 23.4665C35.0767 24.2971 35.1805 25.1278 35.2843 25.8546C35.492 26.6853 35.6997 27.4121 36.0112 28.139C36.3227 28.8658 36.8419 29.4888 37.361 29.9042C37.984 30.4233 38.607 30.631 39.4377 30.631C40.476 30.631 41.3067 30.2157 42.0335 29.4888C42.7604 28.6581 43.1757 27.8275 43.4872 26.7891C43.6949 25.7508 43.9026 24.7125 43.9026 23.5703C43.9026 22.2204 43.7987 21.0783 43.4872 20.1438ZM36.3227 45.9984C35.9073 45.6869 35.492 45.5831 34.9728 45.5831C34.4537 45.5831 34.0383 45.7907 33.623 45.9984C33.2077 46.3099 33 46.6214 32.8962 47.1406H36.9457C36.8419 46.6214 36.6342 46.2061 36.3227 45.9984ZM36.3227 45.9984C35.9073 45.6869 35.492 45.5831 34.9728 45.5831C34.4537 45.5831 34.0383 45.7907 33.623 45.9984C33.2077 46.3099 33 46.6214 32.8962 47.1406H36.9457C36.8419 46.6214 36.6342 46.2061 36.3227 45.9984ZM43.4872 20.1438C43.2796 19.1054 42.7604 18.1709 42.0335 17.4441C41.3067 16.6134 40.476 16.3019 39.4377 16.3019C38.7109 16.3019 37.984 16.5096 37.361 17.0288C36.8419 17.4441 36.3227 18.0671 36.0112 18.7939C35.6997 19.5208 35.492 20.3514 35.2843 21.0783C35.0767 21.9089 35.0767 22.6358 35.0767 23.4665C35.0767 24.2971 35.1805 25.1278 35.2843 25.8546C35.492 26.6853 35.6997 27.4121 36.0112 28.139C36.3227 28.8658 36.8419 29.4888 37.361 29.9042C37.984 30.4233 38.607 30.631 39.4377 30.631C40.476 30.631 41.3067 30.2157 42.0335 29.4888C42.7604 28.6581 43.1757 27.8275 43.4872 26.7891C43.6949 25.7508 43.9026 24.7125 43.9026 23.5703C43.9026 22.2204 43.7987 21.0783 43.4872 20.1438ZM43.4872 20.1438C43.2796 19.1054 42.7604 18.1709 42.0335 17.4441C41.3067 16.6134 40.476 16.3019 39.4377 16.3019C38.7109 16.3019 37.984 16.5096 37.361 17.0288C36.8419 17.4441 36.3227 18.0671 36.0112 18.7939C35.6997 19.5208 35.492 20.3514 35.2843 21.0783C35.0767 21.9089 35.0767 22.6358 35.0767 23.4665C35.0767 24.2971 35.1805 25.1278 35.2843 25.8546C35.492 26.6853 35.6997 27.4121 36.0112 28.139C36.3227 28.8658 36.8419 29.4888 37.361 29.9042C37.984 30.4233 38.607 30.631 39.4377 30.631C40.476 30.631 41.3067 30.2157 42.0335 29.4888C42.7604 28.6581 43.1757 27.8275 43.4872 26.7891C43.6949 25.7508 43.9026 24.7125 43.9026 23.5703C43.9026 22.2204 43.7987 21.0783 43.4872 20.1438ZM36.3227 45.9984C35.9073 45.6869 35.492 45.5831 34.9728 45.5831C34.4537 45.5831 34.0383 45.7907 33.623 45.9984C33.2077 46.3099 33 46.6214 32.8962 47.1406H36.9457C36.8419 46.6214 36.6342 46.2061 36.3227 45.9984ZM36.3227 45.9984C35.9073 45.6869 35.492 45.5831 34.9728 45.5831C34.4537 45.5831 34.0383 45.7907 33.623 45.9984C33.2077 46.3099 33 46.6214 32.8962 47.1406H36.9457C36.8419 46.6214 36.6342 46.2061 36.3227 45.9984ZM43.4872 20.1438C43.2796 19.1054 42.7604 18.1709 42.0335 17.4441C41.3067 16.6134 40.476 16.3019 39.4377 16.3019C38.7109 16.3019 37.984 16.5096 37.361 17.0288C36.8419 17.4441 36.3227 18.0671 36.0112 18.7939C35.6997 19.5208 35.492 20.3514 35.2843 21.0783C35.0767 21.9089 35.0767 22.6358 35.0767 23.4665C35.0767 24.2971 35.1805 25.1278 35.2843 25.8546C35.492 26.6853 35.6997 27.4121 36.0112 28.139C36.3227 28.8658 36.8419 29.4888 37.361 29.9042C37.984 30.4233 38.607 30.631 39.4377 30.631C40.476 30.631 41.3067 30.2157 42.0335 29.4888C42.7604 28.6581 43.1757 27.8275 43.4872 26.7891C43.6949 25.7508 43.9026 24.7125 43.9026 23.5703C43.9026 22.2204 43.7987 21.0783 43.4872 20.1438ZM43.4872 20.1438C43.2796 19.1054 42.7604 18.1709 42.0335 17.4441C41.3067 16.6134 40.476 16.3019 39.4377 16.3019C38.7109 16.3019 37.984 16.5096 37.361 17.0288C36.8419 17.4441 36.3227 18.0671 36.0112 18.7939C35.6997 19.5208 35.492 20.3514 35.2843 21.0783C35.0767 21.9089 35.0767 22.6358 35.0767 23.4665C35.0767 24.2971 35.1805 25.1278 35.2843 25.8546C35.492 26.6853 35.6997 27.4121 36.0112 28.139C36.3227 28.8658 36.8419 29.4888 37.361 29.9042C37.984 30.4233 38.607 30.631 39.4377 30.631C40.476 30.631 41.3067 30.2157 42.0335 29.4888C42.7604 28.6581 43.1757 27.8275 43.4872 26.7891C43.6949 25.7508 43.9026 24.7125 43.9026 23.5703C43.9026 22.2204 43.7987 21.0783 43.4872 20.1438ZM36.3227 45.9984C35.9073 45.6869 35.492 45.5831 34.9728 45.5831C34.4537 45.5831 34.0383 45.7907 33.623 45.9984C33.2077 46.3099 33 46.6214 32.8962 47.1406H36.9457C36.8419 46.6214 36.6342 46.2061 36.3227 45.9984ZM36.3227 45.9984C35.9073 45.6869 35.492 45.5831 34.9728 45.5831C34.4537 45.5831 34.0383 45.7907 33.623 45.9984C33.2077 46.3099 33 46.6214 32.8962 47.1406H36.9457C36.8419 46.6214 36.6342 46.2061 36.3227 45.9984ZM43.4872 20.1438C43.2796 19.1054 42.7604 18.1709 42.0335 17.4441C41.3067 16.6134 40.476 16.3019 39.4377 16.3019C38.7109 16.3019 37.984 16.5096 37.361 17.0288C36.8419 17.4441 36.3227 18.0671 36.0112 18.7939C35.6997 19.5208 35.492 20.3514 35.2843 21.0783C35.0767 21.9089 35.0767 22.6358 35.0767 23.4665C35.0767 24.2971 35.1805 25.1278 35.2843 25.8546C35.492 26.6853 35.6997 27.4121 36.0112 28.139C36.3227 28.8658 36.8419 29.4888 37.361 29.9042C37.984 30.4233 38.607 30.631 39.4377 30.631C40.476 30.631 41.3067 30.2157 42.0335 29.4888C42.7604 28.6581 43.1757 27.8275 43.4872 26.7891C43.6949 25.7508 43.9026 24.7125 43.9026 23.5703C43.9026 22.2204 43.7987 21.0783 43.4872 20.1438ZM43.4872 20.1438C43.2796 19.1054 42.7604 18.1709 42.0335 17.4441C41.3067 16.6134 40.476 16.3019 39.4377 16.3019C38.7109 16.3019 37.984 16.5096 37.361 17.0288C36.8419 17.4441 36.3227 18.0671 36.0112 18.7939C35.6997 19.5208 35.492 20.3514 35.2843 21.0783C35.0767 21.9089 35.0767 22.6358 35.0767 23.4665C35.0767 24.2971 35.1805 25.1278 35.2843 25.8546C35.492 26.6853 35.6997 27.4121 36.0112 28.139C36.3227 28.8658 36.8419 29.4888 37.361 29.9042C37.984 30.4233 38.607 30.631 39.4377 30.631C40.476 30.631 41.3067 30.2157 42.0335 29.4888C42.7604 28.6581 43.1757 27.8275 43.4872 26.7891C43.6949 25.7508 43.9026 24.7125 43.9026 23.5703C43.9026 22.2204 43.7987 21.0783 43.4872 20.1438ZM36.3227 45.9984C35.9073 45.6869 35.492 45.5831 34.9728 45.5831C34.4537 45.5831 34.0383 45.7907 33.623 45.9984C33.2077 46.3099 33 46.6214 32.8962 47.1406H36.9457C36.8419 46.6214 36.6342 46.2061 36.3227 45.9984ZM36.3227 45.9984C35.9073 45.6869 35.492 45.5831 34.9728 45.5831C34.4537 45.5831 34.0383 45.7907 33.623 45.9984C33.2077 46.3099 33 46.6214 32.8962 47.1406H36.9457C36.8419 46.6214 36.6342 46.2061 36.3227 45.9984ZM43.4872 20.1438C43.2796 19.1054 42.7604 18.1709 42.0335 17.4441C41.3067 16.6134 40.476 16.3019 39.4377 16.3019C38.7109 16.3019 37.984 16.5096 37.361 17.0288C36.8419 17.4441 36.3227 18.0671 36.0112 18.7939C35.6997 19.5208 35.492 20.3514 35.2843 21.0783C35.0767 21.9089 35.0767 22.6358 35.0767 23.4665C35.0767 24.2971 35.1805 25.1278 35.2843 25.8546C35.492 26.6853 35.6997 27.4121 36.0112 28.139C36.3227 28.8658 36.8419 29.4888 37.361 29.9042C37.984 30.4233 38.607 30.631 39.4377 30.631C40.476 30.631 41.3067 30.2157 42.0335 29.4888C42.7604 28.6581 43.1757 27.8275 43.4872 26.7891C43.6949 25.7508 43.9026 24.7125 43.9026 23.5703C43.9026 22.2204 43.7987 21.0783 43.4872 20.1438ZM43.4872 20.1438C43.2796 19.1054 42.7604 18.1709 42.0335 17.4441C41.3067 16.6134 40.476 16.3019 39.4377 16.3019C38.7109 16.3019 37.984 16.5096 37.361 17.0288C36.8419 17.4441 36.3227 18.0671 36.0112 18.7939C35.6997 19.5208 35.492 20.3514 35.2843 21.0783C35.0767 21.9089 35.0767 22.6358 35.0767 23.4665C35.0767 24.2971 35.1805 25.1278 35.2843 25.8546C35.492 26.6853 35.6997 27.4121 36.0112 28.139C36.3227 28.8658 36.8419 29.4888 37.361 29.9042C37.984 30.4233 38.607 30.631 39.4377 30.631C40.476 30.631 41.3067 30.2157 42.0335 29.4888C42.7604 28.6581 43.1757 27.8275 43.4872 26.7891C43.6949 25.7508 43.9026 24.7125 43.9026 23.5703C43.9026 22.2204 43.7987 21.0783 43.4872 20.1438ZM36.3227 45.9984C35.9073 45.6869 35.492 45.5831 34.9728 45.5831C34.4537 45.5831 34.0383 45.7907 33.623 45.9984C33.2077 46.3099 33 46.6214 32.8962 47.1406H36.9457C36.8419 46.6214 36.6342 46.2061 36.3227 45.9984ZM36.3227 45.9984C35.9073 45.6869 35.492 45.5831 34.9728 45.5831C34.4537 45.5831 34.0383 45.7907 33.623 45.9984C33.2077 46.3099 33 46.6214 32.8962 47.1406H36.9457C36.8419 46.6214 36.6342 46.2061 36.3227 45.9984ZM43.4872 20.1438C43.2796 19.1054 42.7604 18.1709 42.0335 17.4441C41.3067 16.6134 40.476 16.3019 39.4377 16.3019C38.7109 16.3019 37.984 16.5096 37.361 17.0288C36.8419 17.4441 36.3227 18.0671 36.0112 18.7939C35.6997 19.5208 35.492 20.3514 35.2843 21.0783C35.0767 21.9089 35.0767 22.6358 35.0767 23.4665C35.0767 24.2971 35.1805 25.1278 35.2843 25.8546C35.492 26.6853 35.6997 27.4121 36.0112 28.139C36.3227 28.8658 36.8419 29.4888 37.361 29.9042C37.984 30.4233 38.607 30.631 39.4377 30.631C40.476 30.631 41.3067 30.2157 42.0335 29.4888C42.7604 28.6581 43.1757 27.8275 43.4872 26.7891C43.6949 25.7508 43.9026 24.7125 43.9026 23.5703C43.9026 22.2204 43.7987 21.0783 43.4872 20.1438ZM43.4872 20.1438C43.2796 19.1054 42.7604 18.1709 42.0335 17.4441C41.3067 16.6134 40.476 16.3019 39.4377 16.3019C38.7109 16.3019 37.984 16.5096 37.361 17.0288C36.8419 17.4441 36.3227 18.0671 36.0112 18.7939C35.6997 19.5208 35.492 20.3514 35.2843 21.0783C35.0767 21.9089 35.0767 22.6358 35.0767 23.4665C35.0767 24.2971 35.1805 25.1278 35.2843 25.8546C35.492 26.6853 35.6997 27.4121 36.0112 28.139C36.3227 28.8658 36.8419 29.4888 37.361 29.9042C37.984 30.4233 38.607 30.631 39.4377 30.631C40.476 30.631 41.3067 30.2157 42.0335 29.4888C42.7604 28.6581 43.1757 27.8275 43.4872 26.7891C43.6949 25.7508 43.9026 24.7125 43.9026 23.5703C43.9026 22.2204 43.7987 21.0783 43.4872 20.1438ZM36.3227 45.9984C35.9073 45.6869 35.492 45.5831 34.9728 45.5831C34.4537 45.5831 34.0383 45.7907 33.623 45.9984C33.2077 46.3099 33 46.6214 32.8962 47.1406H36.9457C36.8419 46.6214 36.6342 46.2061 36.3227 45.9984ZM36.3227 45.9984C35.9073 45.6869 35.492 45.5831 34.9728 45.5831C34.4537 45.5831 34.0383 45.7907 33.623 45.9984C33.2077 46.3099 33 46.6214 32.8962 47.1406H36.9457C36.8419 46.6214 36.6342 46.2061 36.3227 45.9984ZM43.4872 20.1438C43.2796 19.1054 42.7604 18.1709 42.0335 17.4441C41.3067 16.6134 40.476 16.3019 39.4377 16.3019C38.7109 16.3019 37.984 16.5096 37.361 17.0288C36.8419 17.4441 36.3227 18.0671 36.0112 18.7939C35.6997 19.5208 35.492 20.3514 35.2843 21.0783C35.0767 21.9089 35.0767 22.6358 35.0767 23.4665C35.0767 24.2971 35.1805 25.1278 35.2843 25.8546C35.492 26.6853 35.6997 27.4121 36.0112 28.139C36.3227 28.8658 36.8419 29.4888 37.361 29.9042C37.984 30.4233 38.607 30.631 39.4377 30.631C40.476 30.631 41.3067 30.2157 42.0335 29.4888C42.7604 28.6581 43.1757 27.8275 43.4872 26.7891C43.6949 25.7508 43.9026 24.7125 43.9026 23.5703C43.9026 22.2204 43.7987 21.0783 43.4872 20.1438ZM43.4872 20.1438C43.2796 19.1054 42.7604 18.1709 42.0335 17.4441C41.3067 16.6134 40.476 16.3019 39.4377 16.3019C38.7109 16.3019 37.984 16.5096 37.361 17.0288C36.8419 17.4441 36.3227 18.0671 36.0112 18.7939C35.6997 19.5208 35.492 20.3514 35.2843 21.0783C35.0767 21.9089 35.0767 22.6358 35.0767 23.4665C35.0767 24.2971 35.1805 25.1278 35.2843 25.8546C35.492 26.6853 35.6997 27.4121 36.0112 28.139C36.3227 28.8658 36.8419 29.4888 37.361 29.9042C37.984 30.4233 38.607 30.631 39.4377 30.631C40.476 30.631 41.3067 30.2157 42.0335 29.4888C42.7604 28.6581 43.1757 27.8275 43.4872 26.7891C43.6949 25.7508 43.9026 24.7125 43.9026 23.5703C43.9026 22.2204 43.7987 21.0783 43.4872 20.1438ZM36.3227 45.9984C35.9073 45.6869 35.492 45.5831 34.9728 45.5831C34.4537 45.5831 34.0383 45.7907 33.623 45.9984C33.2077 46.3099 33 46.6214 32.8962 47.1406H36.9457C36.8419 46.6214 36.6342 46.2061 36.3227 45.9984ZM36.3227 45.9984C35.9073 45.6869 35.492 45.5831 34.9728 45.5831C34.4537 45.5831 34.0383 45.7907 33.623 45.9984C33.2077 46.3099 33 46.6214 32.8962 47.1406H36.9457C36.8419 46.6214 36.6342 46.2061 36.3227 45.9984ZM43.4872 20.1438C43.2796 19.1054 42.7604 18.1709 42.0335 17.4441C41.3067 16.6134 40.476 16.3019 39.4377 16.3019C38.7109 16.3019 37.984 16.5096 37.361 17.0288C36.8419 17.4441 36.3227 18.0671 36.0112 18.7939C35.6997 19.5208 35.492 20.3514 35.2843 21.0783C35.0767 21.9089 35.0767 22.6358 35.0767 23.4665C35.0767 24.2971 35.1805 25.1278 35.2843 25.8546C35.492 26.6853 35.6997 27.4121 36.0112 28.139C36.3227 28.8658 36.8419 29.4888 37.361 29.9042C37.984 30.4233 38.607 30.631 39.4377 30.631C40.476 30.631 41.3067 30.2157 42.0335 29.4888C42.7604 28.6581 43.1757 27.8275 43.4872 26.7891C43.6949 25.7508 43.9026 24.7125 43.9026 23.5703C43.9026 22.2204 43.7987 21.0783 43.4872 20.1438ZM43.4872 20.1438C43.2796 19.1054 42.7604 18.1709 42.0335 17.4441C41.3067 16.6134 40.476 16.3019 39.4377 16.3019C38.7109 16.3019 37.984 16.5096 37.361 17.0288C36.8419 17.4441 36.3227 18.0671 36.0112 18.7939C35.6997 19.5208 35.492 20.3514 35.2843 21.0783C35.0767 21.9089 35.0767 22.6358 35.0767 23.4665C35.0767 24.2971 35.1805 25.1278 35.2843 25.8546C35.492 26.6853 35.6997 27.4121 36.0112 28.139C36.3227 28.8658 36.8419 29.4888 37.361 29.9042C37.984 30.4233 38.607 30.631 39.4377 30.631C40.476 30.631 41.3067 30.2157 42.0335 29.4888C42.7604 28.6581 43.1757 27.8275 43.4872 26.7891C43.6949 25.7508 43.9026 24.7125 43.9026 23.5703C43.9026 22.2204 43.7987 21.0783 43.4872 20.1438ZM36.3227 45.9984C35.9073 45.6869 35.492 45.5831 34.9728 45.5831C34.4537 45.5831 34.0383 45.7907 33.623 45.9984C33.2077 46.3099 33 46.6214 32.8962 47.1406H36.9457C36.8419 46.6214 36.6342 46.2061 36.3227 45.9984ZM36.3227 45.9984C35.9073 45.6869 35.492 45.5831 34.9728 45.5831C34.4537 45.5831 34.0383 45.7907 33.623 45.9984C33.2077 46.3099 33 46.6214 32.8962 47.1406H36.9457C36.8419 46.6214 36.6342 46.2061 36.3227 45.9984ZM43.4872 20.1438C43.2796 19.1054 42.7604 18.1709 42.0335 17.4441C41.3067 16.6134 40.476 16.3019 39.4377 16.3019C38.7109 16.3019 37.984 16.5096 37.361 17.0288C36.8419 17.4441 36.3227 18.0671 36.0112 18.7939C35.6997 19.5208 35.492 20.3514 35.2843 21.0783C35.0767 21.9089 35.0767 22.6358 35.0767 23.4665C35.0767 24.2971 35.1805 25.1278 35.2843 25.8546C35.492 26.6853 35.6997 27.4121 36.0112 28.139C36.3227 28.8658 36.8419 29.4888 37.361 29.9042C37.984 30.4233 38.607 30.631 39.4377 30.631C40.476 30.631 41.3067 30.2157 42.0335 29.4888C42.7604 28.6581 43.1757 27.8275 43.4872 26.7891C43.6949 25.7508 43.9026 24.7125 43.9026 23.5703C43.9026 22.2204 43.7987 21.0783 43.4872 20.1438ZM43.4872 20.1438C43.2796 19.1054 42.7604 18.1709 42.0335 17.4441C41.3067 16.6134 40.476 16.3019 39.4377 16.3019C38.7109 16.3019 37.984 16.5096 37.361 17.0288C36.8419 17.4441 36.3227 18.0671 36.0112 18.7939C35.6997 19.5208 35.492 20.3514 35.2843 21.0783C35.0767 21.9089 35.0767 22.6358 35.0767 23.4665C35.0767 24.2971 35.1805 25.1278 35.2843 25.8546C35.492 26.6853 35.6997 27.4121 36.0112 28.139C36.3227 28.8658 36.8419 29.4888 37.361 29.9042C37.984 30.4233 38.607 30.631 39.4377 30.631C40.476 30.631 41.3067 30.2157 42.0335 29.4888C42.7604 28.6581 43.1757 27.8275 43.4872 26.7891C43.6949 25.7508 43.9026 24.7125 43.9026 23.5703C43.9026 22.2204 43.7987 21.0783 43.4872 20.1438ZM36.3227 45.9984C35.9073 45.6869 35.492 45.5831 34.9728 45.5831C34.4537 45.5831 34.0383 45.7907 33.623 45.9984C33.2077 46.3099 33 46.6214 32.8962 47.1406H36.9457C36.8419 46.6214 36.6342 46.2061 36.3227 45.9984ZM36.3227 45.9984C35.9073 45.6869 35.492 45.5831 34.9728 45.5831C34.4537 45.5831 34.0383 45.7907 33.623 45.9984C33.2077 46.3099 33 46.6214 32.8962 47.1406H36.9457C36.8419 46.6214 36.6342 46.2061 36.3227 45.9984ZM43.4872 20.1438C43.2796 19.1054 42.7604 18.1709 42.0335 17.4441C41.3067 16.6134 40.476 16.3019 39.4377 16.3019C38.7109 16.3019 37.984 16.5096 37.361 17.0288C36.8419 17.4441 36.3227 18.0671 36.0112 18.7939C35.6997 19.5208 35.492 20.3514 35.2843 21.0783C35.0767 21.9089 35.0767 22.6358 35.0767 23.4665C35.0767 24.2971 35.1805 25.1278 35.2843 25.8546C35.492 26.6853 35.6997 27.4121 36.0112 28.139C36.3227 28.8658 36.8419 29.4888 37.361 29.9042C37.984 30.4233 38.607 30.631 39.4377 30.631C40.476 30.631 41.3067 30.2157 42.0335 29.4888C42.7604 28.6581 43.1757 27.8275 43.4872 26.7891C43.6949 25.7508 43.9026 24.7125 43.9026 23.5703C43.9026 22.2204 43.7987 21.0783 43.4872 20.1438ZM43.4872 20.1438C43.2796 19.1054 42.7604 18.1709 42.0335 17.4441C41.3067 16.6134 40.476 16.3019 39.4377 16.3019C38.7109 16.3019 37.984 16.5096 37.361 17.0288C36.8419 17.4441 36.3227 18.0671 36.0112 18.7939C35.6997 19.5208 35.492 20.3514 35.2843 21.0783C35.0767 21.9089 35.0767 22.6358 35.0767 23.4665C35.0767 24.2971 35.1805 25.1278 35.2843 25.8546C35.492 26.6853 35.6997 27.4121 36.0112 28.139C36.3227 28.8658 36.8419 29.4888 37.361 29.9042C37.984 30.4233 38.607 30.631 39.4377 30.631C40.476 30.631 41.3067 30.2157 42.0335 29.4888C42.7604 28.6581 43.1757 27.8275 43.4872 26.7891C43.6949 25.7508 43.9026 24.7125 43.9026 23.5703C43.9026 22.2204 43.7987 21.0783 43.4872 20.1438ZM36.3227 45.9984C35.9073 45.6869 35.492 45.5831 34.9728 45.5831C34.4537 45.5831 34.0383 45.7907 33.623 45.9984C33.2077 46.3099 33 46.6214 32.8962 47.1406H36.9457C36.8419 46.6214 36.6342 46.2061 36.3227 45.9984ZM43.4872 20.1438C43.2796 19.1054 42.7604 18.1709 42.0335 17.4441C41.3067 16.6134 40.476 16.3019 39.4377 16.3019C38.7109 16.3019 37.984 16.5096 37.361 17.0288C36.8419 17.4441 36.3227 18.0671 36.0112 18.7939C35.6997 19.5208 35.492 20.3514 35.2843 21.0783C35.0767 21.9089 35.0767 22.6358 35.0767 23.4665C35.0767 24.2971 35.1805 25.1278 35.2843 25.8546C35.492 26.6853 35.6997 27.4121 36.0112 28.139C36.3227 28.8658 36.8419 29.4888 37.361 29.9042C37.984 30.4233 38.607 30.631 39.4377 30.631C40.476 30.631 41.3067 30.2157 42.0335 29.4888C42.7604 28.6581 43.1757 27.8275 43.4872 26.7891C43.6949 25.7508 43.9026 24.7125 43.9026 23.5703C43.9026 22.2204 43.7987 21.0783 43.4872 20.1438ZM43.4872 20.1438C43.2796 19.1054 42.7604 18.1709 42.0335 17.4441C41.3067 16.6134 40.476 16.3019 39.4377 16.3019C38.7109 16.3019 37.984 16.5096 37.361 17.0288C36.8419 17.4441 36.3227 18.0671 36.0112 18.7939C35.6997 19.5208 35.492 20.3514 35.2843 21.0783C35.0767 21.9089 35.0767 22.6358 35.0767 23.4665C35.0767 24.2971 35.1805 25.1278 35.2843 25.8546C35.492 26.6853 35.6997 27.4121 36.0112 28.139C36.3227 28.8658 36.8419 29.4888 37.361 29.9042C37.984 30.4233 38.607 30.631 39.4377 30.631C40.476 30.631 41.3067 30.2157 42.0335 29.4888C42.7604 28.6581 43.1757 27.8275 43.4872 26.7891C43.6949 25.7508 43.9026 24.7125 43.9026 23.5703C43.9026 22.2204 43.7987 21.0783 43.4872 20.1438Z" fill="#114FAC"/>
</svg>
