<svg width="16" height="16" viewBox="0 0 16 16" fill="none" xmlns="http://www.w3.org/2000/svg">
<path d="M13.0476 11.7055C14.0953 10.3694 14.6667 8.55616 14.4762 6.64748C14.1905 3.3073 11.5238 0.539718 8.19048 0.0625493C3.80953 -0.510054 0 2.92556 0 7.22009C0 11.2283 3.2381 14.4731 7.2381 14.4731C8.85715 14.4731 10.381 13.9005 11.6191 12.9461L14.381 15.7137C14.7619 16.0954 15.3333 16.0954 15.7143 15.7137C16.0952 15.332 16.0952 14.7594 15.7143 14.3776L13.0476 11.7055ZM7.33335 12.5644C4.38096 12.5644 2.00001 10.1785 2.00001 7.22009C2.00001 4.26164 4.38096 1.87579 7.33335 1.87579C10.2857 1.87579 12.6667 4.26164 12.6667 7.22009C12.6667 10.1785 10.2857 12.5644 7.33335 12.5644Z" fill="white"/>
</svg>
