<svg width="45" height="45" viewBox="0 0 45 45" fill="none" xmlns="http://www.w3.org/2000/svg">
<g clip-path="url(#clip0)">
<path d="M22.5 0C10.0601 0 0 10.0601 0 22.5C0 27.53 1.6226 32.1815 4.4351 35.9135C5.67909 37.5901 7.08534 39.0505 8.70793 40.2945C8.97836 40.5649 9.30289 40.7813 9.57332 40.9976C13.2512 43.5397 17.6863 45.1082 22.5541 45.1082C27.3678 45.1082 31.8029 43.5938 35.4808 40.9976C35.8053 40.7813 36.0757 40.5649 36.3461 40.3486C37.9687 39.1046 39.375 37.6983 40.619 36.0216C43.4315 32.2897 45.0541 27.6382 45.0541 22.6082C45 10.0601 34.9399 0 22.5 0ZM22.5 9.57332C26.5024 9.57332 29.7476 12.8185 29.7476 16.8209C29.7476 18.6599 29.0986 20.2825 27.9627 21.5264C26.6647 23.095 24.7175 24.0144 22.5 24.0144C20.2824 24.0144 18.3353 23.0409 17.0373 21.5264C15.9555 20.2825 15.2524 18.6599 15.2524 16.8209C15.3065 12.8185 18.4976 9.57332 22.5 9.57332ZM35.1022 38.6178C34.8317 38.8341 34.5613 39.0505 34.2368 39.2668C30.8293 41.7007 26.7728 42.9988 22.5 42.9988C18.2272 42.9988 14.1707 41.7007 10.7091 39.2668C10.4387 39.1046 10.2224 38.8882 9.89784 38.6719C9.46514 38.3474 9.08654 38.0228 8.70793 37.6983C9.51923 30.8293 15.3606 25.5288 22.4459 25.5288C29.4772 25.5288 35.3726 30.8293 36.1839 37.6983C35.8594 38.0228 35.4808 38.3474 35.1022 38.6178Z" fill="#DFDFDF"/>
</g>
<defs>
<clipPath id="clip0">
<rect width="45" height="45" fill="white"/>
</clipPath>
</defs>
</svg>
