<svg width="105" height="41" viewBox="0 0 105 41" fill="none" xmlns="http://www.w3.org/2000/svg">
<path d="M27.8415 7.67673H7.80922V16.9566H27.4171V23.8743H7.80922V33.1541H27.7567V40.0718H0V0.759033H27.8415V7.67673Z" fill="#114FAC"/>
<path d="M50.6748 40.9155C41.168 40.9155 35.1413 37.0349 32.6797 29.2736H40.6587C42.4412 32.395 45.7516 33.9978 50.6748 33.9978C53.2213 33.9978 55.1736 33.576 56.7015 32.5637C58.2294 31.6357 58.9933 30.3703 58.9933 28.8517C58.9933 27.4176 58.4841 26.3209 57.3806 25.5616C56.362 24.8024 54.6643 24.2962 52.2876 24.0431L45.497 23.3682C41.5075 23.0308 38.5366 21.8497 36.6692 19.825C34.7169 17.8003 33.7832 15.2694 33.7832 12.2324C33.7832 8.52047 35.2262 5.56779 38.1122 3.29001C40.9982 1.01224 44.8179 -0.0844727 49.5714 -0.0844727C54.155 -0.0844727 57.9748 1.01224 60.9457 3.29001C63.9166 5.56779 65.9537 8.35174 67.0572 11.5575H59.0782C58.3992 10.1233 57.2108 9.02664 55.3434 8.09866C53.5608 7.25503 51.5237 6.83322 49.4016 6.83322C46.8551 6.83322 44.9877 7.3394 43.6296 8.35174C42.2714 9.36409 41.5924 10.5452 41.5924 12.0637C41.5924 14.5945 43.4598 16.1131 47.2795 16.5349L54.5794 17.2098C58.3992 17.6316 61.3701 18.8126 63.577 20.8373C65.784 22.862 66.8026 25.3929 66.8026 28.5143C66.8026 31.9731 65.3596 34.8415 62.5584 37.288C59.7573 39.7345 55.7678 40.9155 50.6748 40.9155Z" fill="#DA2626"/>
<path d="M73.5935 0.759033H91.7584C96.0874 0.759033 99.313 1.85574 101.605 3.9648C103.812 6.07385 105 8.77344 105 12.0636C105 15.9442 103.472 18.7282 100.416 20.4998C103.472 22.2714 105 25.0553 105 28.936C105 32.2261 103.897 34.9257 101.605 37.0348C99.3979 39.1438 96.0874 40.2405 91.7584 40.2405H73.5935V0.759033ZM81.4027 7.67673V16.9566H90.9945C92.8619 16.9566 94.3898 16.5348 95.4933 15.7755C96.5967 15.0162 97.106 13.8352 97.106 12.3167C97.106 9.19525 95.0689 7.59237 90.9945 7.59237H81.4027V7.67673ZM81.4027 23.9586V33.2385H90.9945C92.8619 33.2385 94.3898 32.8167 95.4933 32.0574C96.5967 31.2981 97.106 30.1171 97.106 28.6829C97.106 25.5615 95.0689 23.9586 90.9945 23.9586H81.4027Z" fill="#114FAC"/>
</svg>
