<svg width="180" height="44" viewBox="0 0 180 44" fill="none" xmlns="http://www.w3.org/2000/svg">
<g clip-path="url(#clip0)">
<path d="M30.0305 8.25567H8.42319V18.2351H29.5727V25.6742H8.42319V35.6536H29.939V43.0928H0V0.816498H30.0305V8.25567Z" fill="#114FAC"/>
<path d="M54.6592 44C44.4049 44 37.9044 39.8268 35.2493 31.4804H43.8556C45.7783 34.8371 49.349 36.5608 54.6592 36.5608C57.4059 36.5608 59.5117 36.1072 61.1597 35.0185C62.8078 34.0206 63.6318 32.6598 63.6318 31.0268C63.6318 29.4845 63.0824 28.3051 61.8922 27.4887C60.7935 26.6722 58.9624 26.1278 56.3988 25.8557L49.0743 25.1299C44.7711 24.767 41.5667 23.4969 39.5524 21.3196C37.4466 19.1423 36.4395 16.4206 36.4395 13.1546C36.4395 9.16288 37.996 5.98762 41.1089 3.53814C44.2218 1.08865 48.3418 -0.0907288 53.469 -0.0907288C58.4131 -0.0907288 62.5331 1.08865 65.7376 3.53814C68.9421 5.98762 71.1394 8.98144 72.3296 12.4289H63.7233C62.9909 10.8866 61.7091 9.70721 59.6948 8.70927C57.7722 7.80206 55.5748 7.34845 53.2859 7.34845C50.5392 7.34845 48.525 7.89278 47.0601 8.98144C45.5951 10.0701 44.8627 11.3402 44.8627 12.9732C44.8627 15.6948 46.8769 17.3278 50.997 17.7814L58.8708 18.5072C62.9909 18.9608 66.1954 20.2309 68.5758 22.4082C70.9563 24.5856 72.055 27.3072 72.055 30.6639C72.055 34.3835 70.4985 37.468 67.4771 40.099C64.4558 42.7299 60.1526 44 54.6592 44Z" fill="#DA2626"/>
<path d="M79.3794 0.816498H98.9725C103.642 0.816498 107.121 1.99588 109.593 4.26392C111.973 6.53196 113.255 9.43506 113.255 12.9732C113.255 17.1464 111.607 20.1402 108.311 22.0454C111.607 23.9505 113.255 26.9443 113.255 31.1175C113.255 34.6557 112.065 37.5588 109.593 39.8268C107.213 42.0949 103.642 43.2742 98.9725 43.2742H79.3794V0.816498ZM87.8026 8.25567V18.2351H98.1485C100.163 18.2351 101.811 17.7814 103.001 16.965C104.191 16.1485 104.741 14.8784 104.741 13.2454C104.741 9.88866 102.543 8.16495 98.1485 8.16495H87.8026V8.25567ZM87.8026 25.765V35.7443H98.1485C100.163 35.7443 101.811 35.2907 103.001 34.4742C104.191 33.6577 104.741 32.3876 104.741 30.8454C104.741 27.4887 102.543 25.765 98.1485 25.765H87.8026Z" fill="#114FAC"/>
<path d="M131.658 1.81444H125.615V4.89898H131.475V6.62269H125.615V9.70722H131.658V11.4309H123.784V0.0907288H131.658V1.81444Z" fill="#2D2D2D"/>
<path d="M134.039 0H135.87V11.4309H134.039V0Z" fill="#2D2D2D"/>
<path d="M142.279 9.97937C143.194 9.97937 143.744 9.7072 144.201 9.07215H146.216C145.941 9.88865 145.392 10.5237 144.751 10.9773C144.018 11.4309 143.286 11.7031 142.37 11.7031C141.18 11.7031 140.081 11.3402 139.257 10.5237C138.433 9.70721 138.067 8.70927 138.067 7.52989C138.067 6.3505 138.433 5.35257 139.257 4.53607C140.081 3.71958 141.089 3.35669 142.279 3.35669C143.469 3.35669 144.476 3.71958 145.209 4.53607C145.941 5.35257 146.399 6.3505 146.399 7.52989C146.399 7.89277 146.399 8.16494 146.399 8.25566H139.99C140.081 8.79999 140.356 9.2536 140.814 9.61648C141.18 9.79793 141.638 9.97937 142.279 9.97937ZM142.187 4.89896C141.546 4.89896 141.089 5.0804 140.631 5.35257C140.173 5.71545 139.99 6.07834 139.898 6.62267H144.293C144.201 6.07834 143.927 5.62473 143.561 5.35257C143.286 4.98968 142.737 4.89896 142.187 4.89896Z" fill="#2D2D2D"/>
<path d="M156.104 5.8969H154.181C153.723 5.17112 153.082 4.89896 152.258 4.89896C151.526 4.89896 150.977 5.17112 150.519 5.62473C150.061 6.07834 149.878 6.71339 149.878 7.43916C149.878 8.16494 150.061 8.79999 150.519 9.2536C150.977 9.7072 151.526 9.97937 152.258 9.97937C153.174 9.97937 153.815 9.61648 154.181 8.98143H156.104C155.829 9.79793 155.28 10.433 154.639 10.9773C153.906 11.4309 153.174 11.7031 152.258 11.7031C151.068 11.7031 150.061 11.3402 149.237 10.5237C148.413 9.70721 148.047 8.70927 148.047 7.52989C148.047 6.3505 148.413 5.35257 149.237 4.53607C150.061 3.71958 151.068 3.35669 152.258 3.35669C153.174 3.35669 153.998 3.62885 154.639 4.08246C155.28 4.44535 155.737 5.0804 156.104 5.8969Z" fill="#2D2D2D"/>
<path d="M158.759 1.45154H160.59V3.44741H163.154V5.0804H160.59V8.70927C160.59 9.52576 160.956 9.88865 161.78 9.88865H163.062V11.5216H161.78C160.773 11.5216 160.041 11.3402 159.491 10.8866C158.942 10.433 158.759 9.79793 158.759 9.07216V5.0804H157.294V3.44741H158.759V1.45154Z" fill="#2D2D2D"/>
<path d="M165.168 3.44742H166.999V4.44536C167.182 4.17319 167.548 3.90103 167.915 3.71958C168.372 3.53814 168.83 3.44742 169.471 3.44742H170.203V5.17113H169.471C168.647 5.17113 168.098 5.35257 167.64 5.80618C167.182 6.25979 166.999 6.89484 166.999 7.62061V11.5216H165.168V3.44742Z" fill="#2D2D2D"/>
<path d="M175.697 3.26599C176.887 3.26599 177.894 3.62888 178.718 4.44537C179.542 5.26187 179.908 6.25981 179.908 7.43919C179.908 8.61857 179.542 9.61651 178.718 10.433C177.894 11.2495 176.887 11.6124 175.697 11.6124C174.507 11.6124 173.408 11.2495 172.584 10.433C171.76 9.61651 171.394 8.61857 171.394 7.43919C171.394 6.25981 171.76 5.26187 172.584 4.44537C173.408 3.62888 174.415 3.26599 175.697 3.26599ZM175.697 9.97939C176.429 9.97939 176.979 9.70723 177.436 9.25362C177.894 8.80001 178.169 8.16496 178.169 7.43919C178.169 6.71341 177.894 6.07836 177.436 5.62475C176.979 5.17115 176.429 4.89898 175.697 4.89898C174.964 4.89898 174.415 5.17115 173.957 5.62475C173.499 6.07836 173.225 6.71341 173.225 7.43919C173.225 8.16496 173.499 8.80001 173.957 9.25362C174.323 9.70723 174.964 9.97939 175.697 9.97939Z" fill="#2D2D2D"/>
<path d="M122.777 24.6763H124.791C125.341 25.6742 126.348 26.1278 127.904 26.1278C128.728 26.1278 129.369 25.9464 129.827 25.6742C130.285 25.4021 130.56 24.9485 130.56 24.4948C130.56 24.0412 130.376 23.6783 130.01 23.4062C129.644 23.134 129.095 23.0433 128.362 22.9526L126.348 22.6804C125.249 22.5897 124.425 22.2268 123.876 21.6825C123.327 21.1381 123.052 20.4124 123.052 19.5052C123.052 18.5072 123.418 17.6 124.242 16.9649C125.066 16.3299 126.165 15.967 127.538 15.967C128.82 15.967 129.919 16.2392 130.743 16.8742C131.567 17.5093 132.208 18.2351 132.482 19.1423H130.468C130.285 18.6887 129.919 18.3258 129.369 18.0536C128.82 17.7814 128.179 17.6 127.538 17.6C126.714 17.6 126.165 17.7814 125.707 18.0536C125.249 18.4165 125.066 18.7794 125.066 19.233C125.066 20.1402 125.707 20.5938 126.989 20.7753L129.095 20.9567C130.193 21.0474 131.017 21.4103 131.658 21.9546C132.299 22.499 132.574 23.2247 132.574 24.132C132.574 25.1299 132.208 25.9464 131.384 26.5814C130.56 27.3072 129.461 27.5794 127.996 27.5794C126.623 27.5794 125.432 27.3072 124.608 26.6722C123.601 26.3093 123.052 25.5835 122.777 24.6763Z" fill="#2D2D2D"/>
<path d="M138.067 19.4144C139.257 19.4144 140.265 19.6866 140.997 20.2309C141.729 20.7753 142.096 21.5917 142.096 22.5897V27.5794H140.265V26.8536C139.624 27.4887 138.708 27.8515 137.518 27.8515C136.511 27.8515 135.778 27.5794 135.137 27.1258C134.588 26.6722 134.222 26.0371 134.222 25.1299C134.222 24.4948 134.405 23.9505 134.771 23.5876C135.137 23.2247 135.595 22.9526 136.144 22.7711C136.694 22.5897 137.243 22.5897 137.976 22.5897H140.265C140.265 22.0454 140.081 21.6825 139.715 21.4103C139.349 21.1381 138.8 21.0474 138.159 21.0474C137.06 21.0474 136.419 21.4103 136.144 22.0454H134.222C134.496 21.1381 134.954 20.5031 135.687 20.0495C136.236 19.5959 137.06 19.4144 138.067 19.4144ZM140.173 24.4948V24.0412H137.884C136.694 24.0412 136.053 24.4041 136.053 25.1299C136.053 25.4928 136.236 25.7649 136.511 25.9464C136.785 26.1278 137.243 26.2186 137.793 26.2186C138.525 26.2186 139.074 26.0371 139.532 25.7649C139.99 25.4928 140.173 25.0392 140.173 24.4948Z" fill="#2D2D2D"/>
<path d="M152.35 19.5959L148.688 27.5794H146.948L143.286 19.5959H145.3L147.864 25.2206L150.427 19.5959H152.35Z" fill="#2D2D2D"/>
<path d="M159.858 16.1485H161.689V27.5794H159.858V26.8536C159.217 27.4887 158.393 27.8516 157.294 27.8516C156.012 27.8516 155.005 27.398 154.273 26.5815C153.54 25.765 153.174 24.767 153.174 23.5876C153.174 22.4083 153.54 21.4103 154.273 20.5938C155.005 19.7773 156.012 19.3237 157.294 19.3237C158.393 19.3237 159.217 19.6866 159.858 20.3217V16.1485ZM159.217 25.4928C159.674 25.0392 159.949 24.4041 159.949 23.5876C159.949 22.7711 159.674 22.1361 159.217 21.6825C158.759 21.2289 158.118 21.0474 157.477 21.0474C156.745 21.0474 156.195 21.3196 155.738 21.7732C155.28 22.2268 155.097 22.8619 155.097 23.5876C155.097 24.3134 155.28 24.8577 155.738 25.4021C156.195 25.8557 156.745 26.1278 157.477 26.1278C158.118 26.1278 158.667 25.9464 159.217 25.4928Z" fill="#2D2D2D"/>
<path d="M168.098 19.4144C169.288 19.4144 170.295 19.7773 171.119 20.5938C171.943 21.4103 172.309 22.4082 172.309 23.5876C172.309 24.767 171.943 25.7649 171.119 26.5814C170.295 27.3979 169.288 27.7608 168.098 27.7608C166.907 27.7608 165.809 27.3979 164.985 26.5814C164.161 25.7649 163.795 24.767 163.795 23.5876C163.795 22.4082 164.161 21.4103 164.985 20.5938C165.9 19.7773 166.907 19.4144 168.098 19.4144ZM168.098 26.1278C168.83 26.1278 169.379 25.8557 169.837 25.4021C170.295 24.9485 170.57 24.3134 170.57 23.5876C170.57 22.8619 170.295 22.2268 169.837 21.7732C169.379 21.3196 168.83 21.0474 168.098 21.0474C167.365 21.0474 166.816 21.3196 166.358 21.7732C165.9 22.2268 165.626 22.8619 165.626 23.5876C165.626 24.3134 165.9 24.9485 166.358 25.4021C166.816 25.9464 167.457 26.1278 168.098 26.1278Z" fill="#2D2D2D"/>
<path d="M131.292 38.1031C132.207 38.6474 132.665 39.4639 132.665 40.6433C132.665 41.5505 132.391 42.367 131.75 42.9113C131.109 43.4557 130.193 43.8186 129.003 43.8186H123.784V32.3876H129.003C130.193 32.3876 131.109 32.6598 131.75 33.2949C132.391 33.9299 132.665 34.6557 132.665 35.5629C132.757 36.7423 132.207 37.5588 131.292 38.1031ZM125.615 37.1959H128.82C129.461 37.1959 129.919 37.1052 130.285 36.833C130.651 36.5608 130.834 36.1979 130.834 35.6536C130.834 35.1093 130.651 34.7464 130.285 34.4742C129.919 34.2021 129.461 34.1113 128.82 34.1113H125.615V37.1959ZM125.615 42.0948H128.82C129.461 42.0948 129.919 42.0041 130.285 41.732C130.651 41.4598 130.834 41.0969 130.834 40.5526C130.834 40.0083 130.651 39.6454 130.285 39.3732C129.919 39.101 129.461 39.0103 128.82 39.0103H125.615V42.0948Z" fill="#2D2D2D"/>
<path d="M134.863 34.2021V32.1155H136.877V34.2021H134.863ZM134.954 35.7443H136.785V43.7278H134.954V35.7443Z" fill="#2D2D2D"/>
<path d="M146.307 43.8186H138.983V42.1856L143.835 37.3773H138.983V35.7443H146.216V37.3773L141.363 42.1856H146.307V43.8186Z" fill="#2D2D2D"/>
<path d="M152.991 35.5629C154.089 35.5629 154.913 35.8351 155.554 36.4701C156.195 37.1052 156.562 37.9217 156.562 39.0103V43.7278H154.73V39.1918C154.73 38.5567 154.547 38.0124 154.181 37.7402C153.815 37.3773 153.357 37.1959 152.625 37.1959C151.984 37.1959 151.434 37.3773 150.977 37.8309C150.519 38.2845 150.336 38.8289 150.336 39.5546V43.6371H148.505V35.6536H150.336V36.3794C150.977 35.9258 151.801 35.5629 152.991 35.5629Z" fill="#2D2D2D"/>
<path d="M162.787 42.367C163.703 42.367 164.252 42.0948 164.71 41.4598H166.724C166.45 42.2763 165.9 42.9113 165.259 43.3649C164.527 43.8185 163.795 44.0907 162.879 44.0907C161.689 44.0907 160.59 43.7278 159.766 42.9113C158.942 42.0948 158.576 41.0969 158.576 39.9175C158.576 38.7381 158.942 37.7402 159.766 36.9237C160.59 36.1072 161.597 35.7443 162.787 35.7443C163.978 35.7443 164.985 36.1072 165.717 36.9237C166.45 37.7402 166.907 38.7381 166.907 39.9175C166.907 40.2804 166.907 40.5526 166.907 40.6433H160.498C160.59 41.1876 160.865 41.6412 161.323 42.0041C161.689 42.1856 162.147 42.367 162.787 42.367ZM162.696 37.1959C162.055 37.1959 161.597 37.3773 161.139 37.6495C160.682 38.0124 160.498 38.3753 160.407 38.9196H164.802C164.71 38.3753 164.435 37.9216 164.069 37.6495C163.795 37.3773 163.245 37.1959 162.696 37.1959Z" fill="#2D2D2D"/>
<path d="M176.246 38.1031H174.232C173.866 37.468 173.133 37.1052 172.035 37.1052C171.485 37.1052 171.119 37.1959 170.753 37.3773C170.478 37.5588 170.295 37.7402 170.295 38.1031C170.295 38.3753 170.387 38.5567 170.661 38.6474C170.936 38.7381 171.302 38.8289 171.76 38.9196L173.316 39.0103C175.147 39.1918 176.063 39.9175 176.063 41.3691C176.063 42.0948 175.697 42.7299 175.056 43.1835C174.415 43.6371 173.499 43.9093 172.401 43.9093C171.211 43.9093 170.295 43.6371 169.563 43.1835C168.83 42.7299 168.372 42.0948 168.189 41.2784H170.203C170.478 42.0041 171.302 42.367 172.584 42.367C173.042 42.367 173.499 42.2763 173.774 42.0948C174.049 41.9134 174.232 41.732 174.232 41.4598C174.232 41.1876 174.14 41.0062 173.866 40.8247C173.591 40.6433 173.225 40.5526 172.767 40.5526L171.119 40.3711C170.203 40.2804 169.563 40.0083 169.105 39.6454C168.647 39.2825 168.464 38.7381 168.464 38.0124C168.464 37.2866 168.83 36.6516 169.471 36.1979C170.112 35.7443 171.027 35.4722 172.035 35.4722C173.225 35.4722 174.14 35.7443 174.781 36.1979C175.514 36.7423 175.972 37.3773 176.246 38.1031Z" fill="#2D2D2D"/>
</g>
<defs>
<clipPath id="clip0">
<rect width="180" height="44" fill="white"/>
</clipPath>
</defs>
</svg>
