<svg width="180" height="45" viewBox="0 0 180 45" fill="none" xmlns="http://www.w3.org/2000/svg">
<g clip-path="url(#clip0)">
<path d="M30.0305 8.44321H8.42319V18.6494H29.5727V26.2576H8.42319V36.4638H29.939V44.0721H0V0.834961H30.0305V8.44321Z" fill="#5E5E5E"/>
<path d="M54.6592 45C44.4049 45 37.9044 40.732 35.2493 32.1959H43.8556C45.7783 35.6289 49.349 37.3918 54.6592 37.3918C57.4059 37.3918 59.5117 36.9278 61.1597 35.8144C62.8078 34.7938 63.6318 33.4021 63.6318 31.732C63.6318 30.1546 63.0824 28.9485 61.8922 28.1134C60.7935 27.2784 58.9624 26.7217 56.3988 26.4433L49.0743 25.701C44.7711 25.3299 41.5667 24.0309 39.5524 21.8041C37.4466 19.5773 36.4395 16.7938 36.4395 13.4536C36.4395 9.37114 37.996 6.12372 41.1089 3.61857C44.2218 1.11341 48.3418 -0.0927734 53.469 -0.0927734C58.4131 -0.0927734 62.5331 1.11341 65.7376 3.61857C68.9421 6.12372 71.1394 9.18558 72.3296 12.7113H63.7233C62.9909 11.134 61.7091 9.92784 59.6948 8.90723C57.7722 7.97939 55.5748 7.51547 53.2859 7.51547C50.5392 7.51547 48.525 8.07217 47.0601 9.18558C45.5951 10.299 44.8627 11.5979 44.8627 13.2681C44.8627 16.0516 46.8769 17.7217 50.997 18.1856L58.8708 18.9278C62.9909 19.3918 66.1954 20.6907 68.5758 22.9175C70.9563 25.1443 72.055 27.9278 72.055 31.3608C72.055 35.165 70.4985 38.3196 67.4771 41.0103C64.4558 43.701 60.1526 45 54.6592 45Z" fill="#5E5E5E"/>
<path d="M79.3794 0.834961H98.9725C103.642 0.834961 107.121 2.04115 109.593 4.36073C111.974 6.68032 113.255 9.64939 113.255 13.268C113.255 17.536 111.607 20.5978 108.311 22.5463C111.607 24.4948 113.255 27.5566 113.255 31.8247C113.255 35.4432 112.065 38.4123 109.593 40.7319C107.213 43.0515 103.642 44.2576 98.9725 44.2576H79.3794V0.834961ZM87.8026 8.44321V18.6494H98.1485C100.163 18.6494 101.811 18.1855 103.001 17.3504C104.191 16.5154 104.741 15.2164 104.741 13.5463C104.741 10.1133 102.543 8.35043 98.1485 8.35043H87.8026V8.44321ZM87.8026 26.3504V36.5566H98.1485C100.163 36.5566 101.811 36.0927 103.001 35.2576C104.191 34.4226 104.741 33.1236 104.741 31.5463C104.741 28.1133 102.543 26.3504 98.1485 26.3504H87.8026Z" fill="#5E5E5E"/>
<path d="M131.658 1.85566H125.615V5.0103H131.475V6.77319H125.615V9.92782H131.658V11.6907H123.784V0.0927734H131.658V1.85566Z" fill="#5E5E5E"/>
<path d="M134.039 0H135.87V11.6907H134.039V0Z" fill="#5E5E5E"/>
<path d="M142.279 10.2063C143.194 10.2063 143.743 9.92795 144.201 9.27847H146.215C145.941 10.1135 145.391 10.763 144.751 11.2269C144.018 11.6908 143.286 11.9692 142.37 11.9692C141.18 11.9692 140.081 11.5981 139.257 10.763C138.433 9.92795 138.067 8.90733 138.067 7.70115C138.067 6.49496 138.433 5.47434 139.257 4.63929C140.081 3.80424 141.088 3.43311 142.279 3.43311C143.469 3.43311 144.476 3.80424 145.208 4.63929C145.941 5.47434 146.399 6.49496 146.399 7.70115C146.399 8.07228 146.399 8.35063 146.399 8.44342H139.99C140.081 9.00012 140.356 9.46403 140.814 9.83517C141.18 10.0207 141.638 10.2063 142.279 10.2063ZM142.187 5.01043C141.546 5.01043 141.088 5.19599 140.63 5.47434C140.173 5.84548 139.99 6.21661 139.898 6.77331H144.293C144.201 6.21661 143.927 5.75269 143.56 5.47434C143.286 5.10321 142.736 5.01043 142.187 5.01043Z" fill="#5E5E5E"/>
<path d="M156.104 6.03104H154.181C153.723 5.28878 153.082 5.01043 152.258 5.01043C151.526 5.01043 150.976 5.28878 150.519 5.75269C150.061 6.21661 149.878 6.8661 149.878 7.60836C149.878 8.35063 150.061 9.00012 150.519 9.46403C150.976 9.92795 151.526 10.2063 152.258 10.2063C153.174 10.2063 153.815 9.83517 154.181 9.18568H156.104C155.829 10.0207 155.28 10.6702 154.639 11.2269C153.906 11.6908 153.174 11.9692 152.258 11.9692C151.068 11.9692 150.061 11.5981 149.237 10.763C148.413 9.92795 148.047 8.90733 148.047 7.70115C148.047 6.49496 148.413 5.47434 149.237 4.63929C150.061 3.80424 151.068 3.43311 152.258 3.43311C153.174 3.43311 153.998 3.71146 154.639 4.17537C155.28 4.54651 155.737 5.19599 156.104 6.03104Z" fill="#5E5E5E"/>
<path d="M158.759 1.48438H160.59V3.52561H163.154V5.19572H160.59V8.90706C160.59 9.74211 160.956 10.1132 161.78 10.1132H163.062V11.7833H161.78C160.773 11.7833 160.041 11.5978 159.491 11.1339C158.942 10.6699 158.759 10.0205 158.759 9.27819V5.19572H157.294V3.52561H158.759V1.48438Z" fill="#5E5E5E"/>
<path d="M165.168 3.52588H166.999V4.5465C167.182 4.26815 167.548 3.9898 167.914 3.80423C168.372 3.61866 168.83 3.52588 169.471 3.52588H170.203V5.28877H169.471C168.647 5.28877 168.098 5.47433 167.64 5.93825C167.182 6.40217 166.999 7.05165 166.999 7.79392V11.7836H165.168V3.52588Z" fill="#5E5E5E"/>
<path d="M175.697 3.34033C176.887 3.34033 177.894 3.71147 178.718 4.54652C179.542 5.38157 179.908 6.40219 179.908 7.60837C179.908 8.81456 179.542 9.83518 178.718 10.6702C177.894 11.5053 176.887 11.8764 175.697 11.8764C174.506 11.8764 173.408 11.5053 172.584 10.6702C171.76 9.83518 171.394 8.81456 171.394 7.60837C171.394 6.40219 171.76 5.38157 172.584 4.54652C173.408 3.71147 174.415 3.34033 175.697 3.34033ZM175.697 10.2063C176.429 10.2063 176.979 9.92796 177.436 9.46404C177.894 9.00013 178.169 8.35064 178.169 7.60837C178.169 6.86611 177.894 6.21662 177.436 5.7527C176.979 5.28879 176.429 5.01044 175.697 5.01044C174.964 5.01044 174.415 5.28879 173.957 5.7527C173.499 6.21662 173.225 6.86611 173.225 7.60837C173.225 8.35064 173.499 9.00013 173.957 9.46404C174.323 9.92796 174.964 10.2063 175.697 10.2063Z" fill="#5E5E5E"/>
<path d="M122.777 25.2373H124.791C125.341 26.2579 126.348 26.7218 127.904 26.7218C128.728 26.7218 129.369 26.5363 129.827 26.2579C130.285 25.9796 130.559 25.5156 130.559 25.0517C130.559 24.5878 130.376 24.2167 130.01 23.9383C129.644 23.66 129.094 23.5672 128.362 23.4744L126.348 23.1961C125.249 23.1033 124.425 22.7321 123.876 22.1754C123.326 21.6187 123.052 20.8765 123.052 19.9486C123.052 18.928 123.418 18.0002 124.242 17.3507C125.066 16.7012 126.165 16.3301 127.538 16.3301C128.82 16.3301 129.919 16.6084 130.743 17.2579C131.567 17.9074 132.207 18.6497 132.482 19.5775H130.468C130.285 19.1136 129.919 18.7424 129.369 18.4641C128.82 18.1857 128.179 18.0002 127.538 18.0002C126.714 18.0002 126.165 18.1857 125.707 18.4641C125.249 18.8352 125.066 19.2064 125.066 19.6703C125.066 20.5981 125.707 21.062 126.989 21.2476L129.094 21.4332C130.193 21.526 131.017 21.8971 131.658 22.4538C132.299 23.0105 132.574 23.7528 132.574 24.6806C132.574 25.7012 132.207 26.5363 131.383 27.1857C130.559 27.928 129.461 28.2064 127.996 28.2064C126.622 28.2064 125.432 27.928 124.608 27.2785C123.601 26.9074 123.052 26.1651 122.777 25.2373Z" fill="#5E5E5E"/>
<path d="M138.067 19.8555C139.257 19.8555 140.264 20.1338 140.997 20.6905C141.729 21.2472 142.096 22.0823 142.096 23.1029V28.206H140.264V27.4637C139.624 28.1132 138.708 28.4843 137.518 28.4843C136.511 28.4843 135.778 28.206 135.137 27.7421C134.588 27.2781 134.222 26.6287 134.222 25.7008C134.222 25.0513 134.405 24.4946 134.771 24.1235C135.137 23.7524 135.595 23.474 136.144 23.2885C136.694 23.1029 137.243 23.1029 137.975 23.1029H140.264C140.264 22.5462 140.081 22.1751 139.715 21.8967C139.349 21.6184 138.799 21.5256 138.159 21.5256C137.06 21.5256 136.419 21.8967 136.144 22.5462H134.222C134.496 21.6184 134.954 20.9689 135.687 20.505C136.236 20.041 137.06 19.8555 138.067 19.8555ZM140.173 25.0513V24.5874H137.884C136.694 24.5874 136.053 24.9586 136.053 25.7008C136.053 26.072 136.236 26.3503 136.511 26.5359C136.785 26.7214 137.243 26.8142 137.792 26.8142C138.525 26.8142 139.074 26.6287 139.532 26.3503C139.99 26.072 140.173 25.608 140.173 25.0513Z" fill="#5E5E5E"/>
<path d="M152.35 20.0415L148.687 28.2065H146.948L143.286 20.0415H145.3L147.863 25.7941L150.427 20.0415H152.35Z" fill="#5E5E5E"/>
<path d="M159.857 16.5156H161.689V28.2063H159.857V27.4641C159.217 28.1136 158.393 28.4847 157.294 28.4847C156.012 28.4847 155.005 28.0208 154.273 27.1857C153.54 26.3507 153.174 25.3301 153.174 24.1239C153.174 22.9177 153.54 21.8971 154.273 21.062C155.005 20.227 156.012 19.763 157.294 19.763C158.393 19.763 159.217 20.1342 159.857 20.7837V16.5156ZM159.217 26.0723C159.674 25.6084 159.949 24.9589 159.949 24.1239C159.949 23.2888 159.674 22.6393 159.217 22.1754C158.759 21.7115 158.118 21.5259 157.477 21.5259C156.745 21.5259 156.195 21.8043 155.737 22.2682C155.28 22.7321 155.097 23.3816 155.097 24.1239C155.097 24.8661 155.28 25.4228 155.737 25.9795C156.195 26.4435 156.745 26.7218 157.477 26.7218C158.118 26.7218 158.667 26.5362 159.217 26.0723Z" fill="#5E5E5E"/>
<path d="M168.098 19.8555C169.288 19.8555 170.295 20.2266 171.119 21.0617C171.943 21.8967 172.309 22.9173 172.309 24.1235C172.309 25.3297 171.943 26.3503 171.119 27.1854C170.295 28.0204 169.288 28.3916 168.098 28.3916C166.907 28.3916 165.809 28.0204 164.985 27.1854C164.161 26.3503 163.794 25.3297 163.794 24.1235C163.794 22.9173 164.161 21.8967 164.985 21.0617C165.9 20.2266 166.907 19.8555 168.098 19.8555ZM168.098 26.7214C168.83 26.7214 169.379 26.4431 169.837 25.9792C170.295 25.5153 170.57 24.8658 170.57 24.1235C170.57 23.3812 170.295 22.7318 169.837 22.2678C169.379 21.8039 168.83 21.5256 168.098 21.5256C167.365 21.5256 166.816 21.8039 166.358 22.2678C165.9 22.7318 165.626 23.3812 165.626 24.1235C165.626 24.8658 165.9 25.5153 166.358 25.9792C166.816 26.5359 167.457 26.7214 168.098 26.7214Z" fill="#5E5E5E"/>
<path d="M131.292 38.9689C132.207 39.5256 132.665 40.3606 132.665 41.5668C132.665 42.4947 132.39 43.3297 131.75 43.8864C131.109 44.4431 130.193 44.8142 129.003 44.8142H123.784V33.1235H129.003C130.193 33.1235 131.109 33.4019 131.75 34.0514C132.39 34.7009 132.665 35.4431 132.665 36.371C132.757 37.5771 132.207 38.4122 131.292 38.9689ZM125.615 38.0411H128.82C129.461 38.0411 129.918 37.9483 130.285 37.6699C130.651 37.3916 130.834 37.0204 130.834 36.4637C130.834 35.907 130.651 35.5359 130.285 35.2576C129.918 34.9792 129.461 34.8864 128.82 34.8864H125.615V38.0411ZM125.615 43.0514H128.82C129.461 43.0514 129.918 42.9586 130.285 42.6802C130.651 42.4019 130.834 42.0307 130.834 41.474C130.834 40.9173 130.651 40.5462 130.285 40.2679C129.918 39.9895 129.461 39.8967 128.82 39.8967H125.615V43.0514Z" fill="#5E5E5E"/>
<path d="M134.863 34.9792V32.8452H136.877V34.9792H134.863ZM134.954 36.5566H136.785V44.7215H134.954V36.5566Z" fill="#5E5E5E"/>
<path d="M146.307 44.8144H138.983V43.1443L143.835 38.2267H138.983V36.5566H146.216V38.2267L141.363 43.1443H146.307V44.8144Z" fill="#5E5E5E"/>
<path d="M152.991 36.3711C154.089 36.3711 154.913 36.6494 155.554 37.2989C156.195 37.9484 156.561 38.7835 156.561 39.8969V44.7216H154.73V40.0824C154.73 39.4329 154.547 38.8762 154.181 38.5979C153.815 38.2268 153.357 38.0412 152.624 38.0412C151.984 38.0412 151.434 38.2268 150.976 38.6907C150.519 39.1546 150.336 39.7113 150.336 40.4536V44.6288H148.504V36.4639H150.336V37.2061C150.976 36.7422 151.8 36.3711 152.991 36.3711Z" fill="#5E5E5E"/>
<path d="M162.787 43.3298C163.703 43.3298 164.252 43.0515 164.71 42.402H166.724C166.45 43.2371 165.9 43.8865 165.259 44.3505C164.527 44.8144 163.794 45.0927 162.879 45.0927C161.689 45.0927 160.59 44.7216 159.766 43.8865C158.942 43.0515 158.576 42.0309 158.576 40.8247C158.576 39.6185 158.942 38.5979 159.766 37.7628C160.59 36.9278 161.597 36.5566 162.787 36.5566C163.978 36.5566 164.985 36.9278 165.717 37.7628C166.45 38.5979 166.907 39.6185 166.907 40.8247C166.907 41.1958 166.907 41.4742 166.907 41.567H160.498C160.59 42.1237 160.865 42.5876 161.322 42.9587C161.689 43.1443 162.146 43.3298 162.787 43.3298ZM162.696 38.0412C162.055 38.0412 161.597 38.2267 161.139 38.5051C160.681 38.8762 160.498 39.2474 160.407 39.8041H164.802C164.71 39.2474 164.435 38.7834 164.069 38.5051C163.794 38.2267 163.245 38.0412 162.696 38.0412Z" fill="#5E5E5E"/>
<path d="M176.246 38.969H174.232C173.865 38.3196 173.133 37.9484 172.034 37.9484C171.485 37.9484 171.119 38.0412 170.753 38.2268C170.478 38.4123 170.295 38.5979 170.295 38.969C170.295 39.2474 170.386 39.433 170.661 39.5257C170.936 39.6185 171.302 39.7113 171.76 39.8041L173.316 39.8969C175.147 40.0824 176.063 40.8247 176.063 42.3092C176.063 43.0515 175.697 43.701 175.056 44.1649C174.415 44.6288 173.499 44.9072 172.401 44.9072C171.21 44.9072 170.295 44.6288 169.562 44.1649C168.83 43.701 168.372 43.0515 168.189 42.2165H170.203C170.478 42.9587 171.302 43.3299 172.584 43.3299C173.041 43.3299 173.499 43.2371 173.774 43.0515C174.049 42.866 174.232 42.6804 174.232 42.402C174.232 42.1237 174.14 41.9381 173.865 41.7525C173.591 41.567 173.225 41.4742 172.767 41.4742L171.119 41.2886C170.203 41.1958 169.562 40.9175 169.105 40.5464C168.647 40.1752 168.464 39.6185 168.464 38.8763C168.464 38.134 168.83 37.4845 169.471 37.0206C170.112 36.5567 171.027 36.2783 172.034 36.2783C173.225 36.2783 174.14 36.5567 174.781 37.0206C175.513 37.5773 175.971 38.2268 176.246 38.969Z" fill="#5E5E5E"/>
</g>
<defs>
<clipPath id="clip0">
<rect width="180" height="45" fill="white"/>
</clipPath>
</defs>
</svg>
