<svg width="113" height="16" viewBox="0 0 113 16" fill="none" xmlns="http://www.w3.org/2000/svg">
<g clip-path="url(#clip0)">
<path d="M12.7499 10.182L14.6025 15.1274C14.8204 15.7092 14.0576 16.1941 13.5127 15.8062L8.49992 12.4123L3.4871 15.8062C2.94223 16.1941 2.17941 15.7092 2.39735 15.1274L4.24992 10.182C4.35889 9.89106 4.24992 9.60015 4.03197 9.50318L0.326842 7.07893C-0.21803 6.78803 -8.11536e-05 5.9153 0.762739 5.9153H5.23069C5.55761 5.9153 5.77556 5.72136 5.88453 5.43045L7.7371 0.388024C7.95505 -0.193794 8.93581 -0.193794 9.15376 0.388024L11.0063 5.43045C11.1153 5.72136 11.3333 5.9153 11.6602 5.9153H16.1281C16.782 5.9153 17.1089 6.69106 16.564 7.07893L13.0768 9.50318C12.7499 9.69712 12.6409 9.98803 12.7499 10.182Z" fill="#FFC700"/>
</g>
<g clip-path="url(#clip1)">
<path d="M36.7499 10.182L38.6025 15.1274C38.8204 15.7092 38.0576 16.1941 37.5127 15.8062L32.4999 12.4123L27.4871 15.8062C26.9422 16.1941 26.1794 15.7092 26.3974 15.1274L28.2499 10.182C28.3589 9.89106 28.2499 9.60015 28.032 9.50318L24.3268 7.07893C23.782 6.78803 23.9999 5.9153 24.7627 5.9153H29.2307C29.5576 5.9153 29.7756 5.72136 29.8845 5.43045L31.7371 0.388024C31.955 -0.193794 32.9358 -0.193794 33.1538 0.388024L35.0063 5.43045C35.1153 5.72136 35.3333 5.9153 35.6602 5.9153H40.1281C40.782 5.9153 41.1089 6.69106 40.564 7.07893L37.0768 9.50318C36.7499 9.69712 36.6409 9.98803 36.7499 10.182Z" fill="#FFC700"/>
</g>
<g clip-path="url(#clip2)">
<path d="M60.7499 10.182L62.6025 15.1274C62.8204 15.7092 62.0576 16.1941 61.5127 15.8062L56.4999 12.4123L51.4871 15.8062C50.9422 16.1941 50.1794 15.7092 50.3974 15.1274L52.2499 10.182C52.3589 9.89106 52.2499 9.60015 52.032 9.50318L48.3268 7.07893C47.782 6.78803 47.9999 5.9153 48.7627 5.9153H53.2307C53.5576 5.9153 53.7756 5.72136 53.8845 5.43045L55.7371 0.388024C55.955 -0.193794 56.9358 -0.193794 57.1538 0.388024L59.0063 5.43045C59.1153 5.72136 59.3333 5.9153 59.6602 5.9153H64.1281C64.782 5.9153 65.1089 6.69106 64.564 7.07893L61.0768 9.50318C60.7499 9.69712 60.6409 9.98803 60.7499 10.182Z" fill="#FFC700"/>
</g>
<g clip-path="url(#clip3)">
<path d="M84.7499 10.182L86.6025 15.1274C86.8204 15.7092 86.0576 16.1941 85.5127 15.8062L80.4999 12.4123L75.4871 15.8062C74.9422 16.1941 74.1794 15.7092 74.3974 15.1274L76.2499 10.182C76.3589 9.89106 76.2499 9.60015 76.032 9.50318L72.3268 7.07893C71.782 6.78803 71.9999 5.9153 72.7627 5.9153H77.2307C77.5576 5.9153 77.7756 5.72136 77.8845 5.43045L79.7371 0.388024C79.955 -0.193794 80.9358 -0.193794 81.1538 0.388024L83.0063 5.43045C83.1153 5.72136 83.3333 5.9153 83.6602 5.9153H88.1281C88.782 5.9153 89.1089 6.69106 88.564 7.07893L85.0768 9.50318C84.7499 9.69712 84.6409 9.98803 84.7499 10.182Z" fill="#FFC700"/>
</g>
<g clip-path="url(#clip4)">
<path d="M108.75 10.182L110.602 15.1274C110.82 15.7092 110.058 16.1941 109.513 15.8062L104.5 12.4123L99.4871 15.8062C98.9422 16.1941 98.1794 15.7092 98.3974 15.1274L100.25 10.182C100.359 9.89106 100.25 9.60015 100.032 9.50318L96.3268 7.07893C95.782 6.78803 95.9999 5.9153 96.7627 5.9153H101.231C101.558 5.9153 101.776 5.72136 101.885 5.43045L103.737 0.388024C103.955 -0.193794 104.936 -0.193794 105.154 0.388024L107.006 5.43045C107.115 5.72136 107.333 5.9153 107.66 5.9153H112.128C112.782 5.9153 113.109 6.69106 112.564 7.07893L109.077 9.50318C108.75 9.69712 108.641 9.98803 108.75 10.182Z" fill="#FFC700"/>
</g>
<defs>
<clipPath id="clip0">
<rect width="17" height="16" fill="white"/>
</clipPath>
<clipPath id="clip1">
<rect width="17" height="16" fill="white" transform="translate(24)"/>
</clipPath>
<clipPath id="clip2">
<rect width="17" height="16" fill="white" transform="translate(48)"/>
</clipPath>
<clipPath id="clip3">
<rect width="17" height="16" fill="white" transform="translate(72)"/>
</clipPath>
<clipPath id="clip4">
<rect width="17" height="16" fill="white" transform="translate(96)"/>
</clipPath>
</defs>
</svg>
